<?xml version="1.0" encoding="UTF-8"?> <svg xmlns="http://www.w3.org/2000/svg" id="Layer_1" data-name="Layer 1" viewBox="0 0 208.85 208.85"> <defs> <style>.cls-1{fill:#c2ccff;}.cls-2{fill:#4a4a4a;}.cls-3{fill:none;stroke:#c2ccff;stroke-linecap:round;stroke-miterlimit:10;stroke-width:8.24px;}</style> </defs> <path class="cls-1" d="M63.6,60c13.25-17.23,1-45.33,28.85-48.42,12-1.33,60.18-8.23,73.14,19.57,4.12,8.84,10.3,26.79,9.27,38.12-1.21,13.34-4.72,19.67-14.42,35-21,33.32-20.32,65-34.23,76.36C63.69,231.83,65,174.25,56.39,162c-5.07-7.23-14.09-18.67-21.63-39.15S11.47,86.65,25.48,70.27,53.3,73.36,63.6,60Z"></path> <path class="cls-2" d="M123.08,140.94c.06.38.5.32.73-.62l-.43-.87Z"></path> <path class="cls-2" d="M126.4,135.24c.07-1.17,0-2.59-.86-2.12.22,1.27-.12,1.44.2,2.83-.25.93-.77,1.5-.95,1.27,0,.38-.64,1.36-.41,2A7.24,7.24,0,0,0,126,135C126.26,134.74,126.31,135.12,126.4,135.24Z"></path> <path class="cls-2" d="M140.82,82.47l.44-.44A3,3,0,0,0,140.82,82.47Z"></path> <path class="cls-2" d="M141.25,63.44c-.18.41-.2.6-.15.65C141.24,63.7,141.35,63.38,141.25,63.44Z"></path> <path class="cls-2" d="M146,54.6l-.26.54A1.11,1.11,0,0,0,146,54.6Z"></path> <path class="cls-2" d="M140.82,82.47c-.38.39-.74.78-1.1,1.17C139.85,83.86,140.31,83.07,140.82,82.47Z"></path> <path class="cls-2" d="M129.47,122.59a3.57,3.57,0,0,0-.14.85l.22-.76A.34.34,0,0,1,129.47,122.59Z"></path> <path class="cls-2" d="M160.83,76.86l-.32.59c0,.2,0,.41-.06.61A7.22,7.22,0,0,0,160.83,76.86Z"></path> <path class="cls-2" d="M148.66,92.92c.29-.33-.08-.8-.18-1.09a1.61,1.61,0,0,1-.27,1A.63.63,0,0,0,148.66,92.92Z"></path> <path class="cls-2" d="M133.28,119.38l-.13.54Z"></path> <path class="cls-2" d="M148.72,73.57a.5.5,0,0,0-.27,0C148.49,73.58,148.59,73.59,148.72,73.57Z"></path> <path class="cls-2" d="M82.23,154.24s-.06,0-.1,0S82.27,154.43,82.23,154.24Z"></path> <path class="cls-2" d="M76.85,177.39l0-.32a1.05,1.05,0,0,0-.31-.11Z"></path> <path class="cls-2" d="M143.54,35.16l.14,0C144.56,35.17,144.07,35.14,143.54,35.16Z"></path> <path class="cls-2" d="M103.59,61.21c.85-1.76.11,3.13,1.18.45C104.5,61.88,104.35,59,103.59,61.21Z"></path> <path class="cls-2" d="M129.73,122.15c.09-.25.18-.5.29-.75A3.43,3.43,0,0,0,129.73,122.15Z"></path> <path class="cls-2" d="M104.77,61.66h0l.1-.28Z"></path> <path class="cls-2" d="M119.68,71.64a1,1,0,0,0,.4-.3C120,71.33,119.92,71.39,119.68,71.64Z"></path> <path class="cls-2" d="M134.38,43.88l-.5.62C134.09,44.26,134.25,44.06,134.38,43.88Z"></path> <path class="cls-2" d="M114,86.56a3.26,3.26,0,0,0-.56.88.71.71,0,0,0,.14-.1A1.61,1.61,0,0,1,114,86.56Z"></path> <path class="cls-2" d="M116.21,77.66l-.19.27-.12.51Z"></path> <path class="cls-2" d="M56.11,110.66a2.26,2.26,0,0,1-.13.94C56.24,111.18,57.46,113.43,56.11,110.66Z"></path> <path class="cls-2" d="M129.77,122.7a.6.6,0,0,1,0-.55l-.18.53C129.61,122.76,129.68,122.8,129.77,122.7Z"></path> <path class="cls-2" d="M117.64,89.41a14.18,14.18,0,0,1-.94,1.38,4.92,4.92,0,0,1-.33.39,4.1,4.1,0,0,1-.42.44,5.71,5.71,0,0,1-.64.51,3.62,3.62,0,0,1-1.39.57,3.6,3.6,0,0,0,.75-.21c.17-.08.35-.17.52-.27a5.08,5.08,0,0,0,.67-.49,7.36,7.36,0,0,0,.79-.84A12.31,12.31,0,0,0,117.64,89.41Z"></path> <path class="cls-2" d="M87.82,65.53l.05.61A1.47,1.47,0,0,0,87.82,65.53Z"></path> <path class="cls-2" d="M110.38,81.89a7.45,7.45,0,0,0,.76-1.42,1.14,1.14,0,0,0-.07-.34Z"></path> <path class="cls-2" d="M56,111.61h0Z"></path> <path class="cls-2" d="M63.81,127.43c-.93-2.27-1.13-.79-1.73-1.1-1.31-2.69,0-1.49,0-2.58-.86-1.66-2-2.79-2.49-4.12.07-.15,0-.42.28-.17-1.26-1.66-2.22-5.63-3.92-7.49a.68.68,0,0,1,0-.36,1.05,1.05,0,0,1-.79.77c-.51-1-1.36-1.72-1.1-2.33.29.64.5.61.78.84l-.72-1c.17-1.3.94,1.36,1.42,1.15-.62-1-1.36-2-2-3a13.06,13.06,0,0,1-1.47-2.83c.48-.62,1.94,3.66,1.52,1.26.3.86.6,1.72.92,2.57.09-2.33.65,1.49.88-.72-1.35-3.26-2-3.45-3.34-6.86-.7-.59-.41.49-1.11-.1A7.74,7.74,0,0,1,49.36,97a4.12,4.12,0,0,0-1.59-3.26c-1-.61-1.85-.45-3.36-2.91l1.24.23a5.6,5.6,0,0,0-2-1.72c-.23-.11-.45-.17-.67-.27a3.7,3.7,0,0,1-.35-.17l-.19-.12c-.07,0-.14-.11-.13-.09a.77.77,0,0,1-.35-.78,7.8,7.8,0,0,0,.63.49s0,0,.1.07l.13.1c.06,0,.07,0,0-.06s-.18-.26-.11-.22c-.07-.34-.15-.34-.39-.39s-.5-.15-.45-.55c.24,0,.48,0,.72,0a4.16,4.16,0,0,1,4.19-3.16,7.76,7.76,0,0,1,2.43.66c-.28.1-.89.06-.27.59A15.43,15.43,0,0,1,54.62,90a20.87,20.87,0,0,1,2.14,3.1l2,3.43,1.64,1.23c.26.37.27.85-.11.52,1,1.74.37-.15,1.12.48.71.89.62,1.41,0,.94,1.28,1.28,3,3,4.71,5a17,17,0,0,0,3.22,2.8,9.06,9.06,0,0,0,4,1.35,7.34,7.34,0,0,1-1,.14,6,6,0,0,0,1.38,0,7,7,0,0,0,1.09-.26,5.21,5.21,0,0,0,1.48-.92A22.55,22.55,0,0,1,79,105.63l-.36.48c2.76-2.36,4.2-5.82,5.08-8.88s1.54-6,2.36-8.27c-.68-1,1.18-6.16,0-6.68.9-3.5,1.06-2.47,1.76-7.46.13-1.34-.66-2-.71-3.69h.63l-.58-2.26.8-1.17-.11-1.55c-.06.62-.33,1.3-.51,1.2-.21-2.42.61-5.85.94-5.9l-.37-5.69c.25.13.3,1.08.44,1.84-.55-3,.69-.53.19-3.31-.16.36-.37-.21-.5-.28a31.28,31.28,0,0,0,.59-6.76l.4.46c.21-2,.35-4.19.66-6.27.07-.52.16-1,.26-1.53l.17-.74c0-.07,0-.08,0-.08v0l0-.08a.87.87,0,0,1,.3-.55,1,1,0,0,1-.46-.52.86.86,0,0,1,.16-.95,4.17,4.17,0,0,1,.35.87c.11-.34,0-.42-.11-.48s-.24-.18.19-.7a.44.44,0,0,1,.42.21,1,1,0,0,1-.13.87,3.54,3.54,0,0,1-.21.4l.17-.11a.45.45,0,0,1,.39,0c-.1.28-.24.32-.37.67.15-.25.16.15.07.33s-.08.16-.07.18a.17.17,0,0,0,.09.1s.06.12.11.18a1,1,0,0,0,.15.2l-.18.14c.34,2.1.5,3.78.67,5.32s.27,3,.33,4.92c.58.06.48,1.56,1,2.69-.14,2.82-.6,6-.53,9.38.3,2.41.49.7.85,1.78-.53.18-.44,3.61-.84,1.84a68.45,68.45,0,0,0,1,10.54c.16-.59.21-1.24.41-.92.16.94,0,2.2-.28,2.09l-.08-.25c.09.42.19.85.27,1.29l.26,1.43a22.92,22.92,0,0,0,.93,4A7.71,7.71,0,0,0,96.85,87a4.23,4.23,0,0,0,1.47.93,4.58,4.58,0,0,0,1.8.18,5.32,5.32,0,0,0,1.09-.38,4.67,4.67,0,0,0,.91-.66,7,7,0,0,0,1.5-2.28,18.44,18.44,0,0,0,.95-3c.12-.49.21-1,.29-1.44a7.67,7.67,0,0,0,0-.82v.27c.21-1.65.36-3.27.5-4.89.54-2.17.12,1.39.77-.17.17-5.3,1.66-8.06,1.86-12.37,2.11-3,2-11.52,3.92-15.62l-.41.17c-.11-1.19.5-1.3.76-2.09-.3,0-.59,1.13-.63.39a57.73,57.73,0,0,1,3.08-11.17,11,11,0,0,1,1.16-2.22,6,6,0,0,1,.68-.79q.18-.16.36-.3a2,2,0,0,1,.31-.19,2.56,2.56,0,0,1,1.41-.3c.42.05.52.21.53.28a4.23,4.23,0,0,1,.33,1.24c.06.36.13.85.17,1.28s.07.88.11,1.33a4.22,4.22,0,0,0,.93,2.69c.37.59.68,1.33.1,3.51-.2-.43-.4-.86-.61-1.28a40.28,40.28,0,0,1-1,10.74c-.74,3.6-1.67,7.16-2.27,10.7,0-.45-.23-.51,0-1.19-.85,1.33-1.51,5.39-1.13,5.52-.36,1.07-.42.15-.81.76-.7,1.38-.47,3.85-1.17,4.49-.12.11,0-.45,0-.73,0,1-1.37,4.45-.55,3.69-1,2.54-1.21,5.08-2.08,7.14a8.83,8.83,0,0,1-.5,3c-.26,1.05-.42,2.06,0,2.37-.23-.09-.43.19-.59.71A6.07,6.07,0,0,0,109.9,89a4.53,4.53,0,0,0,.87,2.19,3.7,3.7,0,0,0,.62.64,3.41,3.41,0,0,0,.64.39,2.75,2.75,0,0,0,.87.26,3,3,0,0,0,1.56-.21l.43-.22.2-.13.13-.1a4.52,4.52,0,0,0,1.11-1.32,5.14,5.14,0,0,0,.42-.88c-.09.71,1.11-1.32,1.06-.47,1-1.91,1.6-3.63,1-3.52,2.56-2.91,2.1-7.07,4.21-8.39,1.78-5.56,3.54-10.62,5.52-15.43.75.54-2.27,5.27-1.28,5.47,1.63-4.66,2.08-7.59,4.47-11.84.68-1.06,0,.82,0,1.27,1.84-4.55,4.45-8.28,6.49-12,.07.06-.12.49-.31.88.45-.7,1.24-1.48.84-1.66l-.38.72c-.64.36-.43-.5,0-1.49a16.81,16.81,0,0,0,.94-2.25c0,1,.76.13,1.42-.36a1.51,1.51,0,0,1,.88-.34c.22,0,.25.27.17.81.24-.3.58-.68.38-.9.59-.18.76,0,.4.44.46-.26.56-.33.7-.42a3,3,0,0,1,.37-.21.58.58,0,0,1,.42-.06.86.86,0,0,1,.6.44c-.16.11-.38,0-.62.1a1,1,0,0,1,.53.15,1.17,1.17,0,0,1,.33.31,2.93,2.93,0,0,1,.3.64,4.46,4.46,0,0,1,.13,1.92c-.13-.13-.28.1-.27-.51a34.09,34.09,0,0,1-.33,5.15,17.61,17.61,0,0,1-1.7,5.49c-.35-1.53-.82,1.29-1.64,1.21L140.64,57l.73-.72c-.85,1.9-1.13,3.82-2.14,5.34l.39-1.54L138,63.68l1.25-1.88c-.58,2.09,1,.22-.45,2.65.18-.55-1,1.89-1.86,2.67h0a9.36,9.36,0,0,1-1.39,3.42c-.41.25-.61-.68-.88-.52.1,1.21-2.11,4.49-2.09,6,0-.46-.29-.66-.43-.57l.07,1c-.6.8-.73.89-.95.6-1.41,2.6,1.29-.4-.65,2.55.08-.27-.05-.18.14-.73-1.77,3.07-2.71,6.26-4.12,9.24-1.09.63.89-2.76-.13-2a30.79,30.79,0,0,0-1.1,3.52c-.15.61-.27,1.25-.38,1.89a13.74,13.74,0,0,0-.14,2.18,3.83,3.83,0,0,0,2.39,3.77,4.75,4.75,0,0,0,4.34-.17,5.83,5.83,0,0,1-1,.36c.13-.35.41-.53.81-.76l1.35-.68a6.37,6.37,0,0,0,2.68-2.44c-.31.49,0,1,0,.77,2.26-2.4,3.55-5.48,5.82-9.51l-.09.63c.61-.68,1.28-1.62,2-2.5l1.13-1.35c.38-.42.75-.81,1.09-1.14.16-.62,1-1.36.21-1.17,2.63-1.57,4.54-3.5,6.75-5a8.37,8.37,0,0,1,3.45-1.45c1-.15,2.11.27,2.32,1.14a1.21,1.21,0,0,0-.56-.27c-.17,0-.26,0-.14.08a1.31,1.31,0,0,1,.84.94,2.33,2.33,0,0,1-.3,1.29c.58-.07.51-.21,1.16-.94.25.43-.13,1.6-.84,2.5.5-.92.24-.95-.07-.81s-.92.63-1.29.87c.21,0,.14.31.3.35-2.16,1.25.46.89-2.08,3l-.09-.3a22.49,22.49,0,0,1-1.92,3.15c-.78.11.58-1.18.27-1.52-1.1,1.49-1.38,3.52-2.84,4.53.35-.72,1-1.62,1.39-2.33a8.84,8.84,0,0,0-2.53,2.34l.1-.1L147.4,89.4l.62-.53c-.25,2.69-2.65,3.9-3.79,6.94,1.13-2.94-.11-.71-.47-1.26-.62.53-1.51,1.37-1.45,1a4.35,4.35,0,0,1-1.17,1.67,5.92,5.92,0,0,0-.71.87,5.51,5.51,0,0,0-.59,1.49c-.22,0-.8,1.43-1.08.89-.79,1.85.52-.26.67,0-.81,3-3.82,6-4.65,10.31-1.08,3.54-.71,4.43-1.69,7.7-.73,1-.32-1.14-.32-1.14a15.46,15.46,0,0,0-1.88,4.63c0-.4-.3-.11-.71.3-.47,1.32.34,1.14-.62,2.75a4.85,4.85,0,0,1-.23-1.6c-.45,1.61-.68,3.27-1.13,4.93-.49.3-.12-1.15-.12-1.8-.55,1.85-1.49,4.77-1.17,5.53l.62-1.09c-.23.66-.58.17-.49-.35.18-1.7,1-2.15,1.25-2.17l-.31,1.19c1.54-.75,1.57-4.64,2.55-6.89l.42,1.26.26-2.6c.41-.41,1-.57.66.6,1-1.47.29-1.56,1.3-2.78.13-.13.14,0,.11.11l.41-1.68c0,.38.67,0,.15.89,1.62-2.65,1.31-4.83,2.35-5.64l-.05.25c1.41-4-.42-.62.17-3.86L138.6,108l-.4-.64c.19-.4.59-1.17.76-.92.29-1.66-.37.14-.34-.89a18.22,18.22,0,0,0,1.82-3.31c.56-1.11,1.1-2,1.66-1.93,0-.43-.35-.08-.58.15s-.36.3.11-.72c1.16.07,1.41-2.21,3-3.46.08.8-1.27,2.08.31.84,0-1.49,2.46-2.88,3.3-4.28-.55-.51,1.91-3,3.38-5.34,0,.14.91-.82,2-2l1.69-2c.57-.65,1.11-1.27,1.52-1.66l.05.14c-.15-.42.24-1.1.82-1.88.29-.39.61-.82.94-1.24a11,11,0,0,0,.91-1.38.58.58,0,0,1,.18.66,4.08,4.08,0,0,1-.46,1.13c.2-.24.4-.5.59-.77s.46-.7.69-1a18.69,18.69,0,0,0,.45-2.74,3.73,3.73,0,0,1,.52.53,3.13,3.13,0,0,0-.57-2.35,5.17,5.17,0,0,0-2.06-1.48,11.21,11.21,0,0,0-1.3-.32,9,9,0,0,0-1.39-.08,9.53,9.53,0,0,0-1.34.14,11.29,11.29,0,0,0-1.27.23c0,.28.74.4,1,.71s.18.57-1.22,1.28c-.2-.2-.54-.65.27-1a7.63,7.63,0,0,1-1.44.72,14.29,14.29,0,0,1,1.06-1c-1.46.39-.58.65-1.62,1.13-.17-.37-.89.16-.91-.2a8.55,8.55,0,0,0,1.33-.69,22.36,22.36,0,0,1-3.35,1.26c.23.12.31.45-.43,1.07-1.92,1.58-1,.15-2.24.94-.25.62-1.62,1.5-1.2,2a1.63,1.63,0,0,1-1.12.5c-.73,1.09-3.81,4.61-2.39,3.89l.24-.22-.11.17h0c-2.06,3.64-4.91,7-7.13,10.25l-.16-.13a14.26,14.26,0,0,1-2.28,2.78,9.58,9.58,0,0,1-1.24,1,5.77,5.77,0,0,1-1.1.57,1,1,0,0,1-.83-.3c-.18-.18-.21-.39-.06-.46a2.86,2.86,0,0,1-.74-.28,1.22,1.22,0,0,1-.52-.4,2.09,2.09,0,0,1,0-1.89c.1.69.22.5.24.48a7,7,0,0,0,0,.73,2.57,2.57,0,0,1,.11-.9l.26-.91a18.75,18.75,0,0,0,.44-2.61c.2,1,1.18-1.39,1.49-2.47l-1,1.37a20.54,20.54,0,0,1,1.35-3.18l.38.83c2.7-4,2.51-8.5,5.45-11.18.16-1.37-1.51,2.21-1.49.92,1.11-2,3.06-3.59,3.39-4.22,1.74-2.59.42-3,2.11-5.81-.41.27-1.16.33-.29-1.94,1.07-2,2.13-2.06,1.69-.68-.22.49-.41.7-.47.64-.24.7-.58,1.6.06.92l-.09-.37c.73-.9,2.05-3.74,2.09-2.91.52-1.66,0-.83-.7.26,1.56-2.49,1.94-4.13,3.31-6.85-.31.39-.74.7-.56.25,1-2,1-2.52,1-2.87s-.2-.54.22-2c.86-1.54.7.88,1.25-2.19.7-1.8.74-.25.73.56a29.93,29.93,0,0,1,.8-4,11.82,11.82,0,0,0,.43-3.5,15.09,15.09,0,0,1,.29,1.83,23.67,23.67,0,0,0-.41-3,9.72,9.72,0,0,1-.28,1.18c0-1.09-.41-2.09-.22-2.14-.39-.61-.49-.33-.63-.15s-.33.22-.94-.48l-.3-.28a3.55,3.55,0,0,0-2.48-1.77c-1.09-.24-2-.07-2.41-.32a9,9,0,0,1,2.27-.07c.28,0,.21-.1.1-.23s-.25-.26,0-.32a3,3,0,0,1,1.95.54,7,7,0,0,0-3.59-.81c-.23,0,.2-.15.63-.2a6.51,6.51,0,0,0-1.92.13,3.83,3.83,0,0,0-1,.36,2.22,2.22,0,0,0-.87.74,10,10,0,0,1-.69.91L137.58,39c0-.6-1.11.2-1.43.73,1-1.16.9-.16.28,1.07-1.65,1.68-1.34,2.15-2.05,3.12l.89-1.05c0,.59-.67,1.5-1.42,2.9-.32,0,.62-1.32.2-.91-.42,1.81-2.68,3-3.49,5.41-.76.88-.66-.23-1.28.57-.87,2.66-1.84,2.42-2.77,5.19.81-.53.76-.71.31,1.32.58-1.47,1.17-2.94,1.8-4.4l-.73,3c.63-1.28,1.07-2.83,1.54-3.55-.31,1.47-.34,1.28.33.86-1.55,1.4-1.35,3.63-2.75,5.44l-1.08-.59C124,61,124,63.84,122,67.73l.75-1.21c.21.73-1,2.51-1.37,3.89-.33-.28-.81.48-1.28.93.31,0-1.26,2.94-.66,3.62l-1.25,1.58c-1.57,3.14-.48,4.15-2,7.16,0-1.1-.87.17-.25-2-.46,1-.94,1.9-.69,2-.49.47-.83,3-1.67,3.62,0,.23,0,.43,0,.69a1.28,1.28,0,0,1-.42.84.26.26,0,0,1-.13-.15.09.09,0,0,1,0,.07v0h0l.09.14a1.37,1.37,0,0,1,.16.48v.06a.11.11,0,0,1,.05-.1h0l.26-.35h0l0,0s-.07,0-.1,0a.28.28,0,0,0-.11.29,9.31,9.31,0,0,1,.15-2.35c.14-1,.33-2.17.56-3.31A16.39,16.39,0,0,1,116,77.93c.53-2.4,1.25-5.28,1.85-7.44.08.18.19.07,0,.46,1.24-2.86-.58-2.15.8-5.41,1.12-1.55-.17,1.9.37.89,1.43-.11,1-4.14,2.35-6.24l-.07.58c.9-1.65.63-4.43,1.36-7.32,0,0,.09.17.2.06-.22-2.14.3-6,.47-8.83.4,1,.09,1.33.7.87.09-1.3-.88.25-.72-2.31.38-.79.78-2.62,1.36-2.84,0,.82-.1,1.64-.18,2.45.87-1.18.25-3.18.39-4.48l.32.18a12.85,12.85,0,0,0-.57-3.89c-.3-1-.54-2-1-4.06l-.14.49a5.3,5.3,0,0,1-.79-1.82,2.29,2.29,0,0,0-.79-1.51,2.85,2.85,0,0,0-.82-.46,4.54,4.54,0,0,0-.41-1.11,6,6,0,0,0-4.21.5,6.82,6.82,0,0,0-2,1.5,10.69,10.69,0,0,0-1.3,1.83,5.5,5.5,0,0,1,1.87-2.94,7,7,0,0,1,4-1.58,6.7,6.7,0,0,0-3.9,1,5.88,5.88,0,0,0-1.51,1.32,3,3,0,0,0-.59,1,4.11,4.11,0,0,1,1.49-1.7A22.83,22.83,0,0,0,111.46,34c-.66-.49-1.37,1.26-2,3.35s-1.24,4.51-2.07,5.38c-.56,5-2.3,9.69-3.27,15.42,1.58-1.8-.27,1.68,1,1.55a6.08,6.08,0,0,1-.38,1.95l-1.47,3.89c-.54.89,0-1.31-.35-1.24-.62,2.88-.75,1.12-1.43,3,.52-.31.45,1.12,0,2.74l1-2.22c-.11,4.17-1.68,3.3-1.86,7.45l-.12-1.35c-.1,1-.5,2.95-.86,4.81l-.07.35v.07l0,.14,0,.36c0,.3.09.72.15,1.29A1.25,1.25,0,0,1,99.5,80a1.42,1.42,0,0,1-.23.33c-.53.28-.92-.12-1.23-.82a1.82,1.82,0,0,1-.12-.32l-.06-.2-.08-.39c-.1-.52-.18-1-.24-1.54a13.4,13.4,0,0,1-.06-2.81l.33.36c-.15-.92-.69-1.58-.43-2.77.13.06.33.36.32-.07a12.35,12.35,0,0,1-.48-3.73l.38,1.06c.28-4.92-.95-7.57-1.18-11.75.91,0,1.18-3.92,1.29-5.9l.13.06a44.81,44.81,0,0,0-.68-7.9c-.21-1.23-.46-2.45-.77-3.72l-.25-1c-.11-.38-.21-.76-.32-1.15a13,13,0,0,0-1.07-2.74,4.15,4.15,0,0,0-3-3.15,5,5,0,0,0-2.21.1,5.12,5.12,0,0,0-2.05,1.22,7.52,7.52,0,0,0-1.6,2.25,14.69,14.69,0,0,0-.59,1.4c-.09.23-.17.53-.24.75l-.14.48c-.71,2.58-1,5-1.43,7.12.24-.83.68.21.7,1.18-.3,1.27.39,3.56-.43,3.31l0-.46c-.87.92-.78,3.55-.87,5.58L84,55.2c-1.75,5.25.21,13.84-1.36,16.64.22,1.27.14,2.83.33,4.1l-.57-.1C82,79.3,81.85,81,81.5,85.27l-.31-.91c-.32,2.36,1.3,3.22,1,5.44l-1,.51a37.06,37.06,0,0,1-1.68,5.94l-.5,1.4L78.49,99c-.35.86-.71,1.71-1.06,2.56-.08-.13-.2-.34.07-.86a10.24,10.24,0,0,1-2.41,2.54c-.42.31-.76.52-1,.7a.48.48,0,0,0-.11.67c-.14-.38-.66-.22-1.46-.27a4.06,4.06,0,0,1-1.37-.35,7.35,7.35,0,0,1-1.42-.83l.62-.19a8.06,8.06,0,0,1-1.81-.87,11.12,11.12,0,0,1-1.91-1.83c-.33-.56,0-.73.42,0-1.06-1.87-1.45-1-2.76-3.25l.87.56a5.75,5.75,0,0,0-2.39-2.27c-1-1-2.3-3.5-2-4.06a2.44,2.44,0,0,1-1-.58,6.82,6.82,0,0,1-1.21-1.44c0-.27.44.05.64.21A12.44,12.44,0,0,0,56,86a19.1,19.1,0,0,1-2.9-2.46.55.55,0,0,0-.19-.54A22,22,0,0,1,57,86.6c.41-.36-1.38-2.25.6-1.32a80.13,80.13,0,0,0-7.38-4.09,1.46,1.46,0,0,1-.25-.32l.28.06a4.91,4.91,0,0,0-1.71-.51c-.45-.14-.82-.27-1.19-.36s-.8-.11-1.28-.14c-.09-.12-.39-.16-.8-.16l-.71,0a7.07,7.07,0,0,0-.82.21,7.74,7.74,0,0,0-1.6.64,12.61,12.61,0,0,0-1.23.8c.4.39-1.16,1.57.57.78-.21.11.16-.26,1-.76.18-.12.42-.22.54-.32l-.07.09a8,8,0,0,1,1.63-.57,7.83,7.83,0,0,1,2.08-.14c-.6.07-1.2.29-1.84.42s-1.35.38-2.1.6a11,11,0,0,0-1.08,1.83,5.32,5.32,0,0,0-2.84,2.39,5.68,5.68,0,0,0-.45.93,6.9,6.9,0,0,0-.28,1c-.13.61-.17,1.09-.24,1.3a5.17,5.17,0,0,0,.64,1.42,6.22,6.22,0,0,0,1.1,1.2l.31.26.22.17.44.35.84.77c.55.54,1.1,1.07,1.6,1.62a19.28,19.28,0,0,0,2.8,2.64c.62.81.31,1.16.34,1.57a9,9,0,0,0-1-1.24c1.27,1.54,2.84,5.2,3.72,5.34.78,2.49-1.23-1,.36,2.15l-.41-.34a18.58,18.58,0,0,0,1.83,4.54c.36.68.8,1.34,1.2,1.95l1.23,1.81a22,22,0,0,1,3.74,9c-.11-.54-.16-.81-.08-1A59.9,59.9,0,0,0,62,133.92a47.45,47.45,0,0,0,3.86,5.83c.68.95,1.46,1.8,2.18,2.71l1.16,1.29.58.65.47.57a12.56,12.56,0,0,0,1.5,1.66c.43.36.85.62,1.45,1.16-.06.27-.12.54-.17.83a14.63,14.63,0,0,0,2.44,1.6,6.38,6.38,0,0,1,2.52,4c.36,1.53.41,3,.86,5.19l.41-.56c0,1.57-.26,5.14-.71,4.79a1.23,1.23,0,0,1,0,1.2h-.33c-.07,1.36-.18,2.74-.29,4.12-.9,3.08-1.17-.78-2.18,3.82-.24,1.75.07,5.09.38,4.47.14-.69.5-1.74.83-1.74l-.09,1.59c.9.45,1.67,1.74,3-1.88,0-.9-.06-1.81-.07-2.72l.63-.75-.41,2.2a4.33,4.33,0,0,0,.38-3,1.83,1.83,0,0,0,.74-1l-.34-2.8c.44-.25.48,1.33,1.06-.4-.17-1.33-1.06,1-.93-1.09.69-1.2,1-.78.86-2.39.28-.18.38.17.38.81,0-.71.08-1.66.12-2.54a4.38,4.38,0,0,0-.25-2.07,7.09,7.09,0,0,0,0-3.14c-.16-1.1-.4-2,.07-2.06-.15-.23-.62-.85-1.07-1.56-.24-.36-.55-.69-.81-1a11.92,11.92,0,0,0-.74-.94c1.23.75.46-.38-.58-1.65l-.83-.86a7.39,7.39,0,0,1-.62-.73c-.25-.34-.3-.63,0-.75-.81-.1-1.56-1-2.67-2.51a14.8,14.8,0,0,0-2-2.25c-.43-.36-.68-.57-1-.81s-.61-.45-.91-.64a1.24,1.24,0,0,1,.64.35,9.59,9.59,0,0,1-1.66-2.53c-.75.41-2.45-1.38-3.59-2.25-.45-2,1.46.44,1.72-.49-.23.22-.85-.35-1.39-.92s-1-1.12-1.06-.69c-.36-1.52-.43-1.25-.21-2.23-1,.24-.79-1.15-1.88-2-.45-2.22.63-.89-.61-3-.07-.6.18-.43.44-.11S63.81,127.43,63.81,127.43ZM49.29,84.68h0a8.78,8.78,0,0,0-1-.39C48.5,84.35,48.79,84.48,49.29,84.68Zm3.76,2.6A15.1,15.1,0,0,0,51.49,86c0-.27.25-.32.62,0C51.83,85.92,52.64,86.69,53.05,87.28ZM44,80.07a2.73,2.73,0,0,1,1.19-.22.85.85,0,0,1,.47.1,6.59,6.59,0,0,0-1.9.42l-.1.11A1,1,0,0,1,44,80.07Z"></path> <path class="cls-2" d="M42.48,81.46a2.36,2.36,0,0,1-.33.24c.2,0,.38-.12.57-.16l.23-.31C42.79,81.31,42.62,81.38,42.48,81.46Z"></path> <path class="cls-2" d="M141.34,82l-.08.08a.86.86,0,0,1,.21-.13A.55.55,0,0,1,141.34,82Z"></path> <polygon class="cls-2" points="87.91 71.12 87.76 71.12 87.87 71.56 87.91 71.12"></polygon> <path class="cls-2" d="M156.94,77.91a.66.66,0,0,0-.33.17A1.07,1.07,0,0,0,156.94,77.91Z"></path> <path class="cls-2" d="M149.44,87.18l-1.18,1.21C148.79,87.88,149.16,87.5,149.44,87.18Z"></path> <path class="cls-2" d="M143.67,94.26a.58.58,0,0,0,.09.29h0Z"></path> <path class="cls-2" d="M137.93,45.55c-.06.1-.12.2-.17.3C137.41,46.56,137.67,46.09,137.93,45.55Z"></path> <path class="cls-2" d="M137,67.11c.12-.46.23-.91.38-1.36C137,66.41,136.69,66.94,137,67.11Z"></path> <path class="cls-2" d="M117.82,89.12a0,0,0,0,1,0,0l-.17.3Z"></path> <path class="cls-2" d="M138.25,64a7.32,7.32,0,0,0-.9,1.79A10,10,0,0,0,138.25,64Z"></path> <path class="cls-2" d="M126.47,130.19l-.18.4a.1.1,0,0,1,.07.08Z"></path> <path class="cls-2" d="M126.36,130.67l-.11.48A1.11,1.11,0,0,0,126.36,130.67Z"></path> <path class="cls-2" d="M126,132.17l.23-1A2,2,0,0,0,126,132.17Z"></path> <path class="cls-2" d="M131.14,119l-.15-.21A.27.27,0,0,0,131.14,119Z"></path> <path class="cls-2" d="M132.47,115.57a18.23,18.23,0,0,0-1.59,3.05l.11.17C130.91,118.14,132.48,116.47,132.47,115.57Z"></path> <path class="cls-2" d="M141,102.62c-.49.88-1,1.77-1.47,2.67.43-.39,1-.89.46.39C142.27,102.5,139.22,106.16,141,102.62Z"></path> <path class="cls-2" d="M146.61,95.12c-.92,1.38.28.18.33.33C147.41,94.49,147.52,94.26,146.61,95.12Z"></path> <path class="cls-2" d="M128.38,95.2a5.08,5.08,0,0,0,.38-.43C128.23,94.52,128.61,95,128.38,95.2Z"></path> <polygon class="cls-2" points="128.07 83.67 127.25 84.69 127.46 85.43 128.07 83.67"></polygon> <polygon class="cls-2" points="134.85 78.33 134.67 78.85 135.46 76.88 134.85 78.33"></polygon> <path class="cls-2" d="M115.92,80.64l-.72.21C115.1,81.7,115.76,82.05,115.92,80.64Z"></path> <path class="cls-2" d="M124.19,31a3.15,3.15,0,0,0-.07-1.56A3.37,3.37,0,0,0,123,27.67,8.93,8.93,0,0,1,124.19,31Z"></path> <polygon class="cls-2" points="83.11 57.69 82.92 56.67 83.05 58.58 83.11 57.69"></polygon> <path class="cls-2" d="M94.14,127.77c.17,0,.56-.16.47-.16l-.65.19Z"></path> <path class="cls-2" d="M95.31,127.29c-.32.08-.88.23-1.48.43l1.13-.3c.08,0-.2.09-.44.16.17,0-.14.07.27,0s.51-.22.09-.12Z"></path> <path class="cls-2" d="M95.55,125.12l-.06,0Z"></path> <path class="cls-2" d="M95.25,123.84l.13-.06A.38.38,0,0,0,95.25,123.84Z"></path> <path class="cls-2" d="M95.75,123.24l0,0S95.8,123.21,95.75,123.24Z"></path> <path class="cls-2" d="M95.55,125.12l.18-.13C95.53,125.09,95.59,125.08,95.55,125.12Z"></path> <path class="cls-2" d="M93.67,127.58l.18,0h-.08Z"></path> <path class="cls-2" d="M96.3,125.38h0l.26-.11Z"></path> <path class="cls-2" d="M96.57,125.74s-.52.2-.75.3l.37-.14Z"></path> <path class="cls-2" d="M95.86,126.74l.08,0Z"></path> <path class="cls-2" d="M96.28,125l.18-.1Z"></path> <path class="cls-2" d="M86,122.12l0-.1Z"></path> <polygon class="cls-2" points="86.1 119.22 86.11 119.19 86.16 118.87 86.1 119.22"></polygon> <path class="cls-2" d="M96.11,122.46h0C96.16,122.44,96.15,122.44,96.11,122.46Z"></path> <path class="cls-2" d="M93.05,119.88c-.29.44-.46.48-.77,1A10,10,0,0,0,93.05,119.88Z"></path> <path class="cls-2" d="M93.74,127.55h0S93.72,127.56,93.74,127.55Z"></path> <path class="cls-2" d="M92.28,120.85h0l0,0Z"></path> <path class="cls-2" d="M95.22,121.88l-.19.17Z"></path> <path class="cls-2" d="M95,123l0-.06S95,123,95,123Z"></path> <path class="cls-2" d="M94.36,122.13s.08-.09,0,0l-.05,0C94.39,122.08,94.42,122.06,94.36,122.13Z"></path> <path class="cls-2" d="M94.1,121.85l-.08.09h0Z"></path> <path class="cls-2" d="M86.84,122l.13-.51C86.86,121.91,86.79,122,86.84,122Z"></path> <path class="cls-2" d="M94,127.48l-.24.07h0Z"></path> <path class="cls-2" d="M90.92,125.14l0-.09S90.91,125.13,90.92,125.14Z"></path> <path class="cls-2" d="M88.6,122.63l0,.06S88.57,122.69,88.6,122.63Z"></path> <path class="cls-2" d="M90.81,125l.28-.29-.11.1Z"></path> <path class="cls-2" d="M87,121.51Z"></path> <path class="cls-2" d="M86.37,122.77s.19-.72.31-1.14c.1-.2-.12.55-.2.93.08-.19.27-.86.29-.82l-.09.31c.19-.57.1,0,.34-.73l0,.19c.1-.37.2-.74.28-1,0,0,.16-.45,0,0a1.22,1.22,0,0,0-.11.32l.07-.2c-.17.69-.09.23-.23.74.1-.22.31-.77.28-.57-.19.67-.13.21-.27.81l0-.26c-.27,1.07,0-.08-.3,1.06,0,.21.16-.33.15-.12l.29-.92c.29-.64-.46,1.7-.13.83.16-.44.44-1.28.33-.82l-.25.75c0,.09.38-1.07.27-.55-.11.3-.12.24-.14.33-.17.61.16-.42.19-.41l-.22.67c.09-.09.32-.54.43-.64-.07.19-.16.4-.22.6.2-.3.14.14.05.56l.25-.55a2.92,2.92,0,0,1-.14.36c-.05.23.15-.36.25-.57a2.71,2.71,0,0,1-.19.5c.24-.46.57-1,.37-.34l-.08.16c0,.24.54-1.12.36-.59l0,.1c0,.28.33-.18,0,.68.39-.78-.08.4.46-.69a11,11,0,0,0-.44,1.15c0,.06.37-.67.45-.77l-.29.57.34-.58-.33.69.09-.14s.12-.26.2-.42-.12.43-.27.72l.33-.43c-.12.22-.18.29-.26.43.35-.55-.32.59,0,.09.08-.13.19-.34.25-.45-.16.35-.13.38,0,.26l-.23.37c0,.13.22-.11.28-.07a7.2,7.2,0,0,1,.53-.89l-.33.59c.22-.35.1-.23.39-.65a6.06,6.06,0,0,1-.5.84l.15-.18-.3.47c.23-.35-.3.61.09,0l-.1.17c.06,0,.21-.14.27-.14.32-.49.27-.37.54-.75-.06.18-.27.59-.2.58.19-.22.28-.4.49-.68-.3.44-.22.43-.46.73.1,0,.13,0,.44-.34a4.18,4.18,0,0,1,.27-.41c.06-.06-.1.2-.25.4l0,0c.54-.59-.73,1.36,0,.52l0,0,.4-.41c0,.09-.26.3-.43.58.6-.65,0,.18.43-.24-.93,1.25.22,0-.36.84l.23-.28c.24-.27-.12.17-.16.24.18-.22.19-.26.33-.41.41-.24-.11.62-.24,1,0,.11,1.32-1.36.78-.68l-.49.49c.65-.52.15.17.71-.24l-.26.24c-.34.36,0,.08.33-.2,0,0-.26.26-.4.41s.49-.4.15,0l-.15.13c.18-.16,0,.09.41-.31-.17.22.24-.11,0,.14.49-.41-.17.26.5-.34-.69.62-.51.55-.16.28-.22.18-.21.22-.51.47,0,0,.18-.08.54-.4-.81.77.75-.5-.31.46a4.66,4.66,0,0,1,1-.48c-.73.58-.13,0-.89.61.35-.19,1-.65.88-.44s-.33.24-.45.33c.35-.18,0,.17.46-.08l-.21.14s-.09.11.25-.15l-.1.06c.48-.38,1.06-.71,1.33-.9-1,.69-.2.24-1.46,1.11.07,0,.24-.15.46-.31a2.64,2.64,0,0,1-.45.33c.21-.09.57-.37.59-.32l-.44.29c.34-.21.68-.42.56-.29l-.23.15c.09,0,.94-.51.67-.22a9.87,9.87,0,0,0-.86.62l.21-.1.3-.22s.49-.24.3-.08l-.28.15.16,0,.22-.19c.35-.19.81-.54.66-.38a1.74,1.74,0,0,1-.35.31h0c.22-.12.45-.24.3-.11l-.86.54c.56-.33.2,0,.8-.36l-.56.33.45-.26a3.76,3.76,0,0,1-.47.31c-.06.1.82-.52.5-.25l-.18.09c-.16.17.35-.06.16.12-.66.4-.19,0-.75.4.17,0,.9-.32.77-.16l.07,0c1-.52-.44.31,0,.1-.08,0-.54.28-.43.22-.13.13.28,0,.62-.12l-.25.12c-.21.15-.09.14-.19.23a6.25,6.25,0,0,0,.59-.27c-1.39.8.87-.19-.3.48l-.23.08.27,0,.59-.3a1.71,1.71,0,0,1,.47-.16,6.69,6.69,0,0,0-.93.44l.42-.19c-.76.39.87-.38.38-.09l-.23.1c.13,0,.44-.15.38-.09-.5.23-.24.08-.66.26,0,0,1-.36.49-.11-.14,0-.15,0-.3.08-.58.29-.43.22-.51.29h0l-.25.16.16-.08c1.34-.52.27,0,1.17-.33a7.93,7.93,0,0,0-1.06.42,4.52,4.52,0,0,1-.5.23c.48-.17-.35.18.35-.06a3.64,3.64,0,0,1-.48.21,4.48,4.48,0,0,0,.56-.22c.66-.2-.74.41.17.14.38-.07,1-.29,1.36-.34a5,5,0,0,1-.69.23c-.27.13-.21.13,0,.09a4.27,4.27,0,0,0-.52.19c.06,0,.7-.22.43-.1l-.77.24c.18,0,.54-.13.73-.15-.33.11-.51.14-.73.21a3.75,3.75,0,0,0,.86-.18l.18-.08a5.57,5.57,0,0,1-.55.17c-.43.11.17-.1.36-.16l.13,0c1.11-.39-.21,0-.16-.09l.81-.26-.68.18a6.45,6.45,0,0,1,.78-.26c.39-.17-.3.07.14-.12l.14,0-.25.05c.17-.06.57-.21.46-.15.44-.23-.64.12,0-.12l0,0a12.05,12.05,0,0,0-1.3.41l1.43-.59-.59.22a.91.91,0,0,1,.3-.14,6.72,6.72,0,0,0-.64.23c.52-.25-.3,0,.63-.39a5.38,5.38,0,0,1-.65.26c1-.41-.19,0,.25-.2a3.62,3.62,0,0,0,.71-.28c-.88.33.15-.15,0-.12-.69.29-.31,0-.57.1.24-.1.34-.27.56-.43l.12,0c-.7.3-.59.19-.75.22a6.18,6.18,0,0,1,.77-.32l0,0a1.8,1.8,0,0,1-.43.14l.52-.22s-.65.18-.34,0a16.42,16.42,0,0,1-1.65.77c.26-.12.7-.34.81-.37s-.22.08-.12,0l.45-.19c.17-.11-.37.17-.34.13l.54-.29s-.14.1,0,0a2.39,2.39,0,0,1,.53-.34,5.84,5.84,0,0,1-.55.25s.43-.24.6-.36a2.7,2.7,0,0,0-.56.23,2.91,2.91,0,0,1,.4-.23c-.26.1-.13-.08-.69.25l0,0h0c-.58.2.22-.32,0-.27l.18-.1c-.23.06-.18,0-.58.14a4.17,4.17,0,0,1,.53-.32c-.16,0-.35.15-.09-.07s.26-.17.24-.09c.13-.13.4-.31-.11-.08.47-.24.55-.36.4-.31l-.3.22c-.08,0,0,0,0-.07l.6-.34c.65-.53-1.32.57-.18-.24-.42.23-.25.23-.74.51a3.58,3.58,0,0,1,.45-.37c.21-.15.4-.31.4-.31.28-.26-.88.48-.7.28a8,8,0,0,1-1,.59,5.71,5.71,0,0,1,1-.69l-.11.09a1.89,1.89,0,0,0,.39-.24l-.21.13c.2-.16.14-.21.48-.41a1.32,1.32,0,0,0-.43.3c.26-.25,0-.1.11-.28a3.43,3.43,0,0,1-.34.24c.19-.25-.41.23-.54.23.29-.24.75-.49.45-.37a4.51,4.51,0,0,1,.7-.47c-.42.21.19-.28.23-.36l.18-.08c-.1,0-.11,0-.12,0l-.39.3a.76.76,0,0,1,.22-.19c-.28.16-.66.48-1,.7.19-.16-.26.1.26-.29-.13.19.53-.39.65-.39-.07,0-.07,0,0,0l.15-.1c.42-.4-.62.4-.65.33a2,2,0,0,0,.47-.39,4.53,4.53,0,0,1-.72.52c.2-.22-.2.08-.19,0l-.09.1a1.08,1.08,0,0,1-.39.21c.23-.18.18-.1.27-.18-.54.36.48-.48.1-.26.18-.17.54-.42.66-.54-.41.24.35-.36,0-.17a4.1,4.1,0,0,1-.68.5l.34-.13-.61.39s.29-.14.24-.07a3.65,3.65,0,0,0-.56.41c.56-.49-.39.2,0-.14l1-.76c.37-.4-.57.29-.4,0l-.14.16c-.38.29-.09,0-.26.09a7.57,7.57,0,0,0,.6-.54c-.23.2,0-.07-.66.44l.38-.37c.12-.21-.93.68-.87.53.34-.27.54-.48.81-.65,0,0,0-.09-.18.09.18-.18-.46.31-.19,0a3.81,3.81,0,0,1-.45.35l.15-.14a4.79,4.79,0,0,0-.55.47c.89-.9-.21-.08.55-.87a.79.79,0,0,1-.34.08c.09-.08.15-.14.13-.1.22-.31-.87.78-.62.43.44-.49.28-.22.44-.41,1-.94-.19.06.33-.52l.07,0c.29-.35-.43.28-.41.17l.14-.14a3.75,3.75,0,0,1-.9.65,6.13,6.13,0,0,0,.57-.57c-.07,0-.58.62-.73.69.19-.21.33-.42.72-.84l.06,0c.49-.56-.07,0,0-.14l.22-.24c-.13,0-.68.61-.71.52l-.15.18c-.58.56.27-.36-.16,0l.53-.61c-.15.12-.6.51-.74.59.42-.43.67-.62.94-.86,0,0-.12,0-.4.27.07-.06.21-.19.14-.09-.46.45-.7.65-.73.6,1-1.18.14-.4.9-1.36-.47.37,0-.34-.19-.35-.73,1-.06,0-.84,1-.07,0-.06,0,0,0l.4-.65a4.64,4.64,0,0,1,.37-.43c0-.12.3-.44.47-.73-.27.36-.42.49-.34.33l-.31.5c-.49.47.57-.89.09-.43l.27-.29c-.18.15-.15-.13-.79.66a3.18,3.18,0,0,1,.34-.47c0-.2-.85.72-.56.16l.18-.25c-.07.06-.36.46-.21.19a2.47,2.47,0,0,0,.19-.27c-.07.08-.36.41-.28.24l.22-.27c.12-.4-.63.6-.81.73a4.21,4.21,0,0,0,.62-1.21l.07-.11c-.07-.17-.61.51-.9.75.44-.88,0-.48.15-1A4.51,4.51,0,0,1,91,119c.06-.17-.38.51,0-.21v0c.38-.73.22-.57.19-.61l-.53,1c.64-1.45-.55.37,0-.92-.15.23-.18.21-.33.44l.26-.52c0-.17,0-.26-.17-.18l.2-.37c0-.06-.79,1.49-.85,1.5l.36-.8c-.1,0,.12-.77-.3-.09.06-.11.16-.34.19-.37s.06-.61-.4.49c.31-.71-.07-.11-.25.19l.23-.53a6.45,6.45,0,0,1-.53,1c0-.07.16-.43.12-.29.07-.29-.24.49-.17.19l.15-.34c0-.06-.1.13-.28.52-.11.2,0-.17.15-.66-.12.29-.3.68-.27.53a2.42,2.42,0,0,1,.15-.35c.06-.4-.35.58-.21,0a2.38,2.38,0,0,0,.11-.32c.06,0,.1.08.08.12a13.21,13.21,0,0,1,.46-1.27c-.18.35-.55,1.14-.52.89l.06-.17,0-.06s0,0-.06.07a.49.49,0,0,0,0-.16c.14-.42,0-.25,0-.27a9.26,9.26,0,0,0-.32.91.12.12,0,0,1,0-.08l0-.06,0,0h.07c-.12.27-.22.49-.14.18l-.34.87c.23-.77.3-1.21.45-1.69a2.69,2.69,0,0,0-.63,1.17c-.07.12.07-.31.11-.48s.05-.08.11-.22a1.75,1.75,0,0,0-.4.78c0-.34.24-.66.12-.56l.08-.22c.17-1.21-.77,1.8-.52.25a1.76,1.76,0,0,1,0,.27c0-.72-.52.52-.47-.58,0-.22-.12.25-.22.61L87,118l-.2.69c-.17.5.14-1.52-.14-.57l-.06.42c0-.08-.15.22-.06-.25,0,.07-.09.43-.07.21l.06-.32-.18.53c0-.24.21-1.27.11-1.35a7.29,7.29,0,0,0-.26,1.13,1.86,1.86,0,0,1,0,.54l-.06.16c-.14,1-.29,1.92-.32,2.59l.12-.57,0,.46,0,0c0,.44,0,.06.08-.2a3.76,3.76,0,0,0-.06.51l.18-.9c0,.37-.13.73-.14.94.09-.41.11-.83.19-1.1,0,.43-.11.78,0,.42,0,.24-.07.4-.09.5a4.57,4.57,0,0,0,.17-.61c-.07.53.1-.13-.07.77a6,6,0,0,1,.2-.73c-.24,1.06.06.07-.18,1.22.22-1,.17-.41.33-.94,0,.08-.05.23-.05.18a3.82,3.82,0,0,1-.07.56c.18-.79.26-1,.39-1.44-.14.77-.23.92-.38,1.65.14-.64.19-.62.31-1.15-.09.47,0,.23-.18.88.24-1,.06-.16.23-.75-.09.49-.22.92-.11.63C86.48,122.43,86.37,122.77,86.37,122.77Zm1.38-1.4h0l0,0Zm.08,0a0,0,0,0,0,0,0A2.31,2.31,0,0,1,88,121C87.9,121.11,87.88,121.22,87.83,121.38ZM89,117.54c0-.07,0,0,0,.15a.16.16,0,0,0,0,.06l0,.06Z"></path> <path class="cls-2" d="M88.7,118.25s0,0,0,0l0,.13.07-.17Z"></path> <path class="cls-2" d="M95.48,125.18h0l-.07,0Z"></path> <polygon class="cls-2" points="88.4 122.85 88.46 122.72 88.4 122.83 88.4 122.85"></polygon> <path class="cls-2" d="M93.92,126.52l-.13.07Z"></path> <path class="cls-2" d="M93.89,126.77l-.18.1Z"></path> <path class="cls-2" d="M93.68,127l.24-.09h0Z"></path> <path class="cls-2" d="M91.92,125.29h0C91.8,125.36,91.84,125.34,91.92,125.29Z"></path> <path class="cls-2" d="M93.45,125.13l-.24.12S93.18,125.3,93.45,125.13Z"></path> <polygon class="cls-2" points="90.92 125.15 90.92 125.15 90.92 125.14 90.92 125.15"></polygon> <path class="cls-2" d="M93.2,125.22c-.09.07-.06.07,0,0S93.28,125.18,93.2,125.22Z"></path> <path class="cls-2" d="M93.66,127.73h0l.09,0Z"></path> <path class="cls-2" d="M93.73,127.71h.07S93.79,127.69,93.73,127.71Z"></path> <path class="cls-2" d="M93.94,127.67l-.14,0S93.79,127.72,93.94,127.67Z"></path> <path class="cls-2" d="M93.85,127.45l-.2.07Z"></path> <path class="cls-2" d="M93.77,127.41s-.41.19-.28.16l.16,0C93.36,127.61,94.11,127.31,93.77,127.41Z"></path> <path class="cls-2" d="M96.11,126.23l-.14.12a2.76,2.76,0,0,1,.55-.21C97.11,125.82,96.06,126.34,96.11,126.23Z"></path> <path class="cls-2" d="M96.33,125.91a1.43,1.43,0,0,0,.41-.17A1.48,1.48,0,0,0,96.33,125.91Z"></path> <path class="cls-2" d="M95.67,124.54l.46-.25A2.93,2.93,0,0,0,95.67,124.54Z"></path> <polygon class="cls-2" points="93.18 125.69 92.91 125.87 93.33 125.64 93.18 125.69"></polygon> <polygon class="cls-2" points="96.31 123.61 96.38 123.58 96.19 123.64 96.31 123.61"></polygon> <path class="cls-2" d="M94.52,121.56l-.47.44C94.15,121.94,94.69,121.45,94.52,121.56Z"></path> <path class="cls-2" d="M93.25,121.22c.21-.24.33-.42.1-.2C93.34,121.07,93.18,121.28,93.25,121.22Z"></path> <polygon class="cls-2" points="91.06 118.36 91.18 118.18 91.06 118.32 91.06 118.36"></polygon> <path class="cls-3" d="M174.46,100.39a60.49,60.49,0,0,0,5.88-9c3.57-6.7,5.86-14.43,4.46-21.89"></path> <path class="cls-3" d="M48,52.62C51.94,54,56.3,51,57.86,47.12s1.07-8.18.55-12.3"></path> </svg> 