<?xml version="1.0" encoding="UTF-8"?> <!-- Generator: Adobe Illustrator 24.1.1, SVG Export Plug-In . SVG Version: 6.00 Build 0) --> <svg xmlns="http://www.w3.org/2000/svg" xmlns:xlink="http://www.w3.org/1999/xlink" id="Layer_1" x="0px" y="0px" viewBox="0 0 512 512" style="enable-background:new 0 0 512 512;" xml:space="preserve"> <style type="text/css"> .st0{fill:#4F4F4F;} </style> <g> <path class="st0" d="M349.3,347.6c-2.8,0-5-2.2-5-5V217.2c0-2.8,2.2-5,5-5s5,2.2,5,5v125.4C354.3,345.4,352.1,347.6,349.3,347.6z"></path> <path class="st0" d="M375.2,347.6c-2.8,0-5-2.2-5-5V217.2c0-2.8,2.2-5,5-5s5,2.2,5,5v125.4C380.2,345.4,378,347.6,375.2,347.6z"></path> <g> <path class="st0" d="M404.6,347.6h-83.4c-2.8,0-5-2.2-5-5V217.2c0-0.9,0.2-1.7,0.6-2.4l41.7-74.7c0.9-1.6,2.6-2.6,4.4-2.6 s3.5,1,4.4,2.6l41.7,74.7c0.4,0.7,0.6,1.6,0.6,2.4v125.4C409.6,345.4,407.3,347.6,404.6,347.6L404.6,347.6z M326.2,337.6h73.4 V218.5l-36.7-65.7l-36.7,65.7L326.2,337.6z"></path> <path class="st0" d="M401,222.2h-76.3c-2.8,0-5-2.2-5-5s2.2-5,5-5H401c2.8,0,5,2.2,5,5S403.8,222.2,401,222.2z"></path> <path class="st0" d="M380.1,180.6h-35.6c-2.8,0-5-2.2-5-5s2.2-5,5-5h35.6c2.8,0,5,2.2,5,5S382.8,180.6,380.1,180.6z"></path> <path class="st0" d="M99.6,287.9c-1,0-1.9-0.3-2.8-0.9c-2.3-1.6-2.9-4.7-1.3-6.9l43.1-63.3c2.3-3.4,6.2-5.4,10.3-5.4 c4.1,0,8,2,10.3,5.4l13.8,20.2l41.8-61.5c2.3-3.4,6.2-5.4,10.3-5.4c4.1,0,8,2,10.3,5.4l40.8,59.5c1.6,2.3,1,5.4-1.3,7 c-2.3,1.6-5.4,1-7-1.3l-40.9-59.5c-0.6-0.9-1.5-1.1-2-1.1c-0.5,0-1.4,0.1-2,1.1l-46,67.5c-0.9,1.4-2.5,2.2-4.1,2.2 s-3.2-0.8-4.1-2.2l-17.9-26.3c-0.6-0.9-1.5-1.1-2-1.1c-0.5,0-1.4,0.1-2,1.1l-43.1,63.3C102.8,287.2,101.2,287.9,99.6,287.9 L99.6,287.9z"></path> <path class="st0" d="M147.2,197.9c-12.1,0-22-9.9-22-22s9.8-22,22-22c12.1,0,22,9.9,22,22S159.3,197.9,147.2,197.9L147.2,197.9z M147.2,164c-6.6,0-12,5.4-12,12s5.4,12,12,12s12-5.4,12-12S153.8,164,147.2,164L147.2,164z"></path> </g> <g> <path class="st0" d="M440.2,84.8H71.8c-14,0-25.3,11.4-25.3,25.3v212.1c0,14,11.4,25.3,25.3,25.3h368.4c14,0,25.3-11.4,25.3-25.3 V110.2C465.5,96.2,454.2,84.8,440.2,84.8z M455.5,322.3c0,8.5-6.9,15.3-15.3,15.3H71.8c-8.5,0-15.3-6.9-15.3-15.3V110.2 c0-8.5,6.9-15.3,15.3-15.3h368.4c8.5,0,15.3,6.9,15.3,15.3V322.3z"></path> <path class="st0" d="M338.7,394.6h-49.2v-31.9c0-2.8-2.2-5-5-5s-5,2.2-5,5v31.9h-46.9v-31.9c0-2.8-2.2-5-5-5s-5,2.2-5,5v31.9 h-49.2c-9,0-16.3,7.3-16.3,16.3s7.3,16.3,16.3,16.3h165.3c9,0,16.3-7.3,16.3-16.3S347.6,394.6,338.7,394.6L338.7,394.6z M338.7,417.2H173.3c-3.5,0-6.3-2.8-6.3-6.3s2.8-6.3,6.3-6.3h165.3c3.5,0,6.3,2.8,6.3,6.3S342.1,417.2,338.7,417.2z"></path> <path class="st0" d="M272,133.3H99.6c-2.8,0-5,2.2-5,5v147.7c0,2.8,2.2,5,5,5H272c2.8,0,5-2.2,5-5V138.3 C277,135.5,274.8,133.3,272,133.3z M267,280.9H104.6V143.3H267V280.9z"></path> </g> </g> </svg> 