<?xml version="1.0" encoding="UTF-8"?> <!-- Generator: Adobe Illustrator 24.1.1, SVG Export Plug-In . SVG Version: 6.00 Build 0) --> <svg xmlns="http://www.w3.org/2000/svg" xmlns:xlink="http://www.w3.org/1999/xlink" id="Layer_1" x="0px" y="0px" viewBox="0 0 512 512" style="enable-background:new 0 0 512 512;" xml:space="preserve"> <style type="text/css"> .st0{fill:#4F4F4F;} </style> <g> <g> <path class="st0" d="M371.7,321c-2.2-2.2-5.1-3.4-8.1-3.4c-3.1,0-6,1.2-8.1,3.4l-26.2,26.2c-4.5,4.5-4.5,11.8,0,16.3l6.9,6.9 c0.4,0.4,0.4,0.8,0.4,1.1s-0.1,0.7-0.4,1.1l-27.9,27.9c-0.6,0.6-1.6,0.6-2.2,0l-6.9-6.9c-2.2-2.2-5.1-3.4-8.1-3.4s-6,1.2-8.1,3.4 l-26.2,26.2c-4.5,4.5-4.5,11.8,0,16.3l7.1,7.1c7.5,7.5,17.4,11.3,27.3,11.3s19.7-3.8,27.3-11.3l60.5-60.5 c7.3-7.3,11.3-17,11.3-27.3s-4-20-11.3-27.3L371.7,321z M371.8,375.5l-60.5,60.5c-11.1,11.1-29.3,11.1-40.4,0l-7.1-7.1 c-0.6-0.6-0.6-1.6,0-2.2l26.2-26.2c0.6-0.6,1.6-0.6,2.2,0l6.9,6.9c2.2,2.2,5.1,3.4,8.1,3.4s6-1.2,8.1-3.4l27.9-27.9 c2.2-2.2,3.4-5.1,3.4-8.1c0-3.1-1.2-6-3.4-8.1l-6.9-6.9c-0.6-0.6-0.6-1.6,0-2.2l26.2-26.2c0.4-0.4,0.8-0.4,1.1-0.4 c0.3,0,0.7,0.1,1.1,0.4l7.1,7.1c5.4,5.4,8.4,12.6,8.4,20.2C380.1,363,377.2,370.2,371.8,375.5L371.8,375.5z"></path> <path class="st0" d="M236.9,211.6c42.5,0,77-34.5,77-77s-34.5-77-77-77s-77,34.5-77,77S194.4,211.6,236.9,211.6L236.9,211.6z M236.9,67.6c36.9,0,67,30.1,67,67s-30.1,67-67,67s-67-30.1-67-67S199.9,67.6,236.9,67.6L236.9,67.6z"></path> <path class="st0" d="M236.7,418.7c-73.9,0-134-60.1-134-134c0-38.1,16.4-74.6,45-100.1c2.1-1.8,2.2-5,0.4-7.1s-5-2.2-7.1-0.4 c-30.7,27.4-48.4,66.6-48.4,107.5c0,77.7,61.9,141.3,139,143.9v10c-82.6-2.6-149-70.7-149-153.9c0-49.5,24.1-96.3,64.6-125.3 c2.2-1.6,2.8-4.7,1.2-7s-4.7-2.8-7-1.2C98.4,182.1,72.7,232,72.7,284.7c0,90.4,73.6,164,164,164c2.8,0,5-2.2,5-5v-20 C241.7,420.9,239.5,418.7,236.7,418.7z"></path> <path class="st0" d="M434.9,242.1c-5.9-5.8-15.4-5.8-21.2,0l-15.3,15.3c-7.1-42.3-30.9-80.5-66.2-105.9c-2.2-1.6-5.4-1.1-7,1.1 c-1.6,2.2-1.1,5.4,1.1,7c35.8,25.7,58.9,65.4,63.5,108.9c0.2,1.9,1.5,3.5,3.3,4.2c1.8,0.6,3.8,0.2,5.2-1.2l22.4-22.4 c1.9-1.9,5.1-2,7.1,0c0.9,0.9,1.5,2.2,1.5,3.5s-0.5,2.6-1.5,3.5l-39.6,39.6c-1.9,1.9-5.2,1.9-7.1,0l-39.6-39.6 c-0.9-0.9-1.5-2.2-1.5-3.5s0.5-2.6,1.5-3.5c1.9-1.9,5.1-1.9,7.1,0l22.6,22.6c1.5,1.5,3.8,1.9,5.7,1c1.9-0.9,3-3,2.8-5.1 c-4.1-34.7-20.8-66.8-47-90.2c-2.1-1.8-5.2-1.7-7.1,0.4c-1.8,2.1-1.7,5.2,0.4,7.1c20.5,18.3,34.7,42.3,41,68.6l-11.3-11.3 c-5.9-5.8-15.4-5.8-21.2,0c-2.8,2.8-4.4,6.6-4.4,10.6c0,4,1.6,7.8,4.4,10.6l39.6,39.6c2.8,2.8,6.6,4.4,10.6,4.4 c4,0,7.8-1.6,10.6-4.4l39.6-39.6c2.8-2.8,4.4-6.6,4.4-10.6S437.7,244.9,434.9,242.1L434.9,242.1z"></path> </g> <g> <path class="st0" d="M227.1,140c2.8,0,5-2.2,5-5v-29.4c0-2.8-2.2-5-5-5h-29.4c-2.8,0-5,2.2-5,5s2.2,5,5,5h24.4V130h-24.4 c-2.8,0-5,2.2-5,5v29.4c0,2.8,2.2,5,5,5h29.4c2.8,0,5-2.2,5-5s-2.2-5-5-5h-24.4V140L227.1,140L227.1,140z"></path> <path class="st0" d="M276.2,100.7c-2.8,0-5,2.2-5,5V130h-19.4v-24.4c0-2.8-2.2-5-5-5s-5,2.2-5,5V135c0,2.8,2.2,5,5,5h24.4v24.4 c0,2.8,2.2,5,5,5s5-2.2,5-5v-58.7C281.2,102.9,278.9,100.7,276.2,100.7z"></path> </g> </g> </svg> 