<?xml version="1.0" encoding="UTF-8"?> <!-- Generator: Adobe Illustrator 24.1.1, SVG Export Plug-In . SVG Version: 6.00 Build 0) --> <svg xmlns="http://www.w3.org/2000/svg" xmlns:xlink="http://www.w3.org/1999/xlink" id="Layer_1" x="0px" y="0px" viewBox="0 0 512 512" style="enable-background:new 0 0 512 512;" xml:space="preserve"> <style type="text/css"> .st0{fill:#4F4F4F;} </style> <g> <path class="st0" d="M445.6,292.2h-133c-2.8,0-5-2.2-5-5s2.2-5,5-5h133c2.8,0,5,2.2,5,5S448.4,292.2,445.6,292.2z"></path> <g> <path class="st0" d="M261,287.5c13.6-12.2,21.7-29.7,21.7-48.6c0-36-29.3-65.3-65.3-65.3c-2.8,0-5,2.2-5,5s2.2,5,5,5 c30.5,0,55.3,24.8,55.3,55.3c0,20.8-11.5,39.6-30,49.2c-2.1,1.1-3.1,3.4-2.6,5.6s2.6,3.8,4.9,3.8h15.2c32.4,0,58.8,26.4,58.8,58.8 v93.8h-203v-93.8c0-32.4,26.4-58.8,58.8-58.8h15.2c2.3,0,4.3-1.6,4.9-3.8s-0.5-4.6-2.6-5.6c-18.5-9.5-30-28.4-30-49.2 c0-6.8,1.2-13.4,3.6-19.7c1-2.6-0.3-5.5-2.9-6.5c-2.6-1-5.5,0.3-6.5,2.9c-2.8,7.4-4.3,15.3-4.3,23.3c0,18.9,8,36.4,21.7,48.6 c-37.5,0.5-67.9,31.1-67.9,68.8v98.8c0,2.8,2.2,5,5,5h213c2.8,0,5-2.2,5-5v-98.8C328.9,318.6,298.5,288,261,287.5L261,287.5z"></path> <path class="st0" d="M382.7,165.8c13.6-12.2,21.7-29.7,21.7-48.6c0-36-29.3-65.3-65.3-65.3c-36,0-65.3,29.3-65.3,65.3 c0,18.9,8,36.4,21.7,48.6c-8,0.1-15.9,1.6-23.3,4.4c-2.6,1-3.9,3.9-2.9,6.4c1,2.6,3.9,3.9,6.4,2.9c6.6-2.5,13.5-3.7,20.7-3.7h15.2 c2.3,0,4.3-1.6,4.9-3.8s-0.5-4.6-2.6-5.6c-18.5-9.5-30-28.4-30-49.2c0-30.5,24.8-55.3,55.3-55.3c30.5,0,55.3,24.8,55.3,55.3 c0,20.8-11.5,39.6-30,49.2c-2.1,1.1-3.1,3.4-2.6,5.6s2.5,3.8,4.9,3.8h15.2c32.4,0,58.8,26.4,58.8,58.8v93.8h-87.4 c-2.8,0-5,2.2-5,5s2.2,5,5,5h92.4c2.8,0,5-2.2,5-5v-98.8C450.6,196.9,420.2,166.2,382.7,165.8L382.7,165.8z"></path> <path class="st0" d="M156.4,161.1c-2.8,0-5,2.2-5,5s2.2,5,5,5h26.7c2.8,0,5-2.2,5-5s-2.2-5-5-5H156.4z"></path> <path class="st0" d="M134.5,171.1c2.8,0,5-2.2,5-5s-2.2-5-5-5h-28.3c-2.8,0-5,2.2-5,5s2.2,5,5,5H134.5z"></path> <path class="st0" d="M175.9,137.7c0,2.8,2.2,5,5,5h12.9c2.8,0,5-2.2,5-5s-2.2-5-5-5h-12.9C178.1,132.7,175.9,134.9,175.9,137.7z"></path> <path class="st0" d="M106.1,142.7H159c2.8,0,5-2.2,5-5s-2.2-5-5-5h-52.8c-2.8,0-5,2.2-5,5S103.4,142.7,106.1,142.7z"></path> <path class="st0" d="M106.1,114.3h74.3c2.8,0,5-2.2,5-5s-2.2-5-5-5h-74.3c-2.8,0-5,2.2-5,5S103.4,114.3,106.1,114.3z"></path> </g> <g> <path class="st0" d="M245.3,425.5c-2,0-4-0.6-5.8-1.9l-22.2-16.1l-22,16.1c-3.5,2.6-8.1,2.6-11.6,0c-3.5-2.6-4.9-6.9-3.6-11 l8.5-26.1l-22.2-16c-3.5-2.6-4.9-6.9-3.6-11c1.3-4.1,5-6.8,9.4-6.8h27.5l8.3-26c1.3-4.1,5-6.8,9.4-6.8s8,2.7,9.4,6.8l8.5,26.1 l27.3-0.1c4.4,0,8,2.7,9.4,6.8c1.3,4.1-0.1,8.5-3.6,11l-22.2,16.1l8.5,26c1.3,4.1-0.1,8.5-3.6,11 C249.3,424.9,247.3,425.5,245.3,425.5L245.3,425.5z M217.4,397.5c2,0,4.1,0.6,5.8,1.9l21.8,15.9l-8.3-25.7 c-1.3-4.1,0.1-8.5,3.6-11l21.8-15.9l-27,0c-4.3,0-8-2.7-9.4-6.8l-8.3-25.7l-8.3,25.7c-1.3,4.1-5.1,6.8-9.4,6.8h-27l21.8,15.9 c3.5,2.5,4.9,6.9,3.6,11l-8.3,25.7l21.8-15.9C213.3,398.1,215.4,397.5,217.4,397.5L217.4,397.5z"></path> <path class="st0" d="M205.1,236.1c-0.7,0-1.4-0.1-2-0.4l-35.5-15.5c-6.8,1.7-13.8,2.6-20.8,2.6c-47.1,0-85.4-38.3-85.4-85.4 s38.3-85.4,85.4-85.4s85.4,38.3,85.4,85.4c0,25.2-10.9,48.7-30,65l7.7,27.4c0.5,1.9-0.1,3.9-1.5,5.1 C207.5,235.6,206.3,236.1,205.1,236.1z M168,209.9c0.7,0,1.4,0.1,2,0.4l27.4,11.9l-5.8-20.4c-0.5-1.9,0.1-4,1.7-5.3 c18.3-14.4,28.8-36,28.8-59.3c0-41.6-33.8-75.4-75.4-75.4s-75.4,33.8-75.4,75.4s33.8,75.4,75.4,75.4c6.7,0,13.4-0.9,19.9-2.7 C167.1,210,167.5,209.9,168,209.9L168,209.9z"></path> </g> </g> </svg> 