<?xml version="1.0" encoding="UTF-8"?> <!-- Generator: Adobe Illustrator 24.1.1, SVG Export Plug-In . SVG Version: 6.00 Build 0) --> <svg xmlns="http://www.w3.org/2000/svg" xmlns:xlink="http://www.w3.org/1999/xlink" id="Layer_1" x="0px" y="0px" viewBox="0 0 822.1 695.8" style="enable-background:new 0 0 822.1 695.8;" xml:space="preserve"> <style type="text/css"> .st0{fill-rule:evenodd;clip-rule:evenodd;fill:#F43B37;} .st1{fill-rule:evenodd;clip-rule:evenodd;fill:#FFFFFF;} </style> <g id="Character_dancing"> <path id="Accent" class="st0" d="M301.7,461.1c-1.2-17.8,7.3-36.9,18.4-50.4c4.8-5.7,10.5-10.8,17.4-13.8c3.2-1.5,6.7-2.4,10.3-2.5 c1.4,0,6.9-0.2,7.5,1c0.4,0.7-0.8,3.7-0.9,4.4c-0.6,2.8-1.2,5.7-1.7,8.5c-1.4,7.7-2.8,15.4-3.8,23.1c-3.1,23.5,1.9,47.5,5.8,70.6 C335.3,496.9,303.3,484.7,301.7,461.1 M338.8,300.9c-18.8,8.3-36.6,19.7-52.7,32.2c-26.2,20.3-50,46.6-59.4,79 c-5.1,17.7-4.7,36.2-2.7,54.4c1.8,15.8,5.4,31.6,12.3,46C250,541,276,559.1,304.9,570c19,7.3,39,11.8,59,15.3 c2.8,0.5,5.2,1.4,7.6,0.1c1.3-0.9,2.4-2,3.3-3.3c2.6-3.1,4.9-6.4,6.9-9.9c3-4.9,5.7-10,8.2-15.2c0.8,0.7,1.5,1.3,2.3,2 c35.1,30.2,85.6,47.2,131.3,34.9c15.2-4.1,35.7-13.4,40-30.3c4.6-18.3,5.4-37.4,2.4-56c-1.7-9.5-5-19.4-12.4-26 c-3.4-3-4.8-1.9-8.9-1c-3.6,0.9-7.3,1.5-10.9,2.1c-18.8,3-38.5,4.4-57.4,1.7c-7.5-1.1-15.8-2.8-22-7.6s-6.8-11.5-6.6-18.8 c0.4-17.5,9.1-32.5,19.9-45.8c11.6-14.3,24.8-27.2,35-42.6c12.2-18.4,18.6-40.2,18.2-62.3c-7.6,2.1-15.4,4-23.1,5.7 c-31.6,7-64.5,12.1-96.8,7.7C379.7,317.8,357.4,311.9,338.8,300.9"></path> <g id="Ink"> <path id="ink-2" class="st1" d="M11.6,86.1c-6.6-2.6,10.4-7,11.9-7.8c7.1-1.4,14.4-2,21.6-1.6C52.7,77,60.4,78,68,78.5 c3,0.2,7,0.1,9.9,1.1c0.9,0.3,0.5,1.3,1.5,1.3c1.2,0,2-1.5,2.7-2.2c0.7,0.6,1.3,1.2,1.9,1.8c6.3-7.2-4.9-10.6-10.2-12.5 c-7.7-2.8-15.4-5-23.2-7.5c-5.3-1.7-12.5-3.4-16.7-7.2c-5.2-4.8,1.9-5.3,5.5-5.4c2.5,0,5-0.3,7.5,0.2c1.5,0.2,2.9,1.1,4.3,1.2 c1.3,0.1,2.7-0.7,4-0.8c1.7-0.2,5-0.2,6.6,0.6c1.1,0.6,0.8,1.6,2.1,2.1c0.6,0.2,2.8-0.3,3.5-0.2c5.9,0.7,11.8,3.5,17.5,4.9 c3.3,0.8,10.6,3.1,13.6,0C104.2,50,80,38.2,76.7,36.6c-1.9-1-12.5-5.7-5.7-6.9c1.7-0.3,3.7-0.3,4.6,0.6c1,1,0.3,2.9,2.1,3.6 c1.3,0.5,2.1-0.7,3.5-0.1c0.7,0.3,1.4,1.7,1.9,2.2c1.2,1.2,3.3,3.3,5.1,3.1c0.9-0.1,1.6-1.5,2.4-1.3c0.7,0.2,0.7,1.4,1.3,1.7 c1.7,1,3.4,1.6,5.2,2.5c2.5,1.2,5,2.1,7.5,3.3c2.6,1.3,4.5,3.5,7.4,4.3c2.1,0.6,3.2,0.6,4.9,2.1c1.9,1.7,2.7,3,5.2,3.7 c1.5,0.4,2.3-0.1,3.5,1.1c0.6,0.6,0.4,1.7,1.1,2.3c1.2,1.1,3.4,1.1,4.8,2.2c1.9,1.4,2.6,4.1,4.6,5.4c1.3,0.9,2.1,0.9,3.1,2.1 c1.2,1.4,0.3,1.4,2.3,2.4c1,0.6,1.2-0.2,2.3,0.9c1,1,1,2.7,1.7,3.8c1,1.1,2.1,2.1,3.3,2.9c1.9,1.5,2.8,3,4.4,4.7 c1.4,1.5,4.8,3,4.1,5.5c-0.8,2.5-5.3,3.4-3.8,7.1c1.4,3.4,8.6,0,11.4-0.2c1.9,0,3.8-0.1,5.6-0.5c0.5-0.2,1-0.3,1.5-0.5 c0.9-1.1,1.6-1.1,2.1,0c1.7,0.1,3.5,0.1,5.2-0.1c0.9-0.2,1.4-0.8,2.5-0.9c1.2-0.1,2.1,0.5,3.5,0.3c3.1-0.5,4-1.5,5.1,1.9 c-1.3-2.5-8.3,0.7-10,1.7c-1.3,0.7-1.7,1.5-2.9,1.7c-0.4,0.1-1.1-0.6-1.8-0.5c-0.8,0.2-1.5,0.5-2.2,0.9 c-8.8,3.8-17.7,8.2-24.8,14.7c-3.2,3.1-6.1,6.4-8.6,10.1c-1.4,2.1-1.9,4.2-4.1,5.5c-3.3,1.9-8.1,2.6-11.7,3.8 c-4.5,1.5-9.1,3.1-13.7,4.4c-7.9,2.3-19.1,4.6-27.3,2.6c-7.6-1.8,1.7-16.9,3.6-21c1-2.1,1.8-4.2,2.5-6.4c0.6-2,1.6-3.3,2.3-5.1 c1.6-4-1.7-6.8-4.3-9.3c-7.3-6.9-15.8-5.1-25.1-6.5c-9.2-1.3-18.5-1.9-27.8-2c-3.3-0.1-6.1-1.5-9.6-1.8 C20.4,88.2,15.8,87.8,11.6,86.1L11.6,86.1z M74.1,160.1c0.3-2.9-2.3-7.8,2-9.3c1.6-0.5,8.1,0.2,6.6,2.5c2.1,1,5.1-0.6,6.7,1.7 c0.3-1,0.4-2,0.3-3c2.5,1.4,2.5,2,5.2,2.2c1.6,0.2,3.1,0.2,4.7,0.2c2.2-0.1,5.4-0.2,4.4-2.9c1.3,0.4,2.8,1.5,4.2,1.4 c1.5-0.1,1.8-1.1,3-1.6c1.5-0.7,6-3,6.8-1.4c3.2-4.1,11.4-4.9,15.9-7.4c1.4-0.8,6.5-4.4,8-2.8c1.4,1.4-3.1,8.9-3.8,10.7 c-2.7,6.2-4,13-3.6,19.8c0.8,12,5,25,10.3,35.7c4.6,9.4,11.8,17.3,20.7,22.9c2,1.2,4,0.9,6.2,1.5c2.8,0.7,4.6,1.9,7.6,1.8 c2.4,0,4.7-0.5,6.9-1.4c2.1-0.8,3.2-0.7,5.5-0.7c1.1,0,2.4,0.5,3.3,0.5c1.2-0.1,2.4-0.4,3.6-0.8c2.6-0.8,5.1-0.7,7.8-0.9 c5.7-0.5,11.4-1.4,16.9-2.8c12.3-2.9,23.1-7.5,34.3-13.1c11-5.4,20-13.3,30.2-20c8.6-5.7,17.6-10.6,25.3-17.4 c2.2-2,4.6-2.1,6.9-3.8c1.9-1.4,3.2-2.9,5.3-4c1.4-0.7,4.7-1.3,5.7-2.2c1.1-1,0.5-2.8,1.6-3.8c2.5,5.4,8.6-2.2,12.2-3.3 c5.8-1.7,11.6-1.2,17.6-1.6c1.7-0.1,4.8-1.3,6.4-0.5c1.9,1,1.5,2.8,2,4.7c1.3,5.4,6.2,9.4,10.7,12.2c7.7,4.8,16.8,9.2,25.8,8.3 c0.2-0.4,0.6-0.7,1-0.7c0.5-0.2,1.1-0.1,1.4,0.4c0.1,0,1.9-0.4,1.8-0.4c2.4,0.4,4.9,0.5,7.4,0.3c6.3-0.7,11.7-4.1,17.4-6.7 c-1,2.5,1.4,5.6,3.5,6.8c1.7,1,5,0.1,6.2,1.5c1,1.3,0.2,5.2,0.2,6.8c0,3.5,0,7,0.1,10.5c0.6,14,4.6,25.6,14.2,35.9 c4,4.4,9,8,15.2,6.6c5.5-1.2,10.2-5.4,13.8-9.5c8.8-9.9,12.2-23,15.4-35.6c3.5,5.2,6.2,10.9,7.8,16.9c0.7,2.4,2,3.2,3,5.2 c1.1,2.3,0.7,4.1,2.1,6.3c1.4,2.2,1.4,4.3,2,6.9c0.6,3.1,1.9,5.9,2.6,9c0.5,2.3,0.5,4.7,1.3,6.9c0.7,1.8,2.7,3.8,2.9,5.8 c0.1,1.5-1.2,2.3-1.1,3.6c0.1,0.9,0.8,0.9,1.1,1.5c0.8,2,1.3,2,1.3,4.7c0,6,1,11.9,1.7,17.9c0.3,2.7,0.9,5.7,0.2,8.3 c-0.2,0.5-1.9,4.9-2,5c-1.4,0.8-2.9,1.5-4.5,2c-2.9,1-3,0.7-4.2,3.6c-2.7-1.9-2-0.9-3.7-0.2c-1.7,0.8-3.8,1-5.8,1.6 c-5.7,1.6-11.3,2.2-17.1,3.4c-11.4,2.3-22.9,2.8-34.2,5.4c-5.5,1.2-10.9,1.4-16.6,1.7c-2.4,0.1-4.8-0.3-7.2,0.3 c-0.4,0.1-0.9,0.8-1.3,0.8c-0.8,0-1.3-0.5-2-0.5c-3,0.1-6.5,0.4-10-0.4c-1.9-0.4-3.9-0.5-5.9-0.2c-0.9,0-1.8,0.2-2.7,0.6 c-0.4,0.3-1.2,1.5-1.6,1.5c-0.2,0-1.6-1.6-1.9-1.8c-1.5,4.4-2-0.6-5-0.8c-1.3-0.1-2.5,0.7-3.9,0.6c-1.5-0.1-2.9-1.1-4.7-1.1 c-1.8-0.1-3.1,0.4-4.6,0.3c-2.3-0.2-5-1.9-7.4-2.5c-8.9-2.1-17.5-3.2-26-7c-2.7-1.2-6.2-3.5-7.5-6.3c-1.2-2.6,0.4-5.2,1.4-7.7 c6.5-16.9,9.3-34.9,8.4-52.9c-0.6-8.7-2.7-17.2-6.2-25.1c-2.8-6.8-5.7-14.8-12.3-18.9c-3.1,6.6,2.6,16,4.8,22.2 c1.3,3.6,2.5,7.3,3.6,11c0.8,2.9,2.4,6.6,1.1,9.5c-1,2.2-3.6,3.3-5.5,4.5c-3.1,2-6,4.2-9.1,6.3c-2.7,1.8-5.2,3.7-7.7,5.7 c-3,2.3-6.4,3.3-9.6,5.2c-12.2,7.3-24.1,13.8-37.4,18.9c-11.9,4.6-23.6,9.7-35.8,12.7c-6.6,1.6-13.9,3-20.7,4.1 c-6.3,1.1-13.1,0.4-19.6,0.7c-14.5,0.6-29.1-0.8-42.9-5.5c-13.2-4.5-25.2-11.8-36.4-20.1c-5.6-4.1-9.3-9.1-14-14.1 c-4.6-5-9.6-9.8-12.9-15.7c-6.5-11.6-12.8-22.8-16.7-35.5c-2.3-7.2-3.7-14.7-5.8-21.9c-1.1-3.7-0.7-7.1-1.2-10.8 C75.1,165.9,73.7,163.3,74.1,160.1L74.1,160.1z M375.2,324.1c-2.8-0.5-4.8-3.7-6.7-5.5c2.6,0.7,5.2,1.4,7.7,2.2 C379.9,321.9,378.5,324.7,375.2,324.1z M501.9,322.1c-2,1.9-4.1,4.7-6.6,5.8c-3.1,1.2-4.3-1-6.1-3.1 C492.9,322.2,497.6,322.6,501.9,322.1L501.9,322.1z M358.7,437.4c-3.3,3-4.6-3-4.3-5.2c0.1-1,1-5.7,1.8-6.2c2.1-1.3,3,3.1,3.6,4.5 C361.1,433.7,361.5,434.9,358.7,437.4L358.7,437.4z M342.8,422.8c-2.5,9.1-2.1,18.7-1.8,28.1c0.4,9.5,1.5,19,3.3,28.4 c0.7,3.4,1.5,6.9,2.6,10.2c0.6,1.7,1.5,4.2-0.6,5c-2.8,1-9-3.9-11.1-5.2c-1.8-1.2-3.5-2.4-5.3-3.7s-4-1.9-5.7-3.2 c-2.3-1.7-3.1-4.9-5.3-6.8c-2.5-2.1-4.6-3.3-5.9-6.5c-2.6-6.4-4.8-11.8-3.5-18.9c1.3-7.3,4.7-14.6,8.1-21.1 c6.5-12.3,14.9-27.1,29.8-29.7c-0.4,4.1-1.7,8-2.7,12C343.8,415.2,343.8,419.1,342.8,422.8L342.8,422.8z M356.1,469 c-2.1,0.8-1.1-3.1-0.9-3.6C355.4,466.1,357.6,468.4,356.1,469z M346.5,308c2.1,0.9,4.5,3.3,6.9,4.7c2.3,1.2,5.1,2.3,7.1,3.9 c3.6,2.9,2.8,7.8,5,11.6c1.2,2.1,2.4,2.4,0.4,4.7c-1.5,1.7-3.9,2.7-5.7,4.1c-3,2.3-8.1,8-3.8,11.7c3.3,2.8,9.4-2,12.3-3.6 c1.9-1.1,4.6-3.2,6.9-2.6c1.8,0.5,3.2,2.9,4.6,4.1c2.9,2.5,7.2,4.7,9.1,0.1c2.3-5.4-2.5-9.6-5.8-13.1c2.2-2,3.3-4.7,5.2-6.7 c1.4-1.4,1.8-1.2,3.8-0.8c6.5,1.2,13.1,1.8,19.7,1.7c2.6-0.1,6.4-1,8.7,0.7c1.2,0.9,2.5,3.9,3.1,5.3c2.1,5-4.1,8.4-7.3,11.8 c-2.5,2.6-6.5,11.4,0.6,10.3c5.4-0.9,8.7-6.4,13.5-8.3c5-2,7.5,7.2,12.3,4.1c2.9-1.9,2.2-7.2,1.2-9.9c-0.8-2.1-2.2-3-1.3-5.2 c0.7-1.8,4.2-4.5,5.7-5.8c4.6-4.1,10.9-3.1,16.7-3.5c4.8-0.3,13.6-3.3,16.5,1.6c1.2,1.9,2,3.9,2.5,6.1c0.4,3.4-2.8,5.3-4.9,7.4 c-2.9,2.9-6.9,7.6-6.7,12c0.2,5.1,4.3,4.2,7.7,2.5c1.9-0.9,3.8-2,5.5-3.3c1.7-1.2,3.6-4.1,5.7-4.6c2.4-0.5,3.2,1.3,4.7,2.8 c1.8,1.8,6.1,3.3,6.9,5.8c0.7,2-1.8,6.1-2.7,7.8c-1.4,2.7-3.7,4.7-5.5,7.2c-3.7,5.2-7,10.8-11.9,15c-10.1,8.7-22,14.3-29.8,25.6 c-2.9,4.2-5.3,12.3-10.7,12.6c-4.7,0.2-6.5,2.2-10.4,4.7c-4,2.5-5.5,1.1-8.2-2c-1.6-1.8-4.8-6.6-7.7-6.2 c-5.6,0.7-0.8,9.5,0.5,11.6c3,5,3.2,6.8-1.1,11c-2.7,2.6-6.5,5.8-7.7,9.5c-1.5,4.8,2.7,5.9,6.5,4.4c2.3-1,4.5-2.4,6.4-4 c1.7-1.2,3.7-4,5.8-4.4c4.4-0.9,6.1,7.5,10.8,5c4.5-2.4,1.9-8.8,0.5-11.9c-1-2.1-1.5-2,0.1-4c0.9-1,2.9-2.8,3.9-1.4 c0.8,1-0.8,4.4-1,5.5c-0.3,3-0.4,5.9-0.3,8.9c-0.1,5.9,0.9,11.7,3,17.2c0.7,1.8,3.8,6.6,3.1,8.5c-0.8,2.2-3.7,2.3-5.6,2.6 c-3.3,0.5-6.7,0.9-10.1,1.2c-1.8,0.1-3.8-0.2-4.8,1.6c-2.2,3.8,3,8.1,6.1,8.9c3.8,0.9,12.2-2.5,14.5,1.6c1.9,3.5-1.4,9-0.4,12.8 c2,7.7,7.2-1.8,7.8-4.9c1-5-1-11.8,6.3-12c5.2-0.1,10.7,3.8,15.4,5.6c6.8,2.5,13.9,3.9,21.1,4.2c3.1,0.2,6.1,0.2,9.2,0.1 c3.4-0.1,6.6-1.4,9.9-1.6c3.3-0.2,3.4,0.5,3.6,3.5c0.2,2.1-0.1,4.3,1.1,6.2c2.3,3.5,5.2,2,6.1-1.5c0.7-2.9-0.7-7.7,1-10.1 c1-1.5,3.1-1.5,4.8-2c3.2-1,5.8-3,8.8-4.4c1.6-0.8,5.4-3.2,7-2.8c2.2,0.5,3,6.3,3.4,8.1c1.4,5.8,3.1,11.6,4.2,17.5 c0.7,3.6,0.9,7.2,1.6,10.7c0.4,2.5,0.3,4.9,0.6,7.2c0.4,2.3,1.8,2.8,1.3,5.3c-0.5,2.4-1.6,4.2-1.7,6.7c-0.3,7.2-1.5,14.3-3.8,21.2 c-1.7,4.7-3.3,10.2-7.1,13.7c-2.7,2.5-6.7,3.6-10,5.3c-2.2,1.3-4.6,2.1-7.1,2.4c-3,0.2-4.2-1.9-7-2.5c-1.7-0.4-3.8,0.2-5.2-1 c-2.8-2.5,1.2-12.6-3.4-13.8c-4-1-3.7,7.5-3.9,9.6c-0.8,6.8-5.2,5.3-10.5,7c-1.9,0.6-4.3,1.3-5.2,3.2c-1,2,0.3,2.9-2.6,3.1 c-1.7,0.1-3.4-0.9-5.2-0.9c-0.9,0-1.7,0.3-2.6,0.3c-2.9,0-4.6-1.7-7.2-2.5c-2.9-1-6.3-0.9-9.3-1.7c-3.5-0.9-7-2-10.5-3 c-5.5-1.6-12.3-1.7-13.6-8.2c-0.5-2.4-0.8-12.2-5.5-8.6c-3.5,2.8,1.3,11-5.2,8.4c-5.5-2.2-10.9-5.7-15.8-9 c-2.2-1.5-10.1-5.1-9.2-8.2c0.5-1.7,7.9-6.6,9.7-6.5c3.7,0.1,6.9,8.6,10.9,4.4c2.1-2.1,1.9-7.1,0.8-9.7c-1.4-3.1-3.1-3.9-0.1-6.7 c1.4-1.3,3.3-2.1,4.6-3.5c2.3-2.4,3.4-7.3-0.4-9c-4.1-1.8-8.1,3.2-11.3,5c-5,2.8-6.8-1-10.1-4.6c-1.9-2-6.9-7.1-8-1.6 c-0.6,2.9,1.8,7.1,3.2,9.6c1,1.9,2.9,3.7,2.5,6c-0.5,2.3-3.7,4.1-5.2,5.6c-3.8,3.8-5.1,6.1-9.4,1.4c-4.3-4.9-8.3-10.1-11.8-15.6 c-3.5-5.4-6.3-10.9-9.5-16.3c-1.4-2.3-1.7-4.8-2.9-7.1c-0.9-1.7-3-2.1-3.7-3.4c-0.7-1.2-0.2-3.9-0.7-5.3c-0.9-2.7-3.3-4.1-4.1-6.7 c4.4,0,9.1,2.1,13.5,2.7c3,0.4,6.2-0.2,7.1,2.7c0.9,2.8-2.3,8.3,1.1,10.6c1.8,1.2,3-0.3,4.1-1.8c2.7-3.7,1.7-10.6,6.3-11.9 c3-0.9,6.4-0.6,7.3-4.4c0.8-3.6-1.7-5.9-4.8-6.7c-3-0.8-5.8,0.2-7.4-3.1c-1.1-2.2-0.1-8.2-3.5-8.9c-3.8-0.8-2.6,5.8-2.7,7.7 c-0.2,4.4-2.7,4-6.3,4.2c-4.1,0.2-8.1,0.3-12.2,0.2c-4.8-0.2-4.9,0.3-5.6-4.4c-0.6-3.5-1.4-6.8-1.8-10.5c-0.5-4.5-2.2-7-0.9-11.4 c-3.4,1.1-5.7-0.4-3.9-4.3c1.4-3,6.7-3.9,9.6-5.2c3.7-1.6,6.6-4.3,10.2-1.4c2.1,1.7,3.7,4.5,6.4,5.3c3.4,0.9,5.6-2.1,5.4-5.3 c-0.2-3.5-2.5-5.5-4.3-8c-2.4-3.4,0.5-4.1,2.1-7.1c1.2-2.2,1.9-6.8,0.2-9c-3.9-5.1-8.3,4.8-12.6,3.7c-2.9-0.7-5.6-5.2-8.1-6.9 c-2.3-1.6-3.2-1.4-3-4.1c0.3-3.6,2.2-7.4,2.9-11c0.8-3.9,2-7.5,2.8-11.3c0.7-3.2,0.5-5.5,4.7-4.1c3.3,1.1,6.7,2,10.2,2.5 c3,0.4,7.8,0,8.8,3.5c0.7,2.4-0.5,5,0.4,7.5c1.3,3.6,3.7,3.8,5.7,0.3c1.3-2.5,1.1-5.4,2.2-7.9c2.3-5.2,10.5-2.7,11-8.8 c0.6-6.9-6.9-4.5-10.5-6.8c-2.3-1.5-3.2-15.2-7.3-9.7c-1.2,1.6-1.1,4.3-1.1,6.1c-0.1,2.1,0.5,3.5-1,4.3c-2,1-7.3,0.5-9.9,0.7 c-7,0.4-5.9-2.7-3.9-8.1c2.3-6.1-2.8-11.6-7-15.9c-2.3-2.4-13.4-8.7-13.8-2.5c0,2.9,0.6,5.8,1.8,8.5c1.2,2.7,3.8,5,3.7,8.1 c-0.1,3.7-3.4,7.8-4.8,11.1c-1.2,2.7-1.7,3.9-4.5,4.8c-5.3,1.7-13.5-0.4-17.4,4.2c0.2-1.9-0.4-4.5,1.2-6c1.6-1.4,4.2-0.8,6.1-1.2 c5.6-1.1,3.4-6.3-0.8-7.7c-1.7-0.5-3.8-0.5-4.9-2.1c-1.2-1.7-0.7-4.6-0.8-6.6c-0.1-2.7-1.2-12.4-5.6-8.1 c-3.5,3.4-0.3,9.6-2.2,13.4c-1.5,3-7.5,2.3-10.4,2.5c-5.3,0.4-10.7,0.4-16,0c-4.1-0.1-6.5,3.2-3.2,6.5c6.2,6.3,17.4,2.6,25.1,4.1 c4.3,0.8,3.5,3.6,3.2,7.3c-0.5,4.8-2.3,7.4-5.3,11.2c-3.3,4.1-7,8.3-9.6,12.9c-1.5,2.6-2.7,7.6-6.4,5.4c-2.2-1.3-4.1-7.4-7.5-5.2 c-3.7,2.4-0.3,8.8,1.1,11.3c0.9,1.6,2,2.5,1.2,4.3c-0.8,1.7-4.5,3.6-5.9,4.8c-3.2,2.7-7.9,6.1-9.3,10.2c-1.1,3-0.4,7.6,3.5,7.1 c3.8-0.4,8.2-3.8,11.7-5.2c0,6.1-0.2,12.3,1.5,18.2c0.6,1.9,5.2,8.8,4.1,10.6c-1.6,2.5-9-0.9-11.6,0c-4.4,1.6-1.8,6.8,1.3,8.4 c7.2,3.8,19.1-1.6,24.6,5.7c2.6,3.5-0.6,8.9,2.3,12.1c3.9,4.3,5.5-3,6.5-5.6c4.2,2,8.2,5.5,12.7,6.6c2,0.5,4.4,0.8,6.2,1.1 c1.3,0.2,2.3,0.1,3.7,0.2c4.4,0.4,5.9,4.2,7.5,7.6c2,4.1,4.2,8,5.3,12.4c-3.7-0.3-5.6-4.6-8.3-6.6c-3.7-2.8-5.4,0.1-4.9,4.1 c0.4,3.2,4.5,7.3,3.7,10.1c-0.8,2.7-5.1,4.7-7.1,6.3c-2.6,2.2-4.7,4.8-4.1,8.4c0.5,3.4,2.8,4,5.9,3.1c3.9-1.1,7.4-4,11-5.8 s4.6,0.3,7.1,2.9c2.8,2.9,5.2,4.6,8.9,2.1c2.8-1.9,2.2-1.5,4.4,1.2c2.3,2.9,4.7,4.3,3.1,8.1c-1.6,3.9-4.2,7.5-5.8,11.5 c-1.4,3.5-1.3,6-5.4,6c-4.3-0.2-8.6-0.8-12.7-2c-4.6-1.1-9.4-1.9-14-3.2c-4.1-1.2-7.9-3.1-11.9-4.5c-4.5-1.5-9.7-2.1-13.9-4.2 c-3.6-1.8-7-2.9-10.7-4.4c-4-1.5-9-2.1-12.5-4.3c-2.7-1.7-4.7-4.5-7.9-5.4c2.2-1.5,6.8-6.6,9.6-6.4c2.3,0.2,3.8,3.7,5.2,5.3 c1.8,2.1,4.2,4.7,6.9,2.5c2.4-2,1.8-6.3,0.5-8.7c-1.4-2.6-4.9-4.3-4.7-7.5c0.2-2.9,3.5-5.5,4.4-8.4c1.7-5.7-1.4-10.5-6.3-5.9 c-3,2.9-4.6,6.8-8.4,2.9c-1.9-2-5.7-9.2-9.1-5.8c-1.6,1.6-0.8,5.1-0.2,7c0.7,2.2,3.7,4.8,3.9,6.9c0.2,2.5-3.7,4.2-5.3,5.5 c-2.4,1.9-4.6,5-7.7,5.9c0-1.2-2.5-1.8-3.3-2.4c-1.7-1.1-2.9-2.8-4.5-4c-2.6-1.9-5.7-3.7-8.1-5.5c-1.6-1.3-2-3.5-3-5.3 c-1.5-2.9-5.1-4.4-7-7.1c-2.3-3.3-5.2-6.6-7.4-9.9c-1.5-2.3-1.4-4.6-3.2-6.8c-1-1.2-1.6-2.5-2.9-3.4c-0.9-0.6-1.7-0.9-2.3-1.4 c0.7,0.4-0.6-2.9-0.6-1.5c-0.1-1.2-0.6-1.4,0-3c0.3,0.8,0.5,1.5,0.8,2.2c1.1-0.8,1-2.3,1.2-3.5c-2.2,0.4-3.8-4.6-4.9-6.4 c3.2-1.3,2.6-6.9,2.3-9.6c-0.5-4.9-0.6-9.6-0.9-14.5c0-2.3-0.1-4.6-0.4-6.9c-0.3-1.3-0.4-2.6-0.3-3.9c0-0.5,0.6-0.8,0.5-1.5 c-0.2-0.9-1.5-1.2-1.7-1.9c-0.7-2-0.2-0.7,0.9-2c2.1-2.5,2.1-9.2,6.5-7.4c2.8,1.1,5.4,4.8,7.9,6.6c7,5.1,10.6-1.7,6.3-7.7 c-1.8-2.6-7.9-6.2-7.3-9.8c0.5-3.3,5.3-4.7,6.3-7.9c1.1-3.3-1-7.1-4.7-7s-5.9,3.6-8.8,5.2c-4.2,2.3-2.4-1.9-1.6-4.5 c1.2-3.7,2.5-7.4,4-11c1.5-3.3,2.4-7.2,4.8-10c1.5-1.9,2.3-4.3,3.9-6c2.1-2.3,12-3.1,13.8-0.1c1.5,2.5-1,7,0.4,9.8 c1.8,3.5,4.3,2.3,5.8-0.7c2.8-5.6-0.2-10.7,7.8-10.9c2.8-0.1,5.5-0.3,6.1-3.7c0.6-3.2-1.8-5.5-4.7-6.2c-2.5-0.6-5.4,0.3-7.1-2.2 c-1.6-2.3-2-8.8-2.3-11.6c-0.4-4,2.4-6.9,5.1-9.6c2.1-2.1,3.6-4.8,6.1-6.2c4.3-2.4,7.1-7.6,11.5-9.1c2.1-0.8,4.3-1.4,6-2.9 c1.1-1,1.5-2.6,2.6-3.5c0.5-0.4,4-1.8,4.5-1.3c0.9,0.9-13.1,11.6-14.7,13.9c-1.4,2-2.5,5.7-1.1,8.1c1.7,3,5,0.8,7.4-0.3 c3.5-1.6,6.8-3.6,9.9-5.9c1.3-1.1,3.7-4.6,5.6-4.6c4.4,0.1,5.7,10.9,11.5,9c3.4-1.1,3-6.1,1.9-8.6c-1.2-2.7-5-4.7-5.1-7.7 s3.4-6.2,4.3-9.1c1.1-3.2,0.2-6-1.9-8.6c4.2-2.7,11.8-7.8,17.1-7.6c2.1,0.1,2.6,2.4,4.6,2.3C344,309.4,344.7,307.3,346.5,308 L346.5,308z M312.7,321.1c-0.9,0.5-1.7,1.1-2.6,1.6C309.4,320.3,310.8,320.2,312.7,321.1z M262.3,368.7c1,5-3.9,4.9-7.4,5.2 c2.7-2.3,0.9-2.1,1-4.6c2.9,1.2,1.6-2.8,2.8-3.9C260.6,363.8,262,366.9,262.3,368.7L262.3,368.7z M399,582.9 c-4.7-2.3-9.8-3.6-15-3.7c1.5-2.6,2.8-5.3,4-8.1c0.6-1.7,0.6-3.5,2.7-3.7c5.2-0.4,4.6,8.7,4.7,11.6 C398.1,576.8,398.1,580.5,399,582.9L399,582.9z M397.3,615.8c0.5,1.5,0.5,2.2,1.9,2.4c0.5,0.2,0.9-1.3,1.9-0.8 c0.8,0.4,1,1.7,1.7,2c2,1,2-0.1,3.8-0.9c0.7,1.6,1,2.5,2.7,3.1c1.2,0.4,3.2-0.5,4.2,0.2c0.7,0.5,0.7,2.1,1.4,2.8 c1.3,1.1,3,1.5,4.7,1.2c4.9-0.9,0-9.3-2.4-11.1c-2.8-2.1-8.1-3.6-10-6.7c-1.4-2.2,0.3-3.9,1.5-6.1c3.3-6.1,6.8-0.7,11.9-0.2 c7.7,0.7,0.1-6.9-2.4-8.5c-2.8-1.8-5.9-3.1-7.8-5.9c-0.7-1.1-3-5.3-0.6-5.9c1.1-0.3,7.9,4.8,9.4,5.5c3.4,1.6,6.7,3.3,10.1,4.9 c3.1,1.5,6.2,2.1,9.2,3.8c3.3,1.7,6.8,3,10.4,3.8c3.8,0.9,7.6,1.6,11.4,2c3.2,0.3,4.7,1,4.5,4.5c-0.2,3.8-1.4,5.7-0.5,9.6 c0.4,1.7,1.2,6.7-1,2.8c-1.6,8.2-4,19.8-10.8,25.5c-2.7,2.2-6.2,3.5-8.8,6c-1.1,1.1-2.4,2-3.8,2.6c-1.1,0.5-1.1,0-2.2,0.8 c-0.4,0.2,0,2.1,0,2.4c-1.9-3.2-12.1,4.8-15,5.7c-3.6,1.1-7.3,2.7-11,3.2c-2.3,0.3-5.3-0.6-5.8,2.6c-1.2-3.3-5.4-1.7-8.1-2.8 c-1.9-0.7-3.4-2.3-5.5-2.7c-1.6-0.3-3.1,0.3-4.6-0.1c-1.6-0.4-2.4-1.4-4.2-1.6c-2.2-0.2-4.2-0.5-6.4-0.9c-3.4-0.7-6.4-1.6-9.7-2.5 s-7.2-1.9-10.5-1.2c-1.2,0.3-1.7,0.8-3,0.7c-1.2-0.1-2.9-1.1-4.5-1.2c-2.8-0.2-5.1,0.4-5.9-2.2c-0.5-1.7,0.7-4.3,0.9-6.1 c0.1-1.9,0.1-3.8,0-5.7c-0.1-6.7,0.1-14.9,4.5-20.3c2-2.7,4.8-4.6,8-5.5c1.4-0.3,1.9,0,3.4-0.5c0.4-0.6,1.1-1,1.9-1 c0.6,0.1,1.3,0.2,1.9,0.3c1.7-0.4,1.5-0.7,3.1-0.9c0.9-0.1,2.6-0.2,3.5-0.2c3.5,0,7.6-0.1,11.2,0.7c2.8,0.6,5.5,0.1,8.1,1 C392.8,615.4,394.3,618,397.3,615.8L397.3,615.8z M499.1,588.8c1.3-0.4,3.3,0.7,4.5,1c3.1,0.7,5.8,0,8.9-0.2 c-2.6,1.9-5.8,1.6-8.8,1.4C502.5,590.9,494.7,590.2,499.1,588.8z M506.8,346.8c-1.3-2.1-3.9-4.3-4.2-6.8c-0.4-2.8,2.2-4.8,3.6-7 c1.6-2.3,2.4-5.2,2.2-8c-0.2-1.7-1.6-3.7-0.3-5.2c4.8-5.5,3.9,8.6,3.9,9.6C511.7,335.3,509.9,342,506.8,346.8z M522.5,181.8 c-4.4-0.5-8.2-0.6-12.2-2.1c-3.8-1.4-5.6-1.1-6-5.7c-0.8-9.1-2.2-18.1-4.2-27c-0.8-4-2.5-8.7-2.5-12.9c0.1-3.5,2.2-2.8,5.3-2.7 c7.7,0.2,15.9-0.1,23.4,1.7c6.8,1.6,13.9,2.4,20.9,2.2c2.6-0.1,4.1,2.1,7.1,2.8c3.5,0.8,7,0.9,10.5,1.7c3.6,0.8,7.8,1.3,11.2,2.8 c1.3,0.6,2.5,1.7,3.9,2.1c1.6,0.4,2.5-0.2,4.1-0.3c2.7,0,5.4,0.4,7.9,1.3c0.9,0.7,1.8,1.5,2.6,2.3c1.1,0.9,1.8,0.9,2.3,2.5 c1,3-1.4,8.6-2,11.6c-0.9,4.3-1.8,8.5-2.8,12.7c-2,8.7-4.2,17.5-6.2,26.2c-9.9-4.7-19.8-9.7-30.3-12.8 C544.7,185.1,533.7,182.9,522.5,181.8L522.5,181.8z M581.1,274.6c4.2-0.7,3.1-11.7,3.3-14.6c0.1-2.9,0-6.3,3.6-6.5 c3.5-0.1,7.3,3,10.3,4.3c-3,5.3-6.7,10.5-9.3,15.9c-2.7,5.5-6.4,10.3-8.9,15.9c-2.6,6-6.4,11.4-9.6,17.1c-1.8,3.1-3.5,6.3-5.3,9.4 c-1.2,2-2.8,6.2-4.7,7.6c-1.6,1.2-2.4,0.7-4.7-0.3c-2.1-0.9-4-1.9-4.1-4.3c-0.1-2.4,2.1-5.1,3.1-7.1c1.4-3,2.7-6,4-9 c5.8-12.8,13.2-24.7,19.7-37C578.7,267.5,578.4,275,581.1,274.6L581.1,274.6z M572.5,326.2c0.6-1.2,1.3-2.3,2-3.5 c1.4-2.5,3.1-4.8,4.1-7.5c1.8-4.6,4.4-7.7,7.2-11.9c2.8-4.4,4.3-9.3,7.4-13.5c1.7-2.3,1.7-3.8,2.6-6.4c0.8-2.2,2.6-4.2,3.8-6.2 c1.5-2.1,2.7-4.4,3.7-6.8c0.4-1.2,0.4-3.3,1.4-4.1c2.7-2.1,8.5,3.8,10.6,5.3c4.5,3.3,8.8,6.6,13.3,9.9 c9.8,7.2,20.1,13.8,30.4,20.2c5.9,3.7,21.2,8.8,18.6,17.9c-1.3,4.7-6.1,9.4-8.9,13.2c-3.1,4.1-6.1,8.8-9.7,12.5 c-0.8,0.9-2.5,1.7-3.1,2.7c-0.5,0.8-0.3,1.5-0.6,2.4c-0.9,2.2-2.1,4-2.8,6.3c-0.8,2.7-0.9,10-4.5,9.9c-3.2-0.1-9.3-4.9-12-6.3 c-5.2-2.6-10.5-5.1-15.9-7.5c-10.4-4.6-20.6-9.1-30.8-14.1c-3.1-1.5-6.3-2.8-9.4-4.3c-2.3-1-6-2.2-7.6-4.1 C570.8,328.5,571.2,328.5,572.5,326.2z M660,366c-2.5-1.8,10.2-17.7,11.9-19.2c8.9-4.9,17.6-12.4,14.5-23.6 c-1.3-4.9-2.6-10.3-4.8-14.9c-2.4-4.9-7-8.2-11.2-11.5c-10.2-7.8-20.5-15-31-22.4c4.5-4,11.4-6.4,14-12.3c1.4-3.3,0.6-5.8-0.4-9 c-1.2-4-0.9-5.3,3-6.4c2.9-0.8,4.1-2.2,7.1-2.5c4.2-0.4,7.7-2,11.6-3.5c3.2-1.2,6-0.5,9.5-0.8c2.6-0.2,8.1,1.5,8.9-1.9 c1.1,0.9,2.1,1.9,3.2,2.8c1.9-2.6,1.4-0.6,3.6-0.3c1.4,0.2,5.8-1,7.1-1.9c0.2,0.8,0.3,1.7,0.5,2.5c1,0.1,2,0.1,3-0.1 c2,0.6,3.6,2,5.6,2.7c2.1,0.7,4.4,1.1,6.6,1.1c1-0.2,2.1-0.3,3.1-0.2c0.5,0.2,0.6,1.1,0.9,1.2c0.8,0.3,1.8,0,2.6,0.3 c0.6,0.2,1.2,1,1.8,1.3c1.8,0.8,4.2,0,5.4,2c0.8,1.3,0.4,4.4,0.5,5.7c0.2,2.5,0.5,4.9,0.9,7.3c1.8,10.1,6.9,19.5,13.1,27.5 c2.5,3.2,5.3,7,8.2,9.6c1.3,1.2,2.5,1.9,3.5,3.5c0.8,1.3,0.6,3,2.4,1.8c0.5,2.2,1.2,1.4,2.7,2.3c1.7,1,1.6,2.1,2.8,3.3 c0.5,0.5,1.2,0.8,1.6,1.2c0.6,0.7,1.3,1.5,2.3,2.5c1.2,1.2,3.2,1.8,4.2,3.1c0.7,1,0.3,2.2,0.9,3.2c1.4,2.5,4.7,2.6,6.4,4.8 c0.4,0.5,0.9,1,1.4,1.5c-0.3-0.3,1.3,1.3,1.3,1.1c0.3,0.6,0.5,1.4,0.9,1.7c2.1,1.9,2.4,3.2,3.9,5.7c2.2,3.5,3.4,0.8,5.8,1.7 c0.5,0.1,4.5,4.9,4.5,5.4c0.3,3.4-5.9-0.5-6.9-1c-3.8-1.7-7.5-3.4-11.3-5.2c-8.1-3.7-16-7.8-23.7-12.3c-3.6-2.1-7.1-4.4-10.4-7 c-2.6-2.1-4.1-5.2-7.3-6.5c-3.4-1.3-7.7-1.7-7.6,3.1c0.1,3.3,3,6.3,5,8.5c10.9,11.8,23.7,22.5,32.6,36c1.4,2.1,9.1,14.8,1.6,11.5 c-6.2-2.8-11.4-7.6-17.1-11.2c-13.7-8.6-25.4-22.1-36.5-33.8c-3.1-3.3-6.2-6.6-9-10.2c-1.8-2.2-3.3-4.9-5.4-6.8 c-2.1-1.8-5.5-3.2-7.8-0.9c-2,2.1-1.2,5.6-0.8,8.2c2.2,12.6,7.9,32.1-4.1,41.8c-6,4.9-14.4,5-21.5,7.4c-1.6,0.5-2.9,1.7-4.6,1.7 c-0.6,0-1.4-0.6-2.2-0.6C664.9,365,662,367.4,660,366L660,366z M671.5,376.5c0.5-1.1,3.5-0.7,4.3-0.4c2,0.8,2.1,1.3,1.5,3.5 C676.2,378.9,670.4,378.9,671.5,376.5z M589,223.7c0.3-2,0.2-5,1.2-6.8c-0.4-1.8,0.1-2.4,1.6-1.7c0.7,0.2,1.4,0.6,2,1.1 c2.8,1.8,5.3,4.4,8.1,6.2c4,2.6,7.7,5.5,11.2,8.7c6.8,6.3,13.2,13,19.1,20.2c0.9,1.1,2.8,5.2,4.2,5.1c0.8-0.1,2.3-3.5,3.3-4.1 c0.6-0.4,3.5-1.6,4.3-1.5c3.2,0.5-0.5,6.5-1.6,7.6c-2.7,2.7-5,4.3-6.9,7.8c-2.1,3.9-2.8,4.7-6.6,2.1c-3.4-2.3-6.4-5-9.7-7.3 c-1.8-1.3-4-2-5.8-3.3c-1.3-0.9-2.2-2.4-3.7-3.1c-3.5-1.6-7.2-2.7-10.7-4.6c-1.9-1-3.9-2-6-2.9c-1.5-0.6-4.2-1.1-5.3-2.2 c-2-2-1.2-4.4-0.8-7C587.5,233.2,588.3,228.5,589,223.7L589,223.7z M717.4,217.4c4.1,4.2,9.4,7.2,12.9,12.4 c-17.3-2.9-34.7-8.9-52.5-5c-9,2.1-17.5,5.7-25.2,10.7c-1.1,1-2.3,1.8-3.6,2.6c-1.8,0.9-3.5,0.3-5.3,1c-3.3,1.5-6.2,3.7-8.4,6.5 c-8.4-11.6-17.3-22.9-29.2-31.1c-2.8-2-5.6-3.8-8.6-5.5c-2.2-1.2-4.8-2.1-5.4-4.7c-0.5-2.1,0.9-5.1,1.5-7.1 c0.9-3.1,1.5-6.3,2.2-9.4c1.7-7.7,3.4-15.5,5-23.2c0.6-3.2,0.8-11.1,4.7-12.3c2.4-0.7,4.5,1.3,6.5,2.2c1.1,0.5,2.2,0.8,3.4,1.1 c-0.1,0.6,0.1,0.8,0.7,0.8c0.4-0.3,0.8-0.5,1.2-0.7c2.9,0.9,5.5,2.6,8.4,3.6c0.1,0.1,0.2,0.2,0.3,0.2c0.4,0.2,0.9,0.1,1.1-0.3 c0.6,0.7,1.2,1.3,1.9,1.9c1.3,0.3,1.6,0.1,2.4-1.1c1.6,2.6,6.1,3.8,8.8,4.7c0.8,0.2,1.7,0.4,2.5,0.6c1.8,0.5,1,0.4,2.5,1.6 c1.8,1.5,4,1.6,5.9,2.8c1.1,0.6,1.8,1.9,2.9,2.5c1.5,0.8,3,0,4.6,0.8c1.4,0.7,1.6,2,2.5,3c2.1,2.5,4.3,1.5,7.2,2.8 c2.4,1,3.2,3.1,5,4.4s4.2,1.8,6,3.2c0.8,0.6,1.4,1.8,2.4,2.1c1.4,0.5,1.9,0,2.9,0.5c0.5,0.3,1,0.6,1.4,1c1.6,1.1,3.5,3.4,5.4,5.1 c3.2,3,6.7,5.8,10,8.8c1.6,1.4,2.9,3,4.5,4.3s3.6,0.9,5,1.9c0.8,0.6,1.3,2.2,2,3.1C714.2,214.8,716,215.9,717.4,217.4L717.4,217.4 z M598.2,86.6c2.8,9.2,3.7,18.8,2.9,28.3c-0.2,3.5,0.7,18.1-3.3,18.9c-2.4,0.5-6-1.8-8.2-2.6c-3.2-0.9-6.5-1.7-9.8-2.1 c-3.4-0.6-7.2-1.6-10.8-2.5c-4.8-1.2-9.5-2.3-14.3-3.4c7.6-10.1,9.6-20.1,9.3-32.5c-0.3-12.7-3.3-25.2-3.4-37.9 c0-5.9,5-4.1,9.2-2.3c4.9,2.2,9.2,5.2,12.9,9.1C590,67,595.2,76.7,598.2,86.6L598.2,86.6z M524.2,105.8c3.6,4.4,7.3,8.7,10.8,13.1 c-10.8,0-22-2.5-32.8-1c-2.5,0.3-6,2-8-0.2c-1.7-1.9-2.1-8.3-2.3-10.8c-0.6-7.3,2.7-18.1,11.7-16.9 C512.9,91.3,518.7,99.1,524.2,105.8L524.2,105.8z M479.7,132.5c2.5-0.3,9.4-1.8,10.7,1.2c2.2,5,2.3,12.2,3.3,17.6 c1.2,6.4,2.5,12.8,3.3,19.2c0.5,3.7,2.8,9.6-2.2,10.1c-1.3,0.1-4.7-0.9-4.7,1.7c0,1.9,3.1,1.9,4.4,2.1c4.7,0.9,3.9,3.5,3.7,7.7 c0,4.7-0.6,9.3-1.5,13.9c-2.1,8.6-6.3,18.7-13.5,24.3c-8.4,6.7-15.6,1.2-21.4-5.9c-6.6-7.9-9.2-18-9.8-28.1 c-0.2-2.7-1.8-10.1-0.3-12.5c1.6-2.8,5.7-1.9,8.4-2.4c7.7-1.4,15.5-10.1,17.9-17.3c3.1-9.4,0.3-17.6-3.3-26.2 C472.9,133.6,475.9,133,479.7,132.5L479.7,132.5z M460.6,172.6c-3.9,2.2-6.7,1.2-10.7,0.9c-0.8-0.1-1.9,0.8-2.4,0.5 c-1.1-0.8-0.6-3-0.5-4.1c0.9-9.4,6.4-16.4,11.4-23.9c1.9-2.9,3.8-6.3,7.6-4.2c3.5,1.9,3.8,6.3,4.4,9.8 C472,160,468.1,168.4,460.6,172.6z M442.2,152c1.8-3.6,4-7.2,6.3-10.5c0.9-1.3,3.6-5,5-5.4c2.8-0.8,4.2,1.6,3.4,3.5 c-1.4,3.6-5.4,7.3-7.5,10.7c-4.2,6.9-8,14.1-8.8,22.3C434.5,169.9,440.3,155.9,442.2,152z M465.6,91.4c0.4,7.9-1.9,14.6-1.5,22.3 c0.2,3.3-0.5,6.7-2.2,9.6c-1.7,3.1-2.5,2.7-6,2.2c2.4-5.9,1.1-7.6-2-13c-1.5-3-2.9-6.2-3.9-9.4c-1-2.9-1.9-5.2-5.2-4.2 c-1.2,0.3-1.4,1.3-2.7,1c-1.4-0.3-2.6-2.9-3.4-3.9c-2.1-2.7-5.2-7.5-9.3-5.9c-2.1,0.8-1.3,1.9-3.6,0.9c-1.8-0.8-3.6-3.2-5-4.6 c-1.5-1.5-3.8-4.5-6-2.6c-1.7,1.5-1.2,5.2-1.5,7.2c-5.8-3-10.7-6.3-16.1-0.6c-0.8,0.8-0.6,1.4-1.6,2.1c-0.9,0.6-2.2,0.5-3.2,1.3 c-1.3,1-2.9,4.4-4.6,4.5c-4.4,0.3,2.1-9.8,2.9-11.4c3.1-6.2,6.5-13.2,11-18.6c4.3-5.3,9.7-10.2,16.8-10.9c8-0.9,17.3-0.5,25,2.1 c5.7,1.9,12.7,4.1,16.6,9C465.1,74.9,465.2,83.7,465.6,91.4L465.6,91.4z M383.6,128.1c1.4-2.4,3.9-5.2,2.3-8.2 c3.5,0.9,3.6,0.8,4.5,4.3c4.5-2.7,6.9-7.9,12.4-9c0.2,3.1-0.2,7,1.6,9.7c2.2,3.4,5.9,1.2,8.3,3.5c0.7,0.7,0.2,2.3,1,3 c1,0.8,2.7,0.5,3.9,0.9c3,1.1,5.5,4.4,8.6,5.3c1.4,0.4,1.4,0,2.7,0c0.7-1,1.4-1,2,0c0.7,0.6,1.3,1.1,2,1.6 c2.8,2.4,3.9,4.3,2.4,7.8c-0.5,1.3-1.7,2.4-1.9,3.8c-0.2,1.2,0.6,2.4,0.2,3.5c-0.5,0.3-1,0.5-1.5,0.8c-0.2,0.7-0.2,1.3-0.1,2 c-0.1,1.5,0.4,2.7,0.1,4.2c-0.8,3.6-4.1,5.5-6.9,7.4c-3.6,2.6-7.8,2.1-12.1,2.9c-8.3,1.5-17.1,1.6-25-1.8c-3.3-1.4-6.8-3-8.5-6.3 c-1.8-3.4-2-8-2-11.8C377.8,143.5,379.8,135.4,383.6,128.1L383.6,128.1z M379.4,96.2c-1.8-0.3-1-3.6,0-4.9V96.2z M374.5,109 c-3.3,2.2-7.5,8.3-0.9,9.6c-4.8,6.2-6.8,15.7-4.1,23.1c1.4,3.9-0.5,4.5-4.2,4.9c-3,0.3-5.4,0.1-7.3-2.6c-5-7-2.2-16.5,0.5-23.7 c2.4-6.5,7.8-17.2,16.2-17.2C381.5,103,378.4,106.3,374.5,109z M566.8,487.6c-0.9-2.3,1-2.8,2.9-3.5c3-1.3,4.3-2.1,6.6,0.5 c3.3,3.8,5.8,8.3,7.2,13.1c1.1,3.8,2.6,9.9,0.4,13.7c-1.1,1.7-2.4,3.2-3.9,4.6c-0.5,0.4-1.7,0.6-2.3,1c-1.1,0.6-1.4,1.7-2.6,2.3 c-1.9-4.9-1-10.7-2.6-15.8C570.8,498.1,568.8,492.9,566.8,487.6L566.8,487.6z M581.8,529c-1.8-3.6,10.5-9.6,12.1-12.7 c1.7-3.2,1.7-7.9,1-11.4c-0.7-3.3-0.9-6.5-2-9.8c-1.2-4.4-3.2-8.5-5.9-12.2c-1.9-2.4-4.9-4.1-1.2-6.1c3.5-1.9,9.5-1.7,13.4-2 c2.6-0.2,8-2,10.4-0.7c2.3,1.3,3.2,5.3,4.1,7.5c1.6,3.6,3.4,7,5.6,10.3c5.2,8.2,11.6,15.7,18.9,22.1c3.6,3.2,7.4,6.2,11.4,8.9 c3.1,2.1,8,3.5,10.4,6.5c0.8,1.1,0.8,2.9,1.8,3.7c0.8,0.6,2.9,0.6,3.9,1.2c2.1,1.2,6.3,4.2,6.8,6.6c0.8-0.3,1.6-0.5,2.4-0.8 c-0.2,1.1,2.8,5.1,3.6,5.9c1.5,1.4,3.3,1,4.9,2.1c1.1,0.8,1.4,2.1,2.4,2.9c1.4,1.1,3.3,1.2,4.7,2.3c1,1,1.9,2.1,2.7,3.3 c2.6,3.2,5.9,5.6,8.7,8.5c4.9,5,8.9,12.6,7,19.9c-0.8,3.1-2.8,5-5.5,6.6c-1.4,0.7-2.7,1.4-3.9,2.3c-1.3,1.1-2,2.9-3.8,3.4 c0.4-2.2-2.4-0.9-3.7-0.7c-2.2,0.2-4.5,0.2-6.7,0.1c-1.3,0-3.5,0.6-4.8,0.4c-1.5-0.3-0.8-0.8-1.8-1.3c-4.2-1.9-9.2-2.2-13.5-3.8 c-4.7-1.8-8.7-4.6-13.1-6.8c-7.6-3.7-16-7.6-22.8-12.7c-4.5-3.4-1.1-7.5,0.7-11.7c0.7-1.7,5.1-10.6,2.3-12c-2.9-1.5-6.3,7.7-7,9.4 c-0.9,2-1.5,4.3-2.6,6.1c-1.4,2.1-4.1,2.3-5.2-0.6c-0.9-2.2,1.5-5.3,2.2-7.4c0.8-2.1,1.4-4.2,1.8-6.3c0.6-2.5,2.9-11-1.6-11.3 c-5.2-0.4-9.2,15.9-10.5,19.1c-1.9-1.2-3.8-2-5.6-3.3c-0.9-0.7-1.4-1.6-2.6-2.1c-3.2-1.4-5.3-0.8-7.7-4c-2.3-3.1-3.7-6.9-5.5-10.3 C586.3,534.8,583.4,532.2,581.8,529L581.8,529z M728.2,593.4c-4.3,5.9-12.1,8.8-19.1,10.2c13.4-7.6,13.1-25.8,7-38.1 c-3.5-7.1-9.9-11.1-16-15.8c-6.8-5.2-13.5-10.6-20.3-15.8c-13.4-10.2-26.8-20.6-39.2-32c-5.8-5.4-11.6-11.3-15.5-18.3 c-3.6-6.7-3.9-15.2-8.7-21.2c8.1,0.9,11,9,15,15.1c4.6,7.2,10,13.9,15.9,20.1c11.8,12.2,25.5,21.9,38.8,32.3 c11.5,9,25.6,15.2,35.4,26.3C729.6,565.4,736.5,582,728.2,593.4L728.2,593.4z M0.9,81.2c-2.8,5.6,1.2,12,5.7,15.6 c5.8,3.5,12.7,4.4,19.1,6c7.5,2.1,15.2,3.4,22.9,4.1c7.9,0.6,15.9,0,23.7,2c-1.6,5.3-3.3,10.5-4.9,15.8c-0.7,2.2-1.2,7.8-3.7,8.2 c-2.2,0.4-5.9-3.7-6.1,1c0,1.5,1.5,3.1,1.9,4.5c0.4,1.8,0.4,3.6,0.2,5.4c-0.2,4.6-0.8,9.4-0.4,14c0.2,1.8,0.7,3.4,1,5.1 c0.4,1.9-0.2,3.9,0.2,5.6c0.4,1.5,1.3,1.9,1.4,3.7c0,1.6-0.8,3.1-0.6,4.8c0.3,3.5,1.4,7,1.8,10.5c0.3,3.2,0.1,7.5,1.4,10.5 c0.5,1.1,1.8,1.8,2.2,2.9c0.5,1.3,0,2.7,0.1,4c0.1,3.5,1.1,6.8,2.9,9.8c0.6,0.7,1.1,1.4,1.6,2.1c0.1,0.3,0.8,2.4,0.9,2.8 c0.1,1,0.2,2,0.5,3c0.1,0.3,1.2,1.9,1.5,2.4c1.3,2.2,1.5,5,2.9,6.9c0.6,0.8,1.4,1.1,2,2c0.2,0.4-0.2,1.3,0,1.7 c0.3,0.5,1.1,0.9,1.4,1.4c1.6,2.8,2.3,6.2,4.2,8.9c1.6,2.1,4.8,3.2,5.7,5.5c0.2,0.5-0.5,1.3-0.2,2c0.4,1.3,1.8,2.8,2.6,3.9 c1.9,2.6,4.9,3.4,6.3,6.2c1.5,3,2.5,5.6,6.6,5c-1,4.2,5.3,6.9,7.8,9.1c1.7,1.5,2.6,3.6,4.3,5.1c2.1,1.8,5.1,2.9,7.4,4.4 c2.4,1.5,5,2.7,7.6,3.7c0.9,0.3,1.7,1.2,2.4,1.5c0.6,0.2,1.2,0,1.7,0.4c2.3,1.5,3.6,3.4,6.5,4.4c2.3,0.7,4.6,1.2,6.8,2.1 c1.8,0.7,3.8,0.6,5.4,1.2c0.8,0.3,1.1,1.1,1.8,1.4c0.4,0.2,1-0.7,1.1-0.7c0.9,0.4,1.5,2.5,2.7,2.6c1.4,0.1,2.3-2.5,3.5-2.1 c1.6,0.5-0.3,1.4-0.1,1.7c0.2,0.4,0.1,0.9,0.6,1.5c0.7,0.9,3.7,1.3,4.8,1.6c2.8,0.6,8.7,2,9.9-1.9c0.8,1.2,1.5,2.4,2.2,3.6 c1.2-0.8,0.7-2.1,0.6-3.2c3.5,3.4,4.3,2.4,8-0.4c0.1,1,0.3,1.9,0.4,2.8c1.7-0.3,1.5-1.6,1.4-2.9c1.4,0.4,1.8,1.2,2.3,2.5 c2.2-2.4,4,0.7,2,1.5c1.9,0.9,2.7-1,4.1-1.6c2.1-1,3.1,0,5,0.2c3.4,0.4,7.4-0.1,10.9-0.1c2.3,0,3.7-0.6,6-1.2 c2.5-0.6,5.1-0.3,7.6-0.8c2.3-0.5,4.2-1.8,6.4-2.2c1.9-0.4,3.8,0.1,5.7-0.4c1.5-0.3,3.5-0.8,4.9-1.1c1.1-0.3,2.1-1.3,3.3-1.5 c1.6-0.3,3.1,0.8,5,0.3c2-0.6,4.1-1.8,6.1-2.6c2.8-1.1,4.5-3,7.4-3.3c3.4-0.3,3.7,0,1.6-3c3.9,1.3,8.4-3.3,11,0.6 c2.5-2.7,7.6-7.9,11.7-5.2c0.4-4.1,6.2-3.2,8.8-4.4c2.2-1,3.8-3,6-4c2-0.9,2.7-1,4-2.8c0.9-1.3,1.2-2.8,2.8-3.3 c1.2-0.4,2,1.2,3.3,0.6c0.6-0.2,0.7-1.1,1.1-1.3c2.7-1.6,5.7-3.8,8.6-5c3.3-1.3,6.9-3.6,10.4-5.5c2.2-1.2,4.2-2.7,6-4.4 c0.9-0.9,2-3,3.2-3.5c4.1-1.6,2,5.2,1.5,7.1c-1.6,5.6-3.1,11.3-4.7,17c-1.4,4.6-2.9,9.3-5.7,13.3c-1.9,2.8-5,7.6-7.9,9.3 c-1.9,1-4.6,1-6.6,1.6c-2.8,0.7-5.5,1.7-8.1,2.8c-4.3,1.8-8.2,4.4-12.4,6.3c-4.4,2-8.9,3.4-12.7,6.6c-3.1,2.6-5.6,5.8-8.5,8.5 c-3.6,3.4-7.9,5.6-11.9,8.4c-3.6,2.7-6.9,5.8-9.8,9.2c-12.9,14.4-23.7,31.5-32.1,49c-9.2,19.1-10.2,38.7-11.1,59.5 c-0.5,10.5,0.2,21.1,1.9,31.5c1.6,10,5.3,18.8,8.3,28.4c1.5,4.8,0.5,8.2,3.8,12c2.9,3.3,4.9,7.2,7.7,10.6 c6.5,7.5,14.1,13.9,22.6,19.1c17.6,10.9,36.4,19.8,56.1,26.5c10.2,3.5,20.6,7.5,31.2,10.1c5.5,1.3,11.3,1.7,16.9,2.3 c1.8,0.2,7,1.5,8.8,0.5c1.3-0.8,5.9-11.3,7-10.6c0.1,0.1-0.7,4.5,0,5.5c1.7,2.4,6.6,3.8,9.2,5c1.8,0.9,6.5,1.8,6.8,4.1 c0,0.5-1.2,5.9-1.8,6.5c-1.7,1.8-4.7,0.1-6.7-0.5c-3.3-1.1-6.7-1.9-10.2-2.4c-7.4-1.2-15-0.5-22,2c-3.2,1.1-6.4,2.3-9.4,3.4 c-2.3,0.8-3.8,3.7-5.8,5.3c-2.6,1.9-4.7,4.3-6.2,7.1c-1,2.1,0,1.6-0.2,2.9c0,0,0,0,0,0c0.6,0.1,1,0.6,0.9,1.2 c-0.3,0.5-0.8,0.7-1.3,0.7c-0.5,0.6-1.5,0.7-2.1,1.5c-1,1.4-0.9,3.9-1.2,5.6c-0.7,3.8-2.2,7.6-1.3,11.6c-3,0-0.6,2.7,0.2,3.7 c1.6,2.2,2.3,2.6,0.4,5.1c3,1.5,2.5,6.3,4.1,8.9c2.2,3.7,5.4,5.6,9.3,7.1c9,3.4,18.6,5.3,28,7c8.7,1.6,17.8,4.5,26.6,5.1 c2.2,0.1,3.9-0.5,6-0.6c2.1,0,4.1,0.7,6.2,0.8c3.5,0.2,5.6-1.3,8.5-1.5c8.3-0.6,16.4-4.3,23.8-8.6c3.9-2.3,7.8-4.7,11.6-7.2 c3-2,6.2-3.2,8.4-6.1c4.8-6.4,8.6-14.7,9.6-22.6c0.7-4.7,1-9.4,0.9-14.1c-0.3-4.8-1.1-9.6,0.6-14.3c2.6,1.8,4,2.9,6.1-0.1 c0.9,2.9,2.7,3.3,3.1,6.9c0.4,5,0.4,10,0.1,15c-0.4,9.5-1.5,18.5-6.2,26.9c-4.5,7.8-10,14.9-16.4,21.1c-6,5.9-15.3,8-23.3,9.1 c-8.8,1.3-17.7,1-26.6,1c-10.5,0-20.7,0.1-31-2.1c-18.7-4-38.2-7.7-54.3-18.9c2.1-1.8,6.8-7.1,4-9.9c-3.2-3.2-6.8,3.3-7.7,5.6 c-3.8,9.6,5.5,14.1,12.8,17.3c10.7,4.7,21.6,8.9,32.7,12.4c11.8,3.5,23.9,5.5,36.2,6.1c12.4,0.7,24.6,2.4,36.9,0.1 c11.1-2.1,22.8-7.6,31.1-15.4c7.5-7,12.1-17.9,16.3-27.1c5.2-11.1,6.8-23.9,6-36c0-1.1-1.2-6.2-0.6-6.9c0.9-1,3.2-0.2,4.4-0.2 c4.4,0.1,9.2-0.4,13.5-0.7c2.8-0.1,5.2-1.8,8.1-2.3c2.2-0.4,3-0.3,5.1-1.4c4.6-2.3,8.7-2.4,12.7-6.1c0.3,0,0,1.2,0,1.2 c-0.7,0.1,2,0,1.1,0c1.1,0,3.7-2.2,4.9-2.7c1.8-0.8,3.7-1.2,5.5-2.1c2.6-1.3,3.5-3.3,5.3-5.5c2.1-2.7,4.8-4.6,6.8-7.4 c4.3-6,8.1-12.5,9.7-19.8c2-8.8,1.4-18,3.5-26.9c0.9,1.9,2.2,3.6,2.6,5.7c0.3,1-0.2,2.7,0.3,3.6c0.6,1,1.6,1.3,2.1,2 c-0.3-0.3-0.2,1.7-0.2,1.8l1.5,0.3c0,1.1-0.1,2.1-0.3,3.2c0.3,2,0.7,1.6,1.4,3.2c0.5,1.3,0.6,2.8,1.2,4c1.2,2.3,4.4,3.8,6.4,5.6 c2.1,2.1,5.1,3,8,2.5c2-0.3,4.5-2.1,5.3,1c0.4,1.6-1,3.7-1.7,5.1c-1.7,3.5-2.6,9.3,3.3,6.2c4.2-2.2,5.1-7.4,9.5-2.5 c4.6,5.1-2.9,9.5-0.6,14.5c2.7,5.7,7-6.3,7.7-8.3c5.5,3.2,10.8,6.8,16.4,9.9c4.1,2.3,8.4,3.8,12.4,6.3c2.7,1.7,3.8,0.9,6.7,1.6 c2.2,0.6,1.9,2,3.3,3.2c1.8,1.5,4.9,2.2,6.5,2.6c5.7,1.5,13.4,4.9,19.9,4.8c4.4-0.1,8.7-0.9,12.9-2.3c3.3-1.2,5.9-3.6,8.9-4.5 c-2.4,4.8,1.2,5,5.3,5.1c4.3,0.2,7.4-1.9,10.8-4.4c7.5-5.5,11.5-12,13.5-21.1c4.5-20.3-7.3-35.8-23.4-46.5 c-4.1-2.7-8-5.8-12.3-8.2c-3.2-1.8-5.2-4.1-8-6.6c-6.6-5.8-14.2-10.6-21-16.3c-13.9-11.5-26.2-24.9-36.5-39.7 c-3.8-5.4-8.7-13.1-15.9-13.6c-3.9-0.4-7.8,0.9-10.7,3.6c-2.7,2.7-4.3,5.5-8,7c-4.2,1.7-9.1,1.9-13.5,3.1c-4,1-8,2.3-11.9,3.9 c-3.6,1.4-7.1,3-10.5,4.8c-2.2,1.3-5.1,3.2-7.4,1.1c-2.6-2.4-1.7-5.9-5.8-7.3c-3.9-1.3-4.8,1.1-7.6,2.5c-1.7,0.9-3.6,1-5.3,1.9 c-1.7,0.9-3.6,1.7-5.5,2.2c-1.8,0.4-3.8,1.1-5.6,1.5c-1.2,0.1-2.4,0.2-3.6,0.1c-1.8,0-2.4,0.9-4.3,1.6c-1.7,0.7-3.9,0.7-5.7,1 c-4.4,0.7-8.8,1.4-13.2,1.9c-9,1-17.3,0.6-25.6-3.3c-6.3-3-14.6-6.9-18.5-12.9s-4.6-14.2-3.5-21.1c1.3-8,5.5-15.3,10.5-21.6 c2.7-3.4,6-5.6,9.3-8.4c2.1-1.7,4.7-2.5,6.4-4.5c2.5,4.2,24.9-24.1,25.7-25c11.6-13.3,17.4-33.8,19-51c0.5-5,0.2-9.8,0.2-14.8 c0-4.2,1.5-5,5.2-7c2.8-1.5,6-1.8,7.9-4.6c2.1-3,2.4-7.2,2.5-10.7c0.2-5.3-0.9-10.4-0.9-15.7c0-5,0.3-9.9-0.1-14.8 c-0.7-9.6-3.3-19-5.6-28.4s-4.6-18.8-7.4-28.1c-1.3-4.5-3.3-8.6-5.1-12.9c-1.2-2.9-2-6.3-4.8-8.1c2.2-2.7,14,1.9,16.8,2.6 c9.3,2.1,18.5,4.8,27.4,8.3c3.8,1.6,7.6,3.4,11.2,5.4c3,1.4,7.7,2.7,9.7,5.5c1.8,2.6,0.3,6.3-0.2,9.2c-0.7,4.6-1.3,9.2-1.9,13.8 c-0.9,6.9-0.8,13.8-4.5,19.9c-4.1,6.9-8.5,13.6-13.2,20.1c-9.1,12.4-13.1,26.7-19.7,40.4c-2.4,5.1-5.9,11.3-0.2,15.4 c5.4,3.9,12.5,4.4,18,8.4c12.2,9,27.1,13.1,40.8,19c6.6,2.9,12.9,6.2,19.6,8.9c3.7,1.5,6.9,3.7,10.8,4.9c3.2,1,6.3,1.6,9.3,3.1 c6.6,3.3,13.1,7,19.8,10.1c3.5,1.4,7,3.1,10.3,4.9c2.2,1.3,4.6,4.3,7.2,3.6c2.9-0.8,6-5.9,7.7-8.2c2-2.7,5.2-5.4,5.7-8.8 c0.3-2.3-0.5-4.2,1.9-5.2c0.7-0.2,2.1,0,3.1-0.4c1.6-0.8,3.1-1.7,4.6-2.8c6.7-4,10.1-7.7,11.2-15.7c1.1-8.3-0.3-16.4-1.8-24.6 c3.8,3.2,7,6.8,10.6,10.2c1.5,1.4,1.7,3.1,2.9,4.6c1.1,1.4,2.7,1.7,4,2.7c0.7,0.5,1.3,1.1,1.7,1.8c0.4,0.5-0.3,1.3,0.3,1.7 c0.5,0.3,1.4-0.6,2.4-0.3c2.3,0.6,4.7,5.6,6.1,6.9c1.1,1.1,3.2,1.9,5,4.1c2.6,3.2,5.3,5,8.6,7.3c3.1,2.2,5.5,4.8,8.6,6.7 c3.1,1.8,6.3,3.9,9.6,5.7c1.1,0.7,1.7,1.4,3,1.7c0.2,0,0.5-1,0.6-1c0.6,0.2,0.5,0.4,1.2,0.8c0.6,0.3,1,1.4,1.9,1.8 c1.6,0.5,3.2,0.7,4.8,0.7c2.8,0,2.7-0.7,4.4-2.3c0.4-0.4,0.8-0.8,1.1-1.3c0.1-0.1,0.7,0.2,0.8,0.1c1.9-2.8,0.8-8.6,0.2-11.7 c-1.7-8.5-7.2-13.8-11.5-20.9c-1.5-2.4,0-5,2.4-3.3c-0.6-0.4,0.1,1.7,0.1,1.7c0.7,0.8,2.8,0.9,3.7,1.2c1,0.3,1.1-0.4,1.8,0.1 c1.4,0.9,1.6,2,3.4,2.8c3.1,1.4,5.8,3.2,8.8,4.7c1.1,0.6,15.4,6.7,15,3.6c1.6,1,0.9,2.4,2.3,3.3c1.1,0.8,4.5,0.2,5.6-0.5 c4.3-2.8-0.2-8.7-2-11.6c-7.3-11.8-17.1-21.2-27.1-30.7c-10.7-10.3-22-20.1-31.4-31.6c-4.1-5-7.5-10.7-9.9-16.7 c-1-2.5-3.7-6.6-3.5-9.2c0.2-2.1,1.5-2,3.4-3.2c2.8-1.7,8.9-4.2,8.4-7.9c-0.6-4.6-6.1-8.5-9.1-11.5c-4.4-4.3-7.7-9.6-11.7-14.3 c-4.3-5-8.9-9.7-13.6-14.3c-9.6-9.1-19.6-17.7-30.1-25.7c-10.5-8.1-21.8-14.3-33.4-20.6c-11.7-6.4-23.2-12.8-35.6-17.7 c-5.5-2.1-12.1-3.9-17.3-6.9c-3.9-2.3-1.8-6.8-1.2-10.4c4.4-24.8,0.7-50.9-15.7-70.6c-6.2-7.5-16.3-17.2-27-16.2 c-7.8,0.7-8.9,9.3-8.9,15.6c0.1,10.4,1.6,20.9,2.3,31.3c0.5,6.5,3.6,26-6.6,27.7c-4.7,0.8-8.2-4-10.9-7.1 c-3.8-4.3-7.4-8.9-11.4-13.1c-6.2-6.5-18.4-18.1-28.5-14c-9.6,3.9-14.1,18.6-14,28c0,3.7,3.1,9.4-0.7,11.6c-1.7,1-4.3,0.9-6.2,1.3 c-3.1,0.6-6.1,1.6-9.2,2.4c5.1-19.6,7.9-42.7-4.1-60.5c-4.9-7.3-11.4-11.3-19.4-14.4c-7.6-2.9-18.5-5.3-26.6-3.6 c-1.2,0.2-1,0.8-2.5,0.9c-0.7,0-1.4-0.4-2-0.4c-1.9-0.1-3.9,0.2-5.7,0.9c-3.8,1.5-7.2,3.9-9.9,6.9c-1.7,1.8-3.1,3.9-4.3,6.1 c-0.7,1.3-1.1,3.4-1.9,4.5c-0.4,0.6-1.4,1-2.2,1.8c-1.4,1.5-2.3,4.2-3.3,6c-2.7,4.4-5.2,9-7.4,13.7c-0.5,1.1-1.1,2.2-1.8,3.2 c-0.5,1.1-0.3,3.1-1.1,4.1c-1.8,2.2-6.6,0.2-9.1,0.5c-4.2,0.5-7.2,3-9.7,6.2c-5.5,7.1-7.8,14.8-9,23.5c-0.6,4.5-1.3,9.4-0.3,13.9 c0.9,4.3,3.4,8,5.4,11.9c-12.6,0.5-24.8,0-36.6,4.9c-10.5,4.3-20.7,9.8-29,17.7c-4.2,4.1-7.9,8.6-12.7,12 c-4.7,3.3-9.6,6.1-14.1,9.8c-8.4,7-19.6,12.9-29.8,16.7c-10.8,4-21.9,6.7-33.3,8.2c-9.8,1.3-21.9,1.9-31.4-1.8 c-4.9-1.9-7.3-6.6-9.4-11.2c-2.3-5-4.7-10-6.8-15s-4.4-10.6-4.9-16.1s2.1-10.4,3.5-15.6s1.7-10.5,2.8-15.7c1-4.9,1.4-6.4-2-10 c-3.6-3.8-0.3-5.9,3.2-7.9c4.2-2.4,8.3-4.9,13-6.4c10.8-3.5,21.7-6.6,32.5-10.5c3.9-1.4,10.4-3,11.8-7.5c0.7-2.2-0.3-4.5,0.3-6.7 c0.4-1.5,2.2-2.8,2-4.3c-0.4-3.4-7.4-6.6-10.2-6.9c-4.8-0.6-9.9-0.5-14.8-0.7c-6-0.2-12.1,0.3-18,1.7c-2.5,0.6-8.7,3.7-11.2,2.6 c-2.3-1.1-3.4-8.1-4.7-10.4c-2.4-4.4-5.8-8-9-11.8c-6.8-8.1-13-16.2-21.6-22.6c-8-6-17-10.4-26.2-14.2c-9.1-3.7-18.5-7.7-27.9-9.9 c-2.1-0.5-3.9-2.1-5.9-2.2c-0.7-0.1-1.1,0.8-1.7,0.7c-0.5-0.1-1-0.8-1.3-0.8c-2.7-0.2-6.5-1.2-8.9,1.3c-2.1,2.2-0.2,3.7-0.7,6.1 c-0.3,1.2-1.3,1.9-1.5,3.4c-0.5,3.8,3.9,3.8,2.6,8.4l2.4-2.7c1.2,1.8,2.2,3.7,3.1,5.7l1.6-3.4c1,2.2,2.8,3.6,4.1,5.4 c-10.4-0.8-21.4-2.4-31.7-0.3c-3.3,0.7-6.9,1.8-7.7,5.5c-0.9,3.9,0.6,8.8,2.9,11.9c1.5,2.1,8.1,4.8,7.9,7.5 c-0.3,3.3-6.7,2.6-8.9,2.9c-5,0.6-9.2,2.9-13.7,4.8C8,74.5,3.4,76.3,0.9,81.2L0.9,81.2z"></path> <path id="ink-3" class="st1" d="M753.8,182.9c3.6,1.8,6.4,1.3,5.5-3.4c-0.7-3.8-4.1-7-6.7-9.7c-7.1-7.3-14.9-13.9-23.2-19.8 c-14.1-10.2-29.8-18.9-46.5-23.9c-7.9-2.4-16.1-3.4-23.8-6.1c-2.3-0.8-5.6-2.4-6.5,1c-0.8,2.9,2,4.6,4.2,5.6 c16.2,7.8,33.9,11.5,49.7,20.3c15,8.4,30,18.5,42.7,30.1C751.5,179.1,750.7,181.3,753.8,182.9"></path> <path id="ink-4" class="st1" d="M705.5,485.8c0,3,3.9,3.7,6,4.5c18.1,6.8,33.2,16.2,45.8,31c5.7,6.7,11.3,13.4,15.5,21.1 c0.8,1.5,2.2,5.6,4.4,4.2c3.3-2.1-0.9-9.2-1.9-11.4c-7.8-16.8-19.9-32-35.8-42c-8.5-5.4-17.2-7.2-26.9-9.5 C710.2,483.1,705.6,481.5,705.5,485.8"></path> <path id="ink-5" class="st1" d="M169.6,381.2c-3.8,7.5-5.6,15.8-6.9,24.1c-1.5,8.8-1.5,17.7,0.1,26.5c0.4,2.5,2.5,15.2,7,12.8 c2-1.1,1.6-5,1.3-6.8c-0.6-4.5-1.9-8.5-1.9-13.1c0-8.8,0.5-17.9,2.9-26.4c2.3-8,6.2-16.6,12.5-22.4c2.4-2.3,5.7-3.9,6.7-7.3 c1.2-4.3-1.2-6.8-5.4-5.3C178.4,366.1,173,374.5,169.6,381.2"></path> <path id="ink-6" class="st1" d="M182.4,56.9c2.2,2.9,3.9-1.4,4.5-3.1c0.7-2.9,0.9-5.9,0.3-8.9c-1-5.7-3.9-10.9-7-15.7 c-6.6-10.3-14.6-19.5-23.8-27.5c-1.6-1.4-3.7-3.1-4.7,0.3c-0.6,2.1,1.8,4.6,3.2,6.3c4,5.1,8.7,9.7,12.5,15.1 c3.7,5.2,7.2,10.7,10.3,16.3c1.4,2.6,3.1,5.5,3.7,8.5C181.9,51,180.6,54.4,182.4,56.9"></path> <path id="ink-7" class="st1" d="M747.6,472.8c2.1,0.2,9.2,2.9,7.8-1c-0.7-1.9-3.1-2.7-4.7-3.3c-4.9-1.7-10.4-1.7-15.5-1.7 c-1.8,0-3.6,0.1-5.3,0c-1.7-0.1-4.2-1.1-5.7-0.9c-2.6,0.4-3.9,2.8-0.8,4.5c3.2,1.6,7,1.4,10.4,1.6 C738.4,472.2,743,472.4,747.6,472.8"></path> <path id="ink-8" class="st1" d="M707.3,112.9c6.8-5.4-17.1-10-19.6-10c-7.4-0.2-6.4,4.7-0.1,5.9 C694.2,110.1,700.6,112.1,707.3,112.9"></path> <path id="ink-9" class="st1" d="M155.9,360c-7.2,1.8-9.1,15.8-8.1,21.6c0.3,2.1,0.5,3.2,2.3,1.5c1.9-1.7,1.5-6.7,1.9-8.9 c0.7-3.8,2.1-6,4.7-8.8C158.1,363.9,160.4,358.9,155.9,360"></path> <path id="ink-10" class="st1" d="M205.1,45.3c2.5,2.6,3.2-5,3.3-6.3c0.3-3.5-0.2-8.7-2.1-11.8c-0.6-0.9-2.5-3.3-3.6-1.9 c-0.8,1,0.7,4.4,1,5.3c0.6,1.9,1.1,3.8,1.3,5.8C205.2,38.1,203.8,44,205.1,45.3"></path> <path id="ink-11" class="st1" d="M469.1,539c0.2,3.7-3.5,5.5-5.7,7.8c-2.7,2.8-5.9,6.9-5.8,11.1c0.1,5.3,3.4,4.2,6.8,2.6 c3.5-1.5,6.7-3.6,9.5-6.2c2.4-1.9,3.8-2.3,6.2-0.3c3.3,2.8,8.9,11,11.5,2.2c1.4-4.7-2.2-7.1-3.2-11.3c-0.9-3.5,1.8-5.5,3.3-8.3 c1.4-2.7,3.8-10.6-0.8-11.6c-5.3-1.2-7.5,8.6-12.9,7.6c-2.7-0.5-4.3-4.2-6.3-5.8c-3.3-2.6-6-0.9-6,3.1 C465.7,533.4,468.9,535.7,469.1,539"></path> <path id="ink-12" class="st1" d="M528.9,525.8c-5.9,6.3,8,12.1,5.4,17.3c-2,3.8-13.2,12.4-8.5,17.5c3.9,4.3,11.9-4.3,14.8-6.6 c5.8-4.7,7.5,6.8,12.2,3.4c5.5-4-2.4-12.3-1.7-16.4c0.4-2.7,3-4.9,3.9-7.5c0.9-2.5,1.1-7.8-2.6-8.1c-4.8-0.3-6,10.1-11.2,8.2 C537.9,532.4,532.9,521.5,528.9,525.8"></path> <path id="ink-13" class="st1" d="M432.2,378c-2.5,1-1.7,5.5-0.7,7.4c2,3,5.8,3.8,9.1,3.8c2.6,0,6.1-1.3,8.6-0.6 c2.9,0.8,2.4,3,2.1,5.7c-0.2,2.6-2,11.6,2.5,11.7c3.3,0.1,4.4-6.3,4.9-8.6c0.8-3.6-0.1-9.7,3.7-11.1c2.5-0.8,6,0.6,7.7-2.2 c1.1-1.9,0.1-4.5-1.3-5.9c-1.9-2-4.4-1.6-6.8-2.4c-3.2-1.1-3.6-3.5-4.1-6.7c-0.3-2.2-0.2-7.1-2.9-8c-2.3-0.7-2.8,1.4-3.3,3.1 c-0.9,3.1,0.7,8.3-1.4,10.9c-2,2.5-7,1.8-9.9,2.3c-1.3,0.2-2.7,0.8-4,0.9C435.2,378.3,433.3,377.5,432.2,378"></path> <path id="ink-14" class="st1" d="M268.2,488.3c4.2-0.3,12.1-3.4,6.2-8.7c-4.5-4.1-10.1,0.9-11.1-7.3c-0.3-1.9-0.5-12.1-4.1-11.3 c-1.9,0.4-2.5,5.9-2.5,7.4c-0.1,4.2,1.5,7.8-3.9,8.7c-4,0.6-9.8-0.6-13.2,2c-4.8,3.6-0.4,7.7,3.6,8.6c4.7,1,12.4-1.3,12.4,5 c0,2.6,0.6,11.7,5.1,8.4C265.4,497.7,261.1,488.9,268.2,488.3"></path> <path id="ink-15" class="st1" d="M605.6,335.8c-4.4-3.6-7.8-8.2-7.2-14.2c0.6-5.7,5.2-10.6,9.1-14.5c4.6-4.5,10.4-8,16.9-7.4 c4.6,0.4,11.5,1.5,15.2,4.6c4.4,3.6,6,9.7,6.3,15.1c0.4,6.1-2.2,10.3-6.5,14.4C629.3,343.6,616.7,344.9,605.6,335.8 M603.9,299.7 c-5.4,5.2-11.1,12.1-10.3,20c0.7,7.9,4.7,15.1,11.1,19.8c12.3,9.4,27.7,10.6,39.4-0.7c11.1-10.8,9.1-29.2-2.4-39 C631.5,291.1,613.8,290.1,603.9,299.7"></path> <path id="ink-16" class="st1" d="M411.7,134.9c-4.1,2.5-7.6,13.3-3,17.2c5.1,4.2,13.2-8.6,11.6-13.1c-3.4,1.6-5.3,5.1-8.5,7.1 C412,142.4,412.8,138.5,411.7,134.9"></path> <path id="ink-17" class="st1" d="M395.1,157c-2.7-1-6.2-2.5-6.6,1.7c-0.3,3.9,3.6,6.2,7.1,6.3c2.9,0,9.4-1.5,8.9-5.5 c-0.3-1.9-0.5-1-2.1-1.3C399.9,157.7,397.6,157.9,395.1,157"></path> <path id="ink-18" class="st1" d="M393.1,140.2c-3.3,3-10.4,9-3.9,12.8c1.9,1.2,5.9,1.6,6.8-1.1c1-2.9-2.6-3.3-4.5-4 c2.5-2.7,5.7-5.5,7.3-8.8c0.4-0.9,1.5-2.7,0-3.2C396.9,135.3,394.2,139.2,393.1,140.2"></path> <path id="ink-19" class="st1" d="M386.5,133.9c0.3-1.3,2.3-5.7-0.7-5c-1.5,0.3-2.1,3.9-2.4,5c-0.5,2.1-2,8.7,1.1,9.8 c4.5,1.6,12.2-12.5,7.8-14.3l-5.5,9.8C385.8,137.5,386.1,135.7,386.5,133.9"></path> <path id="ink-20" class="st1" d="M611.4,331.1c-2.3,1.7,0.7,5.3,1.9,6.8c2.4-2.8,2.9-2.7,6.2-1.6c2.8,0.9,5.8,1.8,7.7-1.1 c1.5-2.3,0.5-4.9,3.3-6.1c2-0.9,4.6,0.6,6.5-1.5c1.3-1.5,1.2-3.7,1.1-5.6c-0.1-1-0.7-2.4-0.4-3.4c0.3-1.2,1.5-1.8,1.8-2.8 c1.2-3.9-4.9-3-7.2-1.9c3.4-5.5-4.7-4.6-6.6-7.3c-0.6-0.9-0.5-4-2.6-3.7c-1.3,0.1-1.2,2.4-2,3.1c-0.9,0.8-3.5,0.5-4.1,1.5 c-1,1.7,1.6,2.4,2.5,3.4c2.3,2.5,1.1,6,3.3,8.8c1.7-1.8,1.6-5.3,3.4-6.5c1-0.7,5.3-0.3,6,0.7c-1.7,0.8-4.4,2.5-2.5,4.5 c1.5,1.7,4.2-0.3,4.9,2.4c1.1,4.4-6.2,3.3-8,4.4c-3.3,2.1-0.4,8.4-5.8,8.4C618.1,333.6,613.9,329.2,611.4,331.1"></path> <path id="ink-21" class="st1" d="M607,319.7c-1.2,0.2-4.9-1.1-4.5,1.1c0.5,1.8,5,1.2,6.1,2.5c1.1,1.3,0.5,5.3,2.7,5.6 c2.3,0.3,1.4-3.7,1.4-5.1c1.6,0.4,3.3,0.3,4.8-0.5c-0.5-0.8-0.7-1.9-1.5-2.4c-0.9-0.6-2-0.1-2.9-1c-1.3-1.3-0.1-3.8-1.3-5.1 C608.6,311.4,609.6,319.2,607,319.7"></path> </g> </g> </svg> 