<?xml version="1.0" encoding="UTF-8"?> <!-- Generator: Adobe Illustrator 24.1.1, SVG Export Plug-In . SVG Version: 6.00 Build 0) --> <svg xmlns="http://www.w3.org/2000/svg" xmlns:xlink="http://www.w3.org/1999/xlink" id="Layer_1" x="0px" y="0px" viewBox="0 0 924.8 692.4" style="enable-background:new 0 0 924.8 692.4;" xml:space="preserve"> <style type="text/css"> .st0{fill-rule:evenodd;clip-rule:evenodd;fill:#F44A4A;} .st1{fill-rule:evenodd;clip-rule:evenodd;fill:#FFFFFF;} </style> <g id="Illustrations_roller-skating"> <path id="Accent" class="st0" d="M387.9,271c-10.6,0.7-21.3,0.4-32,0.1c-1,0-3.6-0.5-4.2,0.1c-0.7,0.7-0.6,4.7-0.7,5.7 c-0.9,7.5-1.8,14.9-2.8,22.4c-0.4,3.4-0.8,6.8-1.3,10.3c-0.1,1-1.3,5.2-0.7,6c1,1.5,8.4,1.9,10.4,2.3l23.3,4.5 c2.2,0.4,7.8,0.5,8.8,2.3c0.6,1.1,0.3,4.1,0.3,5.3l0.6,10.3c0.8,13.5,1.7,26.9,2.5,40.4c16.5-1.3,32.9-2.6,49.4-4c4-0.3,8-0.6,12-1 c1-0.1,3,0.1,3.7-0.4c1.7-1.2,3.1-6.1,4.1-7.8c2.3-4.5,4.7-9,7-13.5c2.3-4.3,4.5-8.7,6.8-13c0.6-1.1,2-3,2-4.2c0-1.4-2.1-3.8-2.7-5 c-1.9-3.4-3.7-6.9-5.6-10.3c-9.3-17-18.5-34-27.8-51c-0.5-0.9-1.5-4-2.4-4.5c-1.8-0.9-8,0.9-10,1.2 C415.1,268.5,401.5,270.2,387.9,271"></path> <g id="Ink"> <path id="ink-shape" class="st1" d="M231.1,241.8l9.9,11.7c8.7-10.8,17.4-21.5,26.1-32.3c-4.4-2-8.7-3.9-13.1-5.9 c-3.9-1.7-3.4-0.9-5.8,2.5C242.5,225.9,236.8,233.9,231.1,241.8"></path> <path id="ink-shape-2" class="st1" d="M399.2,495.5v17c17.3-0.9,34.7-1.7,52-2.6c-0.8-2.4-1.6-4.8-2.4-7.1 c-0.6-1.9-1.4-7.5-2.9-8.7c-1.6-1.4-8.8,0-11,0.1C423,494.7,411.1,495.1,399.2,495.5"></path> <path id="ink-shape-3" class="st1" d="M357.9,66.5c-20.2,12.8-40.5,25.6-60.7,38.4c4.5,5.2,8.9,10.5,13.4,15.7 c1.1,1.3,1.3,2,2.5,1.9c1.4-0.1,3.8-2.4,5-3.1c14.4-8.9,28.7-17.9,43.1-26.8c4.3-2.7,8.7-5.4,13-8.1 C368.7,78.5,363.3,72.5,357.9,66.5"></path> <path id="ink-shape-4" class="st1" d="M828.4,266.5c-0.7-5.9-3.7-12-5.9-17.5c-2.6-6.5-5.3-12.9-8.1-19.3c-1.8-4.1-2.4-3.1-7-2.9 c-5.4,0.2-10.8,0.4-16.2,0.6c4.2,15.1,8.3,30.2,12.5,45.2c0.7,2.6,1.9,12.4,4.1,13.7c0.8,0.5,3.5-0.1,4.4-0.2 c2.5-0.1,5.1-0.2,7.6-0.3c3.5-0.1,6.9-0.3,10.4-0.4C829.6,279.1,829.1,272.8,828.4,266.5"></path> <path id="ink-shape-5" class="st1" d="M485.8,648.3c-9.3-2.3-19.4-0.1-28.7-0.1c-5.5,0-11-0.3-16.5,0c-1.8,0.1-10.3-0.1-10.6,1 c-0.2,0.9,1.5,3,2.1,3.4c1.8,1,3.1-0.3,4.9-0.8c5-1.3,10.8-0.5,15.9-0.7c5.4-0.3,10.7-0.6,16.1-0.8 C474.3,649.9,481.1,651,485.8,648.3 M31.1,167.2c-0.7-1.6-1-4.2-2.6-5.2c-1.5-0.9-4.7-0.3-6.4-0.3c-3.7-0.1-11.8,0.1-14.2,3.5 c-3,4.1,5.7,7.1,8.6,7C21.4,172,26,168.1,31.1,167.2 M123.8,115.5c0.4-1-1-1.7-1.9-2.1c-2.5-0.8-4.1,0.6-6.3,1.6 c-5.5,2.7-11.5,4.4-17.3,6.4c-5,1.7-9.7,4-14.7,5.9c-3.5,1.3-10.9,1.1-12.9,4.5c-4,6.7,6.5,1.7,8.3,1c5.3-1.9,10.9-3,16.1-5.1 c5-2,10.1-4.1,15-6.3c2.2-1,4.5-1.9,6.8-2.8C118.9,117.8,121.5,115.7,123.8,115.5 M274.3,231.4c-1.3-0.8-6.7-5.3-8.5-4.7 c-1.4,0.5-3,5.6-3.9,7c-4.4,6.8-9.2,13.3-13.9,19.9c2.1,1.1,4.2,2.3,6.3,3.4C258.6,246.8,266.9,239.2,274.3,231.4 M356,267.7 c6.8,0,13.5-0.8,20.2-0.7c7.6,0.1,15,0.3,22.6-0.3c7.4-0.6,14.8-0.6,22.3-1.1c2.3-0.1,15.4-1.1,7.7-4.9c-2.6-1.3-5.7,0.3-8.4,0.9 c-3.2,0.7-6.5,0.9-9.8,1.3c-3.1,0.4-6.4,1.4-9.6,1.3c-3.3-0.1-5.8-0.7-9.1-0.2c-6.9,1-13.7,0.4-20.6-0.2 C366.7,263.3,356.3,260.7,356,267.7 M539.9,652.5c4.4-3.5,11.2-2,16.4-3.1c5.7-1.2,1.2-7.3-1-10.5c-2.3-3.4-5.7-10.1-9.6-5.1 C541.8,638.9,541.3,646.3,539.9,652.5 M403,500.1c-0.1,3.2-1.7,6.4,1.6,7.5c3.1,1,8.5-0.5,11.8-0.8c4.3-0.4,8.4-1.1,12.7-1.5 c1.9-0.2,3.8-0.3,5.7-0.2c1.3,0.1,4.5,1.5,5.6,1c1.4-0.7,2.1-4.6,1-6.1c-1.3-1.6-9,0-11.7,0.2C420.7,500.7,411.9,499.7,403,500.1 M402.5,489.9c4.1-1.7,9-0.9,13.4-0.9c5.1,0,10.2,0.3,15.3,0.6c2.3,0.1,8.8,1.8,10.7,0.4c1-0.8,1.4-7.3,0.5-8.3 c-1.4-1.6-5.7,0.3-7.5,0.6c-4.8,0.6-9.6,0.8-14.4,0.6c-4.5,0-9-0.2-13.5-0.2C401.8,482.7,402.5,485.4,402.5,489.9 M260.5,223.1 c-1.7-1-7.2-5.5-9.3-4.8c-1.8,0.6-3.6,5.9-4.7,7.6c-2,3.2-4.1,6.4-6.2,9.5c-1.3,2-4.9,5.7-4.3,8.4c0.3,1.5,3.3,4,4.8,3.5 s4.1-6.2,4.9-7.3C250.3,234.1,256.1,229.5,260.5,223.1 M797.2,229.7c5.9,11.6,6.7,24.7,9.9,37.1c0.7,2.9,1.9,5.7,2.5,8.7 c0.4,1.6-0.3,4.4,0.6,5.8c2.3,3.5,12.8,2.4,15-0.7c1.3-1.8,0.3-3.6-0.3-5.5c-0.8-2.5-0.4-4.7-0.8-7.2c-0.9-5-5.4-10.1-7.5-14.7 c-2.3-5.1-3.4-11.1-6.8-15.6C807.5,234.5,801.3,228.3,797.2,229.7 M412,681.3c7.9-1,20.3-3.4,19.9-14s-14.3-12.4-22-13.4 c-2.3-0.3-2.5-0.4-4.8,1c-1.6,0.9-3.1,1.9-4.6,3c-2.9,2.1-6.1,5-6.7,8.8C392.3,676.2,405.1,680.5,412,681.3 M366.9,81.6 c3.6,0.4-1.2-3.1-2.1-3.5c-2.7-1.3-5.8-1-8.7-0.6c-7,1.2-13.3,7.1-19.3,10.8c-6.4,3.9-12.7,8.3-19.3,11.6 c-2.9,1.3-5.7,3.1-8.1,5.2c-1.3,1.2-1.7,2-3.5,2c-1,0-3.1-2.2-4.1-0.9c-2.9,3.6,11.5,4.8,13,4.5c7.5-1.2,14-4.1,20.4-7.9 c6.6-3.9,13.5-7.1,20.1-11c2.9-1.7,5.3-3.9,7.9-5.8c0.4-0.3,1-1.2,1.4-1.6c0.6,0.2,1.2,0,1.5-0.5 C366.4,83.1,366.6,82.3,366.9,81.6 M511.8,648.4c-7.3,2.6-19.2,4.6-22.6,13.2c-3.9,9.7,13.5,16.6,20.4,17.1 c7.2,0.6,19.9-2.4,20.9-11.3c0.6-5.1-3.5-8.4-7.3-11C519.3,653.8,513.7,653.2,511.8,648.4 M45.5,109c-5.2,0.6-8.7,1.1-12.8,4.4 c-3.4,2.8-6.2,5.6-7.6,9.9c-3.2,9.9,4.7,18.4,14.9,17.2c1.1-0.2,2.3-0.4,3.4-0.4c1,0.1,1.8,0.9,2.7,1c2.1,0.4,2.5,0,4.2-1.6 c3.5-3.3,7-7,8.9-11.4C63.8,117.3,56.8,109.2,45.5,109 M162.6,88.4c0.5-11.1-16.5-13-24.3-12.1c-8.9,1-23.4,10-20.1,21 c3,9.7,19.8,9,27,7c1.6-0.4,4-1.3,5.5-1c2.3,0.5,2.4,2.4,4.6,0.6c1.4-1.1,2.6-4.2,3.5-5.7C160.7,95.2,162,91.9,162.6,88.4 M401,545.9c-0.2,2.4-1.1,5.5,1.4,6.6c1.6,0.7,6-0.1,7.6,0c6.7,0.2,13.5-0.3,20.1,0.2c2,0.2,7.8,2.1,9.5,0.8s0.4-5.4,0.3-7.2 c-0.5-7.4,0.5-14.7,0.9-22c0.1-2,0.9-6.8-0.6-8.3c-1.9-1.8-6-0.8-8.2-0.5c-6.9,0.7-14,1.7-20.9,1.7c-1.9,0-6.1-1.3-7.8-0.6 c-2.5,1.1-1.9,4.9-2.1,7.3C400.7,531.2,400.7,538.6,401,545.9 M246.1,213.2c-9-6.7-18.4-13-27.4-19.5c-3.2-2.3-5.6-5.6-8.6-7.9 c-1.9-1.4-2.5-2-5-0.7c-3,1.6-5.8,4.1-8.5,6c-2.3,1.6-4.6,3.3-7,4.9c-2.1,1.5-2.9,1.9-1.3,4.4c2.7,4.4,8.2,8.5,11.9,12.1 c9,9,17.7,18.4,27.8,26.2C231.3,228.7,238.5,220.5,246.1,213.2 M347.3,57.3c-15.7-6.2-16.9-27.2-22.4-40.5 c-1.7,9.2,2.8,24-4.8,31.2c-4.7,4.4-7.4-1.8-9.9-5.2c-3.8-5.2-7.9-10.1-11.6-15.4c1.1,6.4,4.3,13.6,3.7,20.1 c-0.5,5.1-3.7,12.1-8.5,6.3c-3.5-4-7.2-7.7-11.2-11.2c-4.6-4.2-9.8-7-14.8-10.6c1.9,9.4,5.6,18.3,11,26.2 c2.8,4.2,5.8,8.1,8.4,12.4c2.1,3.5,3.2,7.8,6,10.8c2.7,2.8,6.5,5,9.7,7.1c4.5,3,5.6,2.2,9.8-0.7c8-5.6,16.8-10,24.9-15.5 c-1.5-2-3.9-3.9-3.8-6.6c0.1-2.2,1.7-4.2,4-3.9c1.8,0.2,2.6,2,4.5,1.4C344.1,62.5,346.3,58.5,347.3,57.3 M887.2,224.3 c-7.3,0.9-14,3.4-21.5,3c-3-0.2-5.3,0.4-6.6-2.7c-1.1-2.4,0-6.1-3.3-6.7c-2.5-0.5-5.5,1.8-7.3,3.1c-3.1,2.3-6.4,4.4-9.9,6 c-6.6,2.9-13.2,5.4-20.4,5.8c1.7,5.3,3.7,10.5,6,15.6c2.3,4.8,4.6,8.9,5.3,14.2c0.3,2.3,0.3,4.8,2.5,5.8s6.1,0.2,8.5,0.2 c5.5,0.1,10.9,0.2,16.4,0.2c4.2,0,8.3,1,12.4,0.9c5-0.1,10.7-2.3,15.7-3.3c9.3-2,22.3-3.2,29.8-9.5c-6.9-1.1-13.9-0.3-20.6,1.1 c-3.1,0.7-10.2,4.2-12.2,0.7c-2.5-4.2,2.4-10,5.8-12c3.8-2.2,9.6-2,12.3-6c-5.1,0.4-10.5,0.6-15.5,2.1c-3.8,1.2-8.7,4.4-10.2-1.3 C871.8,232.4,880.9,228.1,887.2,224.3 M345,303.2c1.3-12.2,3.6-24.5,3.8-36.8c0.1-5.3-5.9-4.4-10.1-5.9 c-6.1-2.2-12.1-4.8-18.1-7.3s-12-4.8-18-7.3c-5.4-2.2-10.7-5.5-16.1-7.4c-3-1.1-3.2,0-4.9,2.7s-3.5,5.3-5.3,7.8 c-3.8,5.4-8,10.6-12.2,15.7c12.7,7.6,25.9,14.7,39,21.6C316.5,293.5,331,297.8,345,303.2 M615.7,257c6.7,0,13.2-0.9,19.9-1.2 c6.6-0.2,13,0.1,19.5,0.3c6.3,0.2,12.4,1.4,18.7,1.7c1.5,0.1,3.1,0.1,4.6,0.2c1.5,0.2,2.4,0.7,3.8,1c3.5,0.6,6.9-0.2,10.4-0.1 c12.9,0.7,25.7,3.3,38.6,4c13.3,0.7,26.3,1.7,39.5,3.3c7,0.8,14,1.3,21,1.8c1.4,0.1,4.5,1,5.3-0.6c1-2-2.3-8.8-2.9-10.9 c-0.7-2.8-1.5-5.5-2.5-8.2c-0.6-1.6-1.9-6.6-3.1-7.6c-1.7-1.4-4.3-0.1-6.3,0.2c-4.1,0.6-8.3,0.9-12.4,1.3 c-6.1,0.6-12.2,2-18.3,2.2c-6.9,0.2-13.7-0.1-20.6-0.3c-13.7-0.5-27.8-0.2-41.5-1.7c-15.8-1.6-31.7-2.3-47.5-3.5 c-3.8-0.3-7.5-0.4-11.3-0.6c-2.7-0.2-8.2-2-10.7-1.2c-2.6,0.9-2.1,3.9-2.4,6.3C617.1,248,616.4,252.5,615.7,257 M451.1,381.3 c-9.4,1.4-19,2.1-28.5,2.3c-4.3,0.1-8.5,0.3-12.7,0.8c-3.5,0.4-5.5,0.5-5.7,4.4c-0.6,17-1.5,33.8-2,50.8c-0.3,9.6,0,19.2,0,28.8 c0,3.6-0.8,6.3,3.2,6.7c4.9,0.5,10-0.2,14.9-0.1c4.5,0,9,0.2,13.5,0.3c2.9,0.1,8.3,1.5,9.2-2c0.3-1.1-0.2-3.1-0.2-4.3 c0.1-2.3,0.3-4.6,0.5-6.9l0.9-15.9C445.5,424.4,449,402.9,451.1,381.3 M341.9,111.4c6.3,4.8,13.4,8.1,20.2,12.4 c3.2,2,6.3,4.2,9.5,6.3c3.2,2.2,7,3.5,10.1,5.9c5.9,4.7,13.3,7.7,19.8,11.8c6.6,4.1,13.2,8.3,20,12.2c3,1.7,6.3,2.8,9.4,4.3 c3.7,1.9,7,4.3,10.8,6.1c8,3.8,16,7.6,24,11.5c15.7,7.6,31.7,14.7,47.7,21.6c3.4,1.5,7,2.1,10.6,3c1.8,0.3,3.7,0.7,5.4,1.4 c0.5,0.3,1,0.3,1.4,0.7c0.7,0.8,0.1,2,0.6,2.6c2.5,3.4,9.4-6.2,11-8.5c2.5-3.6,1.5-4.2-2.4-5.7s-7.8-2.9-11.6-4.5 c-7-3-14.2-6.3-21-9.9c-7-3.8-14.3-6.9-21.2-10.8c-7.8-4.4-15.5-8.9-23.3-13.1c-13.3-7.2-25.4-16.2-38.3-24 c-7.1-4.3-13.8-9.4-20.7-14.1c-6.7-4.6-13.1-9.8-19.9-14.1c-3.8-2.4-7.7-4.3-11.2-7.1c-2.6-2-5.3-4.1-8.6-2.4 c-3.6,1.9-6.9,5-10.4,7.1C349.7,106.5,345.8,108.9,341.9,111.4 M633.9,191.2c-2-1.1-9.5-3.9-6-7.4c2.5-2.5,8.4,0.8,10.9,1.6 c-0.1-3.4,0-5.8-1.2-9.1c-1.1-3.3-0.8-5.8,1.9-8.3c1.2-1.1,5.7-2.1,6.3-3.6c0.8-2.3-3.2-1.6-4.6-1.9c-7.3-1.7-6.8-9.3-7-15.2 c-0.2-6.9-1.8-13.5-7.1-17.9c-2.4-2-3.3-2-6.2-0.7c-1,0.6-2.1,1.1-3.3,1.5c-1.7,0.3-2.8-0.8-4.3-0.7c-2.3,0.1-4.7,4-7,5.2 c-3,1.6-5.9,1.1-8.8,2.3c-2.6,1-5.1,3.8-7.5,5.3c-3.3,2-2.5,4-2.3,7.9c0.2,3.3,0.1,5.4-3.2,6.7c-1,0.4-2.9,0.2-3.8,0.8 c-1.3,0.9-0.6,1.6-1,3.2c-1.1,3.9-3.3,1.5-6.2,1c-3.5-0.6-7.4,1.8-5.6,5.6c0.7,1.4,2,2.5,3.5,3c1.7,0.5,3.8-0.9,5.3-0.3 c3.9,1.6,0.8,5.3,1,7.9c2.4-1.3,3.2-5,5.7-0.9c1.8,3,1.1,7.5,0.6,10.7c-1,7.5-3.3,16.7-8.2,22.7c-0.7,0.9-1.8,2.5-3.1,2.3 c-1.1-0.2-1.2-1.6-2.2-2c-2-0.8-5.2,0.4-5.9,2.3c-1.3,3.2-1.2,7.9-1.3,11.3c-0.1,3.9-0.6,8.3,0.4,12.1c1.6,6.5,7.7,8.8,13.6,10.2 c3.3,0.8,6.9,1.7,10.2,0.6c3.6-1.2,6.1-4.5,8.7-7.2c1.9-2,5.7-4.3,5.9-7.2c0.1-1.4-0.8-3.2-1.1-4.6c-0.3-2.2-0.4-4.5-0.4-6.7 c0.1-4.1,1.3-8.3,0.9-12.3c-0.4-4.2-3.5-4.5-5.2-7.7c-1-1.9-1.2-4.9,1.2-5.6c1.4-0.4,4.1,0.7,5.6,0.8c2.4,0.2,4.7,0.2,7.1,0.2 c4.4,0,7.6-0.2,11.6-2.1C625.7,193.3,629.8,192,633.9,191.2 M532.9,649.9c0.1-3.6,0.7-7.1,1.8-10.5c0.9-2.9,3-5.4,3.3-8.4 c0.7-6.2-1.4-12.1-7.4-14.4c-5.8-2.2-12.2-2.1-18.3-1.7c-3.5,0.2-6.5-1-10-0.8c-3.5,0.1-7-0.2-10.5-0.7c-6.7-0.7-12.5-3.7-19-4.9 c-3.2-0.6-4.3,0.8-6.3,3c-2.1,2.4-4.6,4.6-7.3,6.4c-4.2,2.8-11.7,8-12.1-0.7c-0.3-7.3,7-12.7,11.5-17.4c-4.6-1.9-4.2-9.2-9.5-6.3 c-2.3,1.3-4.1,3.1-6.3,4.6c-1.8,1.3-5.9,4.8-8.3,4.5c-3.3-0.4-3.7-5.1-3.2-7.7c0.9-4.8,5.9-7.5,9.4-10.3c2.1-1.7,5.3-3,7.1-5 c1.9-2.1,1.5-4.5,1.4-7.1c0-1.2,0.9-5.8,0.4-6.8c-0.8-1.6-3.4-1.2-5.2-1.3c-3.5-0.3-6.9-0.9-10.4-1.2c-2.7-0.3-5.3,0.4-8,0.5 c-6.8,0.3-13.8-0.1-20.6-0.1c-1.2,0-6.5-0.9-7.3,0.2c-0.7,0.9,0,5.2,0,6.3c0,6.9,0,13.8,0.2,20.7c0.4,13.6-0.1,27.6-2.8,40.9 c-0.5,2.4-2.1,5.1,0.4,6.3c1.9,0.9,6.9-0.5,9-0.6c6.7-0.4,13.4,0,20.1-0.5c11.6-0.8,23.5-0.1,35.3,0.2c15.7,0.4,31.3,2.1,47,2.5 c6.8,0.2,13.8-1.1,20.5-0.9c2.6,0.1,3.4,0.8,3.5,3.6C531.4,645.3,529.9,647.1,532.9,649.9 M203.5,168.7 c-6-10.2-11.7-20.6-17.7-30.8c-2.7-4.6-5.8-9-8.8-13.4c-1.7-2.2-3.2-4.6-4.5-7c-1.1-2.3-1.4-4.9-2.7-7.1 c-2.4,5.4-7.6,8.3-13.1,10.2c-4.2,1.5-8.4,3.6-12.8,4.6c-11.6,2.4-23,7.6-34.3,11.4c-24.1,8-49.8,12.4-73,22.8 c7.9,7.8,5.5,24.5,18.7,27.1c5.3,1,10.7-0.6,15.8-2c6.3-1.7,12.7-3.5,19.1-5.2c6.9-1.9,13.9-3.3,20.8-5c3.5-0.8,7-1.4,10.5-2.1 c2.9-0.6,2.9-1.2,4.5-4c2.6-4.6,7.4-9.4,11.4-3.3c1.6,2.5,1.3,5.6,2.7,8.1c1.2,2.1,3.9,3.2,5.7,4.6c1.3-3.6,2.8-8.6,5.7-11.4 c3.1-3,6.2-0.6,7.3,3c1.3,4.3-0.6,9.5-1.5,13.8c-0.4,2.1-1.2,4.4-0.7,6.6c0.6,2.8,3.1,5.7,4.6,8.2 C174.7,187.7,188.7,177.3,203.5,168.7 M471.2,340.2c-4-5.4-8.2-10.3-11.3-16.3c-3.2-6.5-5.8-13.5-9.2-19.9 c-3.4-6.3-6.5-12.7-9.7-19.2c-2.2-4.5-4.6-15.3-10.9-15.1c-3.1,0.1-6.3,1.3-9.4,1.6c-3.7,0.4-7.3,0.3-11,0.8 c-8,1-15.8,2.7-23.9,3.2c-7,0.5-14,0.6-21,0.3c-1.9-0.1-6.8-1.6-8.6-0.7c-2.1,1-1.4,4.8-1.5,6.8c-0.7,7.4-1.7,14.8-2.8,22.2 c-0.2,1.3-2.1,7.5-1.3,8.6c1.3,1.6,7.1,0.5,9,0.7c7.4,0.6,14.7,2.3,22,3.1c3.7,0.4,7.5,0.5,11.2,0.5c3.7,0,9-1,12.4,0.3 c2.2,0.8,3.5,2.7,2.8,5.1c-0.8,2.7-3.4,3.3-5.8,3.7c-1.8,0.4-6.8,0.2-7.9,1.8c-1.2,1.7,0.9,5,1.5,6.7c1.1,3.2,0.5,4.5,0.4,7.6 c-0.1,3.3,1.8,6.1,1.5,9.4c-0.3,3-0.3,6.1-0.1,9.1c0.3,2.9,0.1,6.1,0.5,8.9c0.9,6.5,15,2.6,19.4,2.5c9-0.2,18.1,1.3,27,0.8 c2.6-0.1,8.8,0.4,10.6-1.9c1.9-2.3,2.2-7.5,3.4-10.3C461.9,353.2,466.7,346.8,471.2,340.2 M551.5,195.5c-0.7,7.5-1,13.3-5.5,19.7 c-4.8,6.8-10.4,6.2-18,6.9c-6.4,0.6-12.6,3-17.7,7c-6.5,4.8-13.4,8.7-20.3,12.8c-13.1,7.8-28.7,9.9-43.6,12.2 c-3.7,0.6-10.6,2.3-6.2,6.7c4.7,4.8,7.4,11.8,10.5,17.7c7.3,13.7,12.9,28.3,21.2,41.4c3.4,5.3,7.4,11.7,12.5,15.4 c4.9,3.5,14.7-3,19.7-5.2c6.5-2.8,13.3-5,19.3-8.5c5.6-3.2,11.4-6.1,17.4-8.7c5.8-2.7,11.7-5.1,17.7-7.2c7.2-2.3,14.9-3.1,22.2-5 c7.5-2,13.5-4.2,19.6-9.2c2.8-2.3,6.3-4.6,7.4-8.3c1.2-3.8,0.3-8.5,0.1-12.4c-0.2-4-0.8-8.1-0.7-12.2s2.1-7.2,3.3-11 c1.9-5.9,4-16.7-1.9-20.7c-0.4,6.3-2.7,12-4.8,18c-2,5.7-5.3,9.2-10.3,12.6c-1.9,1.3-3.9,3-6.2,3.6c-2.4,0.6-5.7,0.3-8.1,0.3 c-5.5,0.1-11.5-1.4-15.8-5.1c-8.6-7.6-10.5-21.1-9.7-31.9c0.5-6.2,1.5-12.4,4.3-18c1-1.9,2.9-4,1.8-6.2 C558.6,198.1,553.6,196.6,551.5,195.5 M381.1,327.2c-10.2-1.3-20.8-2.4-30.7-5.3c-3.6-1-7.9-2.4-8-6.7c0-1.3,1-3.7,0.4-5 s-4.2-1.4-5.9-1.7c-19.6-3.9-37.8-11.5-55.4-21c-17.7-9.6-34.1-21-50.8-32.2c-16.3-11-29.9-24.3-43.4-38.4c-1.9-2-3.8-3.9-5.8-5.8 c-1.4-1.4-3.4-4.2-5.3-4.9c-3.4-1.3-8,3.8-11,5.3c-3.9,2-8.5,2.3-11-1.9c-1.7-2.8-0.1-3.3,0.1-5.8c0.2-2.1-1.3-3.3-2.5-4.8 c-1,2.3-2.3,6.6-5.7,6.1c-3-0.5-3.4-4.6-3.6-7c-0.3-2.8,0.6-6.3-1.3-8.5c-1.5-1.8-4.4-3.1-6.2-1.5c-3.8,3.2-1.3,12.8-6.7,15.2 c-7.6,3.4-6.8-12-7-15.1c-16.9,1.9-32.8,9.3-49.8,11.7c-6.9,1-14.9,0.7-20.9-3.3C45.1,193,39.3,185,37,178.9 c-5.7,4.2-11.6,7.4-18.9,5.6c-7.4-1.9-13.9-6-16.7-13.5c-2.7-7.5-1.9-13.2,4.9-17.4c2.5-1.6,5.2-2.7,8.1-3.4 c3.4-0.9,7.7-1.6,10.9-3.1c-3.3-4.8-7.1-9.6-8.6-15.4c-1.6-6.7-1-13.7,1.8-20c4.8-11.1,18.1-18.6,30.2-16.1 c10.5,2.2,18,11.3,20.9,21.3c1.4,4.5,0.2,7.3,5.7,4.9c6.3-2.8,11.8-6.9,18.3-9.3c5.6-2.1,11.8-3.9,17-7c2.7-1.6,2.6-1.7,1.5-4.6 c-1.5-3.4-2.1-7.2-1.9-10.9c0.9-11.2,10.2-19.2,20.1-22.9c11.3-4.2,25.3-2.5,33.7,6.5c4.2,4.4,6.8,10.1,7.3,16.2 c0.2,2.7-1.4,6.8-0.5,9.2c0.8,2.2,4.4,3.8,5.9,5.9c2.2,3.3,3.3,7.2,5.5,10.5c1.9,2.9,3.9,5.7,5.8,8.7c4.5,7.1,8.7,14.4,12.4,22 c1.7,3.5,3.3,7,4.8,10.5c1.1,2.4,1.9,6.8,3.8,8.8c1.9,1.9,4.8,1.3,6.5,3.8c2.1,3.1,0.1,5.9-1.5,8.6c12.6,3.7,20.3,14.3,30.4,22.1 c10.2,7.9,21.3,14.7,32.2,21.5c11.4,7,22.5,13.7,34.9,18.8c11.5,4.8,22.7,10.4,34.2,15.2c1.6,0.7,2.9,1.6,4.5,0.5 c1.5-1,1.8-4.1,3.3-5.4c3.9-3.2,13.1-1.4,17.7-1.5c6.7-0.1,13.5-0.5,20.2-0.1c2.3,0.1,4.5,1,6.7,0.7c3.3-0.6,6.7-1.1,10.1-1.3 c2.9-0.1,5.9-0.3,8.8-0.2c1.4,0.1,3.8,0.7,5-0.3c1.6-1.2,0.6-4,1.7-5.8c0.7-1.1,2.1-1.4,2.7-2.3c-0.1,0.1,1.1-1.9,0.7-1.6 c2.1-1.6,7.8-2.1,10.3-1.5c0.7,0.2,0.8,1.4,1.7,1.4s1-0.9,1.6-1.1s0.8-1.1,1.7-1.3c1-0.2,2.2,0.9,3.2,1c1.2,0.1,2.3-0.7,3.4-1 c1.3-0.2,2.5-0.3,3.8-0.2c2.2-0.3,4.6-0.5,6.8-0.8c3.3-0.5,6.6-1.3,9.8-2.2c1.4-0.3,2.8-0.7,4.3-0.9c1.7-0.1,3.9,0.7,5.5,0.3 c1.4-0.3,0.3-0.8,1.4-1.2c1.3-0.4,2.7-0.6,4-1c3-1.1,5.8-2.6,8.4-4.4c6.2-3.8,11.8-8.5,17.9-12.4c-1.4-2-6.6-2.4-8.8-3.1 c-3-1-6-2.2-9-3.3c-6.8-2.7-13.5-5.5-20.2-8.3c-12.7-5.3-25.6-10.4-37.7-16.9c-11.4-6.1-23.7-10.9-35-17.2 c-5.8-3.2-11.6-6.6-17.2-10.1c-5.2-3.3-10.9-5.5-16.3-8.5c-10.6-5.8-20.3-13.1-30.9-18.8c-2.5-1.3-5.3-4.2-8-4.9 c-2.3-0.6-4.7,0.7-6.8,1.6c-2.2,1-4.3,2.5-6.8,2.6c-2.8,0.1-5.9-1.4-8.5-2.3c-4.8-1.7-9-6.3-10.8-11.1c-0.8-2.4-1.4-4.9-1.6-7.5 c-0.4-2.9,0.6-6.4-0.1-9.2c-1.4-5.3-7.6-10.3-11.2-14.1c-4.4-4.8-8.3-10-11.6-15.5c-7.7-12.1-13-26.5-8.8-40.8 c0.7-2.2,1.8-5.8,3.7-7.2c2.7-2,3.8,0.3,6.1,1.5c2.9,1.5,5.6,2.3,8.3,4.3c3.3,2.4,6,5.3,9,8c0-6.2-0.9-11.6,0.4-17.7 c0.7-3.2,2.2-9.8,6.2-10.3c4.2-0.6,7.2,7,9,9.8c3.4,5.1,7.2,10,10.9,14.8c0.5-7.5-0.5-25.5,9-28.4c8.5-2.7,12.9,20.2,14.9,25.4 c2,4.8,4.5,9.4,7.5,13.7c3.1,4.4,6.4,2.2,11.1,2.4c4.4,0.2,6.3,3.2,6.3,7.5c-0.1,5.4-4.4,9.4-7.4,13.5c6.5,3.1,14.8,7.2,18.7,13.6 c0.9,1.4,1.4,3,1.5,4.7c0.1,1.7-1.5,4.7-0.7,6.2c0.6,1.1,2.5,1.5,3.6,2.1c2.1,1.3,4.1,2.9,6.2,4.2c13.9,8.6,27,18.9,40.4,28 c12.1,8.2,24.9,15.5,37.2,23.7c15.6,10.4,31.9,19.3,48.6,27.9c3.8,2,7.4,4.2,11.1,6.4c3.8,2.3,8.3,3.8,12.3,5.6 c2.8,1.3,5.9,3.7,8.9,4.5c3.5,1,5-2.8,9.1-1.8c3.6,0.8,7.4,1.2,9.6,4.4c1.9,2.8,1.7,7.1,4.7,8.9c3.5,2.1,4.5-0.2,5.3-3.1 c0.9-3.3,3.5-7.1,0.3-9.5c-3-2.3-7.3-2.5-10.8-3.3c-1.8-0.4-4.2-2-5.8-2.1c-2.1-0.2-2.6,1.8-4.4,1.8c-1,0-1.8-0.9-2.7-1.2 c-0.2-0.1-0.7,0.7-1,0.6c-0.6-0.2-1.2-0.5-1.8-0.9c-3.1-1.3-7.2-3.3-6.3-7.2c0.5-2.1,3.9-5.4,1.5-7.3c-2.2-1.8-5.2,1.9-6.5-1.8 c-0.9-2.7,1.3-3.4-1.5-5.6c-2-1.6-3.8-2-2.7-5c0.7-1.9,4.4-4.8,3.3-7.1c-1.5-3.2-7.2,0-6.7-5.8c0.4-4.2,5.7-7.2,5.7-11.4 c0-3-2.8-2.9-3.5-4.9c-0.7-1.9-0.1-1.9,1-3.2c0.7-0.7,1.4-1.6,1.9-2.5c0.7-1.4,1.9-3.3,1.5-4.9c-0.4-1.5-2.1-2.4-2.6-4 c-1.6-6.2,11.4-20.2,14.8-11.7c2.5-2.9,5.7-8.8,10.1-8.4c2.6,0.3,1.5,1,2.4,2.6c0.7,1.1,2.5,1.7,3,2.9c1-3.2-0.1-9.2,2.8-11.5 c2.8-2.3,4.6,1.7,5.8,4c0.8-2.1,1.3-6.1,3.9-6.9c2.8-0.8,4.6,2.7,6,4.5c1.5-2.1,4.3-8.3,7.5-7.6c2.4,0.6,3.6,4.6,4.7,6.4 c2.6-1.7,6.8-5.9,10.2-5.5c3.3,0.4,3,3.5,6.9,2.3c2.8-0.9,5.7-3.4,8.7-3.6c3.2-0.2,4.8,2,8.3,1.5c3.7-0.6,4.3-1.4,6.7,1.6 c1.2,1.5,0.9,2.2,3,2.5c1.8,0.3,3.3-0.9,5.1-0.2c1.3,0.6,2.4,1.7,2.9,3.1c0.7,1.5-0.1,4.2,0.6,5.4c1.3,2.3,6.2,0.3,8.4,1.9 c3,2.2,0.2,5.5,1.7,7.9c1.3,1.9,4.8,1.4,6.2,4c1.2,2.5,1.1,5.4-0.5,7.7c-0.6,0.9-2.4,1.7-2.8,2.5c-0.9,1.7-0.1,1.5,0.4,3.3 c0.9,3.4,0.2,4.6-2.4,6.9c-1.5,1.3-1.8,0.9-1.9,3c-0.1,1.6,1.2,3,1,4.7c-0.4,2.8-3.2,4.6-4,7.4c-1.1,3.6-4,5.5-6.3,8.5 c2.6,1.6,6.1,2.9,7.4,5.9c1.4,3.2,1.1,7.9,0.1,11.2c-0.9,3.2-3,5.2-4.9,7.7c-2.4,3.1-2.2,5.5-2.3,9.2c-0.3,7.9-3.7,15-11.4,17.5 c-3.1,1-5.8,2.4-8.9,3.4c-3.4,1-7,1.3-10.5,1c-2.5-0.1-5.3-0.7-6.2,1.9c-0.4,1.3-0.3,6.4,0.3,7.5c1,2,3.8,1.7,5.5,3.4 c3.1,3.1,2.2,5.7,7.4,5.8c16.9,0.2,33.7-1.1,50.5,0.2c8.3,0.6,16.4,2,24.8,2.5c9.2,0.5,18.4,0.6,27.6,1.2 c8.7,0.5,17.1,1.7,25.9,1.2c8.1-0.4,15.9-1,24-1.9c2.8-0.3,7.1,0.1,9-2c1.1-1.2,1.3-3.2,2.4-4.5c1.1-1.1,2.3-2.1,3.6-3 c3-2.3,5.8-4.3,9.7-4.2c3.4,0.1,6.2,2.6,9,4.4c3.3,2.1,4.6,3.1,8.5,2.3c3.8-0.8,7.4-2.3,11.1-3.5c7.9-2.4,15.4-5.7,22.6-9.8 c3.6-2,6.1-3.3,10.1-2.1c4.2,1.2,5.4,2.4,5.4,6.8c0,1.4-0.5,3.8,1.1,4.6c1.2,0.6,3.7-1,4.7-1.5c4.3-2,8.6-3.7,13.1-5.2 c4.1-1.3,8.3-2.4,12.5-3.6c3.5-1,8.1-2.4,11.5-0.6c8.7,4.7-4.1,16.7-7.5,20.6c4.2-1,13.1-0.4,15.3,4c2.6,5.3-2.6,10.5-5.5,14.4 c4.1,1.9,12.4,0.3,13.5,6.1c1,4.9-4.2,9.9-7.5,12.8c-8.7,7.5-22.1,12.7-33.6,12.8c-2.9,0-5.7-0.5-8.6-0.7c-2.1-0.1-4,0.6-6.1,0.6 c-2.9,0-5.5-0.6-8.4-0.2c-3.4,0.5-6.9,1-10.3,1.4c-3.2,0.4-6.4,0.7-9.6,0.9c-2.1,0.2-5.3-0.3-7.3,0.4c-2.5,0.9-1.8,1.8-2,4.3 c-0.3,3-1.8,5.7-4,7.7c-8.1,7.3-21.8,5.5-25.8-5.2c-1-2.6,0.3-4,0-6.3c-0.4-2.4-2.6-2.3-4.7-2.4c-6.6-0.5-13.2-0.5-19.8-1 c-12.7-0.9-25.8-2.7-38.6-2.4c-13.3,0.3-26.6-0.5-39.9-1.2c-6.2-0.3-12.6-2.5-18.7-2c-6.5,0.5-13.3-0.9-19.9-1.6 c-14.5-1.5-30.8-2-44.2-8c1.1,14.6,2.8,29.4-9,40.2c-5,4.6-11.2,9.8-17.7,11.7c-8.4,2.5-16.4,4.6-24.9,6.4 c-15.8,3.5-31.6,11.7-45.9,19.1c-6.7,3.5-14.6,4.9-21.9,6.8c-3.5,0.9-7.4,2.2-11,2c-3.6-0.1-6.1-2.6-9.2-4 c-3,7.1-7.1,13.7-10.2,20.7c-1.5,3.5-2.7,7.2-4.5,10.6c-1.3,2.6-3.5,4-3.7,7c-0.5,7.3,0.8,14.8,0.5,22.2c-0.4,8-1.6,16.1-2.4,24.1 c-1.6,17.3-0.8,34.7-2.1,52.1c-1.2,15.8-0.4,31.5-2.2,47.4c-0.5,4.4-1,8.8-1.4,13.2c-0.2,2.9-1.8,9.6-0.3,12.2 c0.7,1.1,2.2,1.3,3.3,1.8c1.7,0.9,3.2,2.2,4.4,3.7c2.6,3,3.2,6.5,3.8,10.3c3.4-1.8,17.5-11.1,15.4-0.9c-0.7,3.2-3.5,4.9-5.8,6.9 c-1.7,1.5-3.2,3.1-5,4.4c-1.2,0.9-3.7,2.1-4.3,3.5c-1,2.7,4.3,6.5,6.8,6.5c3.5,0,7.9-5.3,10.9-7c7.9-4.5,7.2,5.2,4.2,9.4 c-2.3,3.2-0.3,2.9,2.8,3.6c4.8,1,9.3,1.9,14.2,2.5c9.4,1.2,18.7-0.3,28,1.8c9.3,2.2,14.8,8,16.2,17.5c0.7,5.1,1.4,2.5,5.6,3.7 c3.9,1.1,6.1,5.6,8.4,8.6c4.5,6.1,12.9,21.3,6,28.5c-2.9,3-10,2.3-13.9,2.8c-2.5,0.3-5.5,1.5-8,0.9c-2.4-0.6-4-2.7-5.7-4.3 c0,9.6-0.1,17.9-7.7,24.9c-6.2,5.5-14.3,8.3-22.6,7.6c-8.1-0.6-16.3-3.8-21.4-10.3c-2.7-3.5-4.6-7.6-5.3-11.9 c-0.3-2-0.4-4.1-0.1-6.1c0.2-1.2,1.3-3.3,0.6-4.5c-1.3-2-7.4-0.3-9.4-0.1c-5.4,0.5-10.7,1.2-16,1.9c-4.4,0.6-8.9,1.2-13.3,0.4 c-3.8-0.7-5.3-1.1-4.6,3.4c1.4,9.1-0.9,17.1-8.4,22.7s-14.3,6.7-23.4,5.2c-8.3-1.3-15.9-9.2-18.4-17c-3.2-10.4,0.1-19.9,7.9-27 c-4.7-2.4-7.8-3.8-9.5-9.3c-1.7-5.8-0.1-11.8,0.7-17.6c1.8-12.4,1.1-24.5,1.7-37c0.3-5.5,1.4-11.1,1.4-16.6c0-3.1-0.2-3-3.4-3 c-2,0-4.1,0.1-5-2.2c-2-5.6,7.5-5.1,9.9-7.4c2.9-2.7,0.9-13.2,0.8-16.9c-0.3-12,0.9-23.7,1.1-35.7c0.1-5.4,0.4-11.1,0-16.5 c-0.2-2.2-1.4-3.9-1.3-6c0.1-2.7,0.6-5.3,0.5-8.2c-1.2-25.1-1.5-50.7,1.7-75.6c0.2-1.5,1.2-4.9,0.7-6.4c-0.9-2.3-3.6-1.5-5.5-2.3 c-5.3-2.3-6.6-6-6.9-11.4c-0.2-3.2-0.3-6.4-0.5-9.6c-0.1-1.6-0.2-3.3-0.3-4.9c-0.1-1.9,0.7-4.1,0.6-5.7c0-0.5-0.2-1.3-0.2-1.6 c-0.6-0.3-0.9-0.7-0.7-1.3c0-0.5,0.1-1.1,0.3-1.6c0,0.3-0.4-1.8-0.4-1.6c0.4-0.7,0.7-1.4,1-2.2c-0.5-1-1.5,0.2-1.9-1.6 c-0.3-1.5,0.7-3.3,0.4-5C379.6,336.1,380.4,331.9,381.1,327.2"></path> <path id="ink-shape-6" class="st1" d="M122.8,400.5c59,0.1,118.1,1.6,176.9,3.3c6.5,0.2,13,0.7,19.5,1c1.1,0,4.8-0.4,5.7,0.8 c1.4,2-1.8,4-3.2,4.9c-5,3.1-11.7,2.6-17.5,2.7c-7.9,0.3-15.8,0.3-23.7,0.2c-27.4-0.4-54.9-2.5-82.3-4.1 c-16.9-1-33.8-1.6-50.7-2.1c-8.3-0.2-16.7-0.4-25-0.7c-2.3-0.1-6.4,0.6-6.4-2.3C116.1,401.2,120.6,400.7,122.8,400.5"></path> <path id="ink-shape-7" class="st1" d="M193.3,433.7c41.7,1.8,83.5,3,125.2,4.7c2.7,0.1,8.5-0.7,9.5,2.6c1.1,3.5-3.3,6.9-6.3,7.8 c-3.8,1.2-8.6,0.5-12.5,0.6c-5.2,0.2-10.4,0.1-15.6-0.3c-20.2-1.4-40.3-3.1-60.5-4.5c-11.4-0.8-22.8-1.7-34.2-2.7 c-3-0.3-12.1,0.6-14.2-1.9c-1.3-1.5,0.1-3.9,1.4-5.1C188.2,433.1,190.6,433.5,193.3,433.7"></path> <path id="ink-shape-8" class="st1" d="M316.4,479.3c-13.6,0.6-27.2-0.2-40.6-2.6c-1.8-0.3-6-0.3-7.2-2c-1.8-2.6,1.6-4.8,3.8-5 c6.2-0.6,13.6,1.5,19.9,1.9c6.6,0.4,13.2-0.3,19.8-0.4c3.8,0,7.5-0.1,11.3-0.1c2.2,0,5.4-0.6,7.5-0.1c6.1,1.4-1.7,6.5-4.4,7.1 C325.6,478.4,316.4,479.7,316.4,479.3"></path> <path id="ink-shape-9" class="st1" d="M612.3,154c0.1-1.6-0.3-5.6,1.6-6.4c3.8-1.5,3.6,8,5.1,9.3c5.5,4.9,4-13.9,9.2-7.8 c4.3,4.9,0.8,16.7-5.1,19c-4.4,1.6-7.4-1.5-9.1-5.1C613.9,162.9,611.6,154,612.3,154"></path> <path id="ink-shape-10" class="st1" d="M617.2,132.6c2.7-0.5,6.1,2.2,4.5,4.9c-1.2,1.9-9.2,5-11.4,5c-2.7,0.1-2.4-2.1-1.6-4.2 C610.1,134.9,613.5,132.6,617.2,132.6"></path> <path id="ink-shape-11" class="st1" d="M134.1,89.9c0.8-3.4,2-7.4,6-4.1c2.7,2.2,4.7,7.6,4.9,11c0.3,4.1-1.9,6.1-5.5,3.8 S134.6,94,134.1,89.9"></path> <path id="ink-shape-12" class="st1" d="M47.1,132.5c-1.3,9.1-9.4,0.6-9-4.9c0.2-2.9,1.8-5.2,5-3.5 C45.9,125.6,46.9,129.7,47.1,132.5"></path> <path id="ink-shape-13" class="st1" d="M505.1,662.6c0.6-2.3,0.7-6.9,3.3-7.9c3.9-1.5,5.5,4.9,5.7,7.5c0.1,2.8-0.8,8.7-4.8,8.2 C506,670.1,505.8,665,505.1,662.6"></path> <path id="ink-shape-14" class="st1" d="M408.1,666.2c0.7-2.8,0.9-7.7,4.2-8.6c3.6-0.9,4.8,4.1,4.8,6.9c0,2.6-1.4,9.4-5.1,9 C409.1,673.2,408.7,668.4,408.1,666.2"></path> </g> </g> </svg> 