<?xml version="1.0" encoding="UTF-8"?> <!-- Generator: Adobe Illustrator 24.1.1, SVG Export Plug-In . SVG Version: 6.00 Build 0) --> <svg xmlns="http://www.w3.org/2000/svg" xmlns:xlink="http://www.w3.org/1999/xlink" id="Layer_1" x="0px" y="0px" viewBox="0 0 512 512" style="enable-background:new 0 0 512 512;" xml:space="preserve"> <style type="text/css"> .st0{fill:#4F4F4F;} </style> <g> <path class="st0" d="M268.3,272h-20.6c-6.4,0-12-4.3-13.6-10.6l-5.5-21.3l-19,11.2c-5.5,3.3-12.6,2.4-17.1-2.2l-14.6-14.6 c-4.5-4.5-5.4-11.6-2.2-17.1l11.2-19l-21.3-5.5c-6.2-1.6-10.6-7.2-10.6-13.6v-20.6c0-6.4,4.3-12,10.6-13.6l21.3-5.5l-11.2-19 c-3.3-5.5-2.4-12.6,2.2-17.1l14.6-14.6c4.5-4.5,11.6-5.4,17.1-2.2l19,11.2l5.5-21.3c1.6-6.2,7.2-10.6,13.6-10.6h20.6 c6.4,0,12,4.3,13.6,10.6l5.5,21.3l19-11.2c5.5-3.3,12.6-2.4,17.1,2.2l14.6,14.6c4.5,4.5,5.4,11.6,2.2,17.1l-11.2,19l21.3,5.5 c0,0,0,0,0,0c6.2,1.6,10.6,7.2,10.6,13.6v20.6c0,6.4-4.3,12-10.6,13.6l-21.3,5.5l11.2,19c3.3,5.5,2.4,12.6-2.2,17.1l-14.6,14.6 c-4.5,4.5-11.6,5.4-17.1,2.2l-19-11.2l-5.5,21.3C280.3,267.7,274.7,272,268.3,272L268.3,272z M231.7,227.4c0.6,0,1.3,0.1,1.9,0.4 c1.5,0.6,2.5,1.9,2.9,3.4l7.2,27.8c0.5,1.8,2.1,3.1,4,3.1h20.6c1.9,0,3.5-1.3,4-3.1l7.1-27.8c0.4-1.5,1.5-2.8,2.9-3.4 c1.5-0.6,3.1-0.5,4.5,0.3l24.7,14.6c1.6,0.9,3.6,0.7,5-0.6l14.6-14.6c1.3-1.3,1.6-3.4,0.6-5l-14.6-24.7c-0.8-1.4-0.9-3-0.3-4.5 c0.6-1.5,1.9-2.5,3.4-2.9l27.8-7.2c1.8-0.5,3.1-2.1,3.1-4v-20.6c0-1.9-1.3-3.5-3.1-4l-27.8-7.2c-1.5-0.4-2.8-1.5-3.4-2.9 c-0.6-1.5-0.5-3.1,0.3-4.5l14.6-24.7c0.9-1.6,0.7-3.7-0.6-5l-14.6-14.6c-1.3-1.3-3.4-1.6-5-0.6l-24.7,14.6c-1.4,0.8-3,0.9-4.5,0.3 c-1.5-0.6-2.5-1.8-2.9-3.4l-7.2-27.8c-0.5-1.8-2.1-3.1-4-3.1h-20.6c-1.9,0-3.5,1.3-4,3.1l-7.2,27.8c-0.4,1.5-1.5,2.8-2.9,3.4 c-1.4,0.6-3.1,0.5-4.5-0.3l-24.7-14.6c-1.6-0.9-3.6-0.7-5,0.6l-14.6,14.6c-1.3,1.3-1.6,3.4-0.6,5l14.6,24.7c0.8,1.4,0.9,3,0.3,4.5 c-0.6,1.5-1.9,2.5-3.4,2.9l-27.8,7.2c-1.8,0.5-3.1,2.1-3.1,4v20.6c0,1.9,1.3,3.5,3.1,4l27.8,7.1c1.5,0.4,2.8,1.5,3.4,2.9 c0.6,1.5,0.5,3.1-0.3,4.5l-14.6,24.7c-0.9,1.6-0.7,3.6,0.6,5l14.6,14.6c1.3,1.3,3.4,1.6,5,0.6l24.7-14.6 C230,227.7,230.8,227.4,231.7,227.4L231.7,227.4z"></path> <path class="st0" d="M262.9,197.3l0.6-0.1c3.5-0.7,6.4-2.2,8.6-4.4c2.9-2.8,4.4-6.6,4.4-11.1c0-2.9-0.6-5.4-1.7-7.5 c-1.1-2.1-2.8-3.9-5-5.4c-2.1-1.4-5.2-2.8-9.6-4.3c-4.7-1.6-6.9-3-7.9-4c-1.2-1.1-1.8-2.6-1.8-4.8c0-2.3,0.6-3.9,2-5.2 c1.4-1.3,3.4-2,6.1-2c2.6,0,4.5,0.8,6,2.4c1.2,1.4,1.9,3.2,2.2,5.5c0.2,2.3,2.2,4.2,4.6,4.2c1.3,0,2.5-0.5,3.4-1.5 c0.9-0.9,1.3-2.2,1.2-3.5c-0.4-4.1-1.7-7.6-3.9-10.2c-2.1-2.6-5-4.3-8.5-5.1l-0.6-0.1V137c0-2.4-1.9-4.3-4.3-4.3s-4.3,1.9-4.3,4.3 v3.1l-0.6,0.1c-3.3,0.7-6.1,2.2-8.3,4.4c-2.8,2.9-4.3,6.6-4.3,11.1c0,4.3,1.3,7.9,3.9,10.6c2.5,2.6,6.4,4.8,12.2,6.6 c4.9,1.7,7.1,3.2,8.1,4.2c1.2,1.2,1.8,2.7,1.8,4.6c0,2.1-0.7,3.8-2.3,5.1c-1.6,1.4-3.8,2.1-6.6,2.1c-3.1,0-5.6-0.8-7.2-2.4 c-1.4-1.3-2.1-3-2.4-5.2c-0.3-2.3-2.3-4.1-4.6-4.1c-1.3,0-2.6,0.6-3.4,1.5c-0.9,1-1.3,2.3-1.2,3.6c0.4,4.1,1.9,7.5,4.5,10.1 c2.4,2.5,5.7,4.2,9.7,4.9l0.6,0.1v2.3c0,2.4,1.9,4.3,4.3,4.3s4.3-1.9,4.3-4.3L262.9,197.3z"></path> <path class="st0" d="M400.8,345.3c2.6,0.9,3.9,3.8,3,6.4c-0.7,2-2.7,3.3-4.7,3.3c-0.6,0-1.1-0.1-1.7-0.3L220.5,291H110.7 c-2.8,0-5-2.2-5-5s2.2-5,5-5h110.7c0.6,0,1.2,0.1,1.7,0.3"></path> <g> <path class="st0" d="M258,224.2c30.4,0,55.2-24.7,55.2-55.2s-24.7-55.2-55.2-55.2s-55.2,24.8-55.2,55.2S227.6,224.2,258,224.2z M258,123.8c24.9,0,45.2,20.3,45.2,45.2s-20.3,45.2-45.2,45.2s-45.2-20.3-45.2-45.2S233.1,123.8,258,123.8z"></path> <path class="st0" d="M404.1,186.9v-74.1c0-5.2-2.5-10.1-6.8-13c-4.3-3-9.7-3.7-14.6-1.9l-30.5,11.2c-2.6,1-3.9,3.8-3,6.4 c1,2.6,3.8,3.9,6.4,3l30.5-11.2c1.8-0.7,3.8-0.4,5.4,0.7c1.6,1.1,2.5,2.9,2.5,4.8v253.5c0,2-0.9,3.7-2.5,4.8 c-1.6,1.1-3.6,1.4-5.4,0.7l-163-60c-0.6-0.2-1.1-0.3-1.7-0.3h-99.8c-3.3,0-5.9-2.6-5.9-5.9V173.5c0-3.3,2.6-5.9,5.9-5.9h18 c2.8,0,5-2.2,5-5s-2.2-5-5-5h-18c-8.8,0-15.9,7.1-15.9,15.9v27.7H76.2c-9.8,0-17.7,7.9-17.7,17.7v41.3c0,9.8,7.9,17.7,17.7,17.7 h29.5v27.7c0,8.8,7.1,15.9,15.9,15.9h23.2l20.3,89.7c0.5,2.3,2.5,3.9,4.9,3.9h42.4c1.5,0,2.8-0.6,3.8-1.7s1.4-2.6,1.2-4 l-12.8-87.9h16.1l162.2,59.7c1.8,0.7,3.6,1,5.5,1c3.2,0,6.4-1,9.1-2.9c4.3-3,6.8-7.8,6.8-13v-74.1c27.5-1.2,49.4-23.9,49.4-51.7 v-1.8C453.5,210.9,431.6,188.2,404.1,186.9L404.1,186.9z M76.2,267.9c-4.2,0-7.7-3.5-7.7-7.7v-41.3c0-4.2,3.5-7.7,7.7-7.7h29.5 v56.7L76.2,267.9z M206.5,405.1h-32.6L155,321.5h39.3L206.5,405.1z M443.5,240.5c0,22.2-17.5,40.4-39.4,41.7V197 c21.9,1.2,39.4,19.4,39.4,41.7V240.5z"></path> </g> </g> </svg> 