<?xml version="1.0" encoding="UTF-8"?> <!-- Generator: Adobe Illustrator 24.1.1, SVG Export Plug-In . SVG Version: 6.00 Build 0) --> <svg xmlns="http://www.w3.org/2000/svg" xmlns:xlink="http://www.w3.org/1999/xlink" id="Layer_1" x="0px" y="0px" viewBox="0 0 512 512" style="enable-background:new 0 0 512 512;" xml:space="preserve"> <style type="text/css"> .st0{fill:#4F4F4F;} </style> <g> <g> <path class="st0" d="M228.3,215.3l35.8-26.2c2.2-1.6,2.7-4.8,1.1-7c-1.6-2.2-4.8-2.7-7-1.1l-35.8,26.2 c-14-16.6-34.9-27.2-58.2-27.2c-41.9,0-76,34.1-76,76s34.1,76,76,76c41.9,0,76-34.1,76-76C240.1,241,235.8,227.1,228.3,215.3 L228.3,215.3z M164.2,322c-36.4,0-66-29.6-66-66s29.6-66,66-66s66,29.6,66,66S200.5,322,164.2,322z"></path> <path class="st0" d="M333.8,207.8c41.9,0,76-34.1,76-76c0-41.9-34.1-76-76-76c-41.9,0-76,34.1-76,76 C257.9,173.7,291.9,207.8,333.8,207.8L333.8,207.8z M333.8,65.8c36.4,0,66,29.6,66,66s-29.6,66-66,66s-66-29.6-66-66 S297.5,65.8,333.8,65.8L333.8,65.8z"></path> <path class="st0" d="M333.8,304.2c-23.3,0-44.3,10.6-58.2,27.2l-37.5-27.5c-2.2-1.6-5.4-1.1-7,1.1c-1.6,2.2-1.1,5.4,1.1,7 l37.5,27.5c-7.5,11.8-11.9,25.8-11.9,40.7c0,41.9,34.1,76,76,76c41.9,0,76-34.1,76-76S375.8,304.2,333.8,304.2L333.8,304.2z M333.8,446.2c-36.4,0-66-29.6-66-66s29.6-66,66-66s66,29.6,66,66S370.2,446.2,333.8,446.2L333.8,446.2z"></path> </g> <g> <path class="st0" d="M194.4,295.4H134c-2.8,0-5-2.2-5-5v-28c0-10.3,6.8-19.1,16.2-22c-2-3.3-3.1-7.2-3.1-11.3 c0-12.2,9.9-22.1,22.1-22.1s22.1,9.9,22.1,22.1c0,4.1-1.1,7.9-3.1,11.3c9.4,2.9,16.2,11.7,16.2,22v28 C199.4,293.2,197.2,295.4,194.4,295.4z M139,285.4h50.4v-23c0-7.2-5.9-13.1-13.1-13.1H172c-2.3,0-4.3-1.6-4.9-3.8 c-0.5-2.2,0.5-4.6,2.6-5.6c4.1-2.1,6.6-6.2,6.6-10.8c0-6.7-5.4-12.1-12.1-12.1s-12.1,5.4-12.1,12.1c0,4.6,2.5,8.7,6.6,10.8 c2.1,1.1,3.1,3.4,2.6,5.6c-0.5,2.2-2.6,3.8-4.9,3.8h-4.3c-7.2,0-13.1,5.9-13.1,13.1L139,285.4z"></path> <path class="st0" d="M364,171h-60.5c-2.8,0-5-2.2-5-5v-28c0-10.3,6.8-19.1,16.2-22c-2-3.3-3.1-7.2-3.1-11.3 c0-12.2,9.9-22.1,22.1-22.1s22.1,9.9,22.1,22.1c0,4.1-1.1,7.9-3.1,11.3c9.4,2.9,16.2,11.7,16.2,22v28C369,168.7,366.8,171,364,171 L364,171z M308.6,161H359v-23c0-7.2-5.9-13.1-13.1-13.1h-4.3c-2.3,0-4.3-1.6-4.9-3.8c-0.5-2.2,0.5-4.6,2.6-5.6 c4.1-2.1,6.6-6.2,6.6-10.8c0-6.7-5.4-12.1-12.1-12.1s-12.1,5.4-12.1,12.1c0,4.6,2.5,8.7,6.6,10.8c2.1,1.1,3.1,3.4,2.6,5.6 c-0.5,2.2-2.5,3.8-4.9,3.8h-4.3c-7.2,0-13.1,5.9-13.1,13.1L308.6,161L308.6,161z"></path> <path class="st0" d="M364,421.7h-60.5c-2.8,0-5-2.2-5-5v-28c0-10.3,6.8-19.1,16.2-22c-2-3.3-3.1-7.2-3.1-11.3 c0-12.2,9.9-22.1,22.1-22.1s22.1,9.9,22.1,22.1c0,4.1-1.1,7.9-3.1,11.3c9.4,2.9,16.2,11.7,16.2,22v28 C369,419.5,366.8,421.7,364,421.7L364,421.7z M308.6,411.7H359v-23c0-7.2-5.9-13.1-13.1-13.1h-4.3c-2.3,0-4.3-1.6-4.9-3.8 c-0.5-2.2,0.5-4.6,2.6-5.6c4.1-2.1,6.6-6.2,6.6-10.8c0-6.7-5.4-12.1-12.1-12.1s-12.1,5.4-12.1,12.1c0,4.6,2.5,8.7,6.6,10.8 c2.1,1.1,3.1,3.4,2.6,5.6c-0.5,2.2-2.5,3.8-4.9,3.8h-4.3c-7.2,0-13.1,5.9-13.1,13.1L308.6,411.7L308.6,411.7z"></path> </g> </g> </svg> 