<?xml version="1.0" encoding="UTF-8"?> <!-- Generator: Adobe Illustrator 24.1.1, SVG Export Plug-In . SVG Version: 6.00 Build 0) --> <svg xmlns="http://www.w3.org/2000/svg" xmlns:xlink="http://www.w3.org/1999/xlink" id="Layer_1" x="0px" y="0px" viewBox="0 0 512 512" style="enable-background:new 0 0 512 512;" xml:space="preserve"> <style type="text/css"> .st0{fill:#4F4F4F;} </style> <g> <path class="st0" d="M410.2,371c-0.6,0-1.1-0.1-1.7-0.3l-190.6-68.8H99.5c-2.8,0.1-5-2.1-5-4.9s2.2-5,5-5h119.3 c0.6,0,1.2,0.1,1.7,0.3l191.4,69c2.6,0.9,3.9,3.8,3,6.4C414.1,369.7,412.2,371,410.2,371L410.2,371z"></path> <path class="st0" d="M415.2,201.5v-80.2c0-5.5-2.7-10.6-7.2-13.7s-10.2-3.9-15.4-2l-34.8,12.8c-2.6,1-3.9,3.8-3,6.4 c1,2.6,3.8,3.9,6.4,3l34.8-12.8c2.1-0.8,4.4-0.5,6.2,0.8c1.8,1.3,2.9,3.3,2.9,5.5v273.1c0,2.2-1,4.3-2.9,5.5s-4.1,1.6-6.2,0.8 L220.5,336c-0.6-0.2-1.1-0.3-1.7-0.3H111.2c-3.7,0-6.7-3-6.7-6.7V186.6c0-3.7,3-6.7,6.7-6.7h39.9c2.8,0,5-2.2,5-5s-2.2-5-5-5h-39.9 c-9.2,0-16.7,7.5-16.7,16.7v30.3H62.3c-10.3,0-18.7,8.4-18.7,18.7V280c0,10.3,8.4,18.7,18.7,18.7h32.2V329 c0,9.2,7.5,16.7,16.7,16.7h25.3l21.9,96.9c0.5,2.3,2.5,3.9,4.9,3.9h45.7c1.5,0,2.8-0.6,3.8-1.7s1.4-2.6,1.2-4L200,345.7h17.8 L392.6,410c1.9,0.7,3.8,1,5.8,1c3.4,0,6.7-1,9.6-3c4.5-3.1,7.2-8.3,7.2-13.7v-80.2c29.6-1.1,53.3-25.5,53.3-55.3v-2 C468.4,227,444.7,202.6,415.2,201.5L415.2,201.5z M62.3,288.7c-4.8,0-8.7-3.9-8.7-8.7v-44.5c0-4.8,3.9-8.7,8.7-8.7h32.2v61.8 L62.3,288.7L62.3,288.7z M203.1,436.5h-35.9l-20.5-90.8h43.2L203.1,436.5z M458.4,258.8c0,24.3-19.2,44.2-43.3,45.3v-92.6 c24,1.1,43.3,21,43.3,45.3V258.8z"></path> <g> <path class="st0" d="M276.3,175.5c-5.3,0-10.1,1.9-13.8,5.1l-21.3-15.6c1.1-2.5,1.7-5.3,1.7-8.3c0-2.9-0.6-5.7-1.7-8.3l21.3-15.6 c3.7,3.2,8.6,5.1,13.8,5.1c11.8,0,21.4-9.6,21.4-21.4s-9.6-21.4-21.4-21.4s-21.4,9.6-21.4,21.4c0,2.9,0.6,5.7,1.7,8.3l-21.3,15.6 c-3.7-3.2-8.6-5.1-13.8-5.1c-11.8,0-21.4,9.6-21.4,21.4s9.6,21.4,21.4,21.4c5.3,0,10.1-1.9,13.8-5.1l21.3,15.6 c-1.1,2.5-1.7,5.3-1.7,8.3c0,11.8,9.6,21.4,21.4,21.4c11.8,0,21.4-9.6,21.4-21.4S288.1,175.5,276.3,175.5L276.3,175.5z M276.3,105.1c6.3,0,11.4,5.1,11.4,11.4s-5.1,11.4-11.4,11.4s-11.4-5.1-11.4-11.4S270,105.1,276.3,105.1z M221.4,168.1 c-6.3,0-11.4-5.1-11.4-11.4s5.1-11.4,11.4-11.4s11.4,5.1,11.4,11.4S227.7,168.1,221.4,168.1z M276.3,208.3 c-6.3,0-11.4-5.1-11.4-11.4s5.1-11.4,11.4-11.4s11.4,5.1,11.4,11.4S282.6,208.3,276.3,208.3z"></path> <path class="st0" d="M257.2,281.7c-1.7,0-3.3-0.9-4.2-2.3l-23.4-37.2c-37.7-11.5-63.9-46.8-63.9-86.4c0-49.8,40.5-90.3,90.3-90.3 s90.3,40.5,90.3,90.3c0,38.8-24.4,72.9-61,85.4l-24,38.1C260.5,280.8,258.9,281.7,257.2,281.7z M256,75.5 c-44.3,0-80.3,36-80.3,80.3c0,35.8,24.1,67.6,58.5,77.3c1.2,0.3,2.2,1.1,2.9,2.2l20.1,32l20.7-32.9c0.6-1,1.6-1.7,2.7-2.1 c33.4-10.7,55.8-41.4,55.8-76.5C336.3,111.5,300.3,75.5,256,75.5L256,75.5z"></path> </g> </g> </svg> 