<?xml version="1.0" encoding="UTF-8"?> <svg xmlns="http://www.w3.org/2000/svg" id="Layer_1" data-name="Layer 1" viewBox="0 0 226.12 49.04"> <defs> <style>.cls-1{fill:#ff896f;}</style> </defs> <path class="cls-1" d="M220.59,11.83C204.71,3.67,187.34,1.35,170.27.62Q143.54-.52,116.77.44c-18,.65-35.88,2.71-53.71,5.11-9.19,1.23-18.28,2.67-27.36,4.6-9.33,2-20,3.43-28,8.9C2.37,22.72-.74,28.22.15,34.86c.76,5.66,5.26,12.21,11.37,13.19a49.55,49.55,0,0,0,9,1c3.12-.06,6.35-.87,9.45-1.34,3.86-.59,7.71-1.24,11.57-1.88,8.33-1.38,16.67-2.67,25-4.05C71,41,75.48,40.32,80,39.67c1.93-.28,3.85-.55,5.78-.81-2.9.39,2.38-.3,2.92-.36,8.71-1.09,17.45-2,26.17-2.91Q140,32.85,165.41,32c8.19-.28,16.33-.87,24.52-1.16,7.37-.27,15-.53,22.17,1.16,11.7,2.75,20-14.21,8.49-20.15Z"></path> </svg> 