<svg width="304" height="216" viewBox="0 0 304 216" fill="none" xmlns="http://www.w3.org/2000/svg">
<path fill-rule="evenodd" clip-rule="evenodd" d="M207.425 73.5H209.496C217.096 73.5 222.596 67.3 221.796 59.8L220.896 52.7C219.996 45.2 212.996 39 205.296 39H176.396C168.696 39 163.196 45.2 164.096 52.7L164.996 59.8C165.896 67.3 172.896 73.5 180.596 73.5H201.996L209.496 81.0001L207.425 73.5Z" fill="url(#paint0_linear)"/>
<path d="M194.797 63.6001C194.797 63.6001 193.497 66.4001 193.397 66.4001L191.097 66.3001C190.897 66.3001 189.997 63.4001 189.997 63.4001L188.697 62.8001C188.697 62.8001 185.797 63.9001 185.697 63.8001L184.097 62.1001C183.997 62.0001 185.397 59.3001 185.397 59.3001L184.897 58.0001C184.897 58.0001 182.097 56.7001 182.097 56.6001L182.197 54.3001C182.197 54.1001 185.197 53.3001 185.197 53.3001L185.797 52.1001C185.797 52.1001 184.697 49.2001 184.797 49.1001L186.497 47.6001C186.597 47.5001 189.397 48.9001 189.397 48.9001L190.697 48.4001C190.697 48.4001 191.997 45.6001 192.097 45.6001L194.397 45.7001C194.597 45.7001 195.497 48.6001 195.497 48.6001L196.797 49.2001C196.797 49.2001 199.697 48.1001 199.797 48.2001L201.397 49.9001C201.497 50.0001 200.097 52.7001 200.097 52.7001L200.597 54.0001C200.597 54.0001 203.397 55.3001 203.397 55.4001L203.297 57.7001C203.297 57.9001 200.297 58.8001 200.297 58.8001L199.697 60.0001C199.697 60.0001 200.797 62.9001 200.697 63.0001L198.997 64.5001C198.897 64.6001 196.097 63.2001 196.097 63.2001L194.797 63.6001ZM192.997 51.6001C190.497 51.5001 188.397 53.3001 188.297 55.8001C188.197 58.2001 190.097 60.3001 192.597 60.4001C195.097 60.5001 197.197 58.7001 197.297 56.2001C197.297 53.8001 195.397 51.7001 192.997 51.6001Z" fill="white"/>
<path d="M152.001 81.7999C151.401 81.6999 151.101 80.8999 151.301 80.2999C151.501 79.6999 151.901 79.2999 152.401 78.8999C154.401 77.0999 156.801 75.4999 159.201 74.3999C159.001 75.8999 158.001 77.2999 156.701 78.1999C158.601 78.6999 160.401 79.2999 162.201 80.0999C162.901 80.3999 163.601 80.7999 164.101 81.3999C164.601 81.9999 164.801 82.8999 164.401 83.5999C160.901 83.3999 157.301 83.4999 153.801 83.8999C153.301 83.9999 152.801 83.9999 152.301 83.7999C151.301 83.2999 151.401 81.6999 151.701 80.5999L152.001 81.7999Z" fill="#D3B9B2"/>
<path d="M139.001 87.2C139.301 88.3 139.501 89.5 139.701 90.7C139.501 89.5 139.301 88.4 139.001 87.2Z" fill="#FF6FCA"/>
<path d="M139.001 87.1999C138.701 85.7999 138.301 84.3999 137.901 83.0999C137.101 80.4999 136.101 77.8999 134.901 75.3999C133.501 72.3999 127.201 63.0999 124.501 69.8999C123.001 73.4999 124.101 78.1999 124.601 81.8999C125.301 86.2999 126.301 90.6999 127.601 94.8999V94.9999C127.701 94.7999 127.801 94.5999 128.001 94.4999C130.501 91.4999 136.001 89.6999 139.001 87.1999Z" fill="#7ADCFB"/>
<path d="M132.501 107.2C132.601 107.4 132.601 107.5 132.701 107.7C133.301 108.3 134.101 108.8 135.201 109.1C134.101 108.8 133.201 108.1 132.501 107.2Z" fill="#FF6FCA"/>
<path d="M155.001 81.5999C151.901 76.2999 142.201 88.7999 139.901 91.5999C139.801 91.2999 139.801 90.9999 139.701 90.5999C139.501 89.3999 139.201 88.2999 139.001 87.0999C135.901 89.5999 130.501 91.3999 128.001 94.3999C127.901 94.5999 127.701 94.6999 127.601 94.8999C128.801 98.6999 129.701 104.1 132.401 107.1C133.201 108 134.101 108.6 135.201 109C136.101 109.3 137.101 109.5 138.301 109.4C138.501 109.4 138.601 109.4 138.801 109.4C138.901 109.4 139.101 109.4 139.201 109.3C139.301 109.3 139.501 109.2 139.601 109.2C146.201 107.5 148.801 97.2999 151.201 91.9999C155.901 81.8999 156.401 84.0999 155.001 81.5999Z" fill="#D3B9B2"/>
<path d="M154.201 80.6999C154.101 80.6999 154.101 80.6999 154.201 80.6999L154.101 80.4999C155.001 80.4999 155.801 80.1999 156.401 79.4999C156.801 78.9999 156.901 78.4999 156.801 78.0999H157.001C157.101 78.5999 157.001 79.1999 156.601 79.6999C155.901 80.2999 155.101 80.6999 154.201 80.6999Z" fill="#A48D86"/>
<path d="M164.601 82.5999C162.801 82.1999 160.901 82.0999 159.001 82.0999V81.8999C160.901 81.8999 162.801 82.0999 164.601 82.3999V82.5999Z" fill="#A48D86"/>
<path d="M164.201 81.4999C162.601 80.8999 160.901 80.5999 159.201 80.5999V80.3999C160.901 80.3999 162.601 80.6999 164.301 81.2999L164.201 81.4999Z" fill="#A48D86"/>
<path d="M133.501 100.8C134.701 97.0999 137.001 93.6999 140.001 91.2999L133.501 100.8Z" fill="#A48D86"/>
<path d="M231.401 154.8H229.801V189.3H231.401V154.8Z" fill="#A1DCFF"/>
<path d="M238.601 195.5C238.601 196.6 237.701 197.6 236.501 197.6C235.401 197.6 234.401 196.7 234.401 195.5C234.401 194.4 235.301 193.4 236.501 193.4C237.701 193.4 238.601 194.4 238.601 195.5Z" fill="#A1DCFF"/>
<path d="M226.701 195.5C226.701 196.6 225.801 197.6 224.601 197.6C223.401 197.6 222.501 196.7 222.501 195.5C222.501 194.4 223.401 193.4 224.601 193.4C225.801 193.4 226.701 194.4 226.701 195.5Z" fill="#A1DCFF"/>
<path d="M236.201 196L230.601 189.5L225.001 196L223.801 195L230.601 187.1L237.401 195L236.201 196Z" fill="#A1DCFF"/>
<path d="M196.501 157C196.401 160 198.901 162.5 201.901 162.5H241.601C245.301 162.5 248.501 159.5 248.501 155.7V114.8C248.501 112.9 247.201 111.4 245.501 110.9C245.101 110.8 244.601 110.8 244.201 110.8H226.401C224.101 110.8 221.701 112.5 221.701 114.8V151.6H202.101C199.101 151.6 196.601 154 196.501 157Z" fill="#070606"/>
<path d="M215.201 101.2C215.301 100.6 215.301 99.8999 215.101 99.2999C214.901 98.4999 214.201 98.0999 213.901 97.3999C213.601 96.5999 213.701 95.5999 213.901 94.7999C214.701 92.2999 217.001 89.3999 219.801 88.9999C222.301 88.6999 224.401 89.8999 225.101 92.2999C225.901 94.9999 226.001 98.1999 228.201 99.9999C229.501 101.1 231.301 101.5 232.901 102.3C234.901 103.3 236.401 105.1 237.201 107.2C237.701 108.5 237.801 110 238.401 111.3C239.001 112.6 240.101 113.7 240.701 115C241.301 116.3 241.401 118.1 240.301 119C239.101 120 237.401 119.4 236.001 119.9C234.601 120.5 233.701 120.9 232.001 120.7C226.701 120.7 224.201 114.2 222.701 110.3C222.301 109.3 221.901 108.3 221.201 107.6C219.601 106.2 216.801 106.5 215.601 104.7C214.901 103.5 215.101 102.4 215.201 101.2Z" fill="#4AE0DF"/>
<path d="M210.101 136.8L209.701 137.6L208.701 139.3L202.801 149.7L202.401 150.4L180.001 191.1L179.701 193.3L179.601 194.3L179.501 195.2C179.301 196.4 178.301 197.2 177.101 197.3L161.301 197.5C160.701 197.5 160.201 197 160.201 196.4C160.201 196 160.401 195.5 160.801 195.3L162.801 194.3L171.901 189.5C171.901 189.5 179.801 165.2 185.201 149.7C186.001 147.3 186.801 145.1 187.501 143.3C188.401 140.8 190.201 138.8 192.501 137.7C193.701 137.1 195.101 136.8 196.601 136.8H210.101Z" fill="#4150AF"/>
<path d="M179.701 193.3L179.601 194.3L179.501 195.2C179.301 196.4 178.301 197.2 177.101 197.3L161.301 197.5C160.701 197.5 160.201 197 160.201 196.4C160.201 196 160.401 195.5 160.801 195.3L162.801 194.3L179.701 193.3Z" fill="#FECC50"/>
<path d="M217.201 196.9L210.501 197.2C210.501 197.2 206.301 197.7 202.701 197.7C199.201 197.7 202.901 195.7 202.901 195.7L203.901 194.9L209.101 190.9C207.301 184 202.801 166.1 199.701 154.4C199.601 153.9 199.501 153.3 199.401 152.8C199.101 148.4 202.201 144.1 206.301 142.2C207.801 141.5 209.501 141 211.301 141H212.401L219.201 193.3L219.301 194.4C219.501 195.7 218.501 196.9 217.201 196.9Z" fill="#4150AF"/>
<path d="M217.201 196.9L210.501 197.2C210.501 197.2 206.301 197.7 202.701 197.7C199.201 197.7 202.901 195.7 202.901 195.7L203.901 194.9L219.201 193.2L219.301 194.3C219.501 195.7 218.501 196.9 217.201 196.9Z" fill="#FECC50"/>
<path d="M136.901 196.5V197.8H119.501V196L118.001 188.2L116.701 181.8H123.601L125.601 188.5L126.301 190.7L134.701 193.5C135.801 193.9 136.601 194.9 136.801 196C136.901 196.1 136.901 196.3 136.901 196.5Z" fill="#2300B1"/>
<path d="M118.001 188.2L125.701 188.4L123.701 181.7H116.701V181.8L118.001 188.2Z" fill="#FFB1DF"/>
<path d="M136.901 196.5V197.8H119.501V196H136.901C136.901 196.1 136.901 196.3 136.901 196.5Z" fill="#7ADCFB"/>
<path d="M120.401 135.6C118.701 127.3 116.901 118.9 115.001 110.6C113.501 103.8 112.401 96.8 111.201 90.1C111.001 89.2 110.801 88.3 110.401 87.6C101.701 88.5 93.8006 91.4 87.4006 97C88.6006 99.5 90.0006 101.8 91.6006 104.7C97.6006 115.6 99.8006 129.1 102.501 141.2C105.701 155.4 109.301 169.5 113.201 183.5C113.401 184.3 113.701 185.2 114.301 185.8C115.001 186.5 116.101 186.7 117.101 186.8C119.701 187 122.301 187 124.901 186.7C133.001 185.7 126.201 163.7 125.001 158.3C123.501 150.7 122.001 143.2 120.401 135.6Z" fill="#4150AF"/>
<path d="M107.201 196.5V197.8H89.8007V196L89.7007 181.7H96.6007V190.6L105.001 193.4C106.101 193.8 106.901 194.8 107.101 195.9C107.201 196.1 107.201 196.3 107.201 196.5Z" fill="#2300B1"/>
<path d="M96.6007 180.1V188.1H89.7007V180.1H96.6007Z" fill="#FFB1DF"/>
<path d="M107.201 196.5V197.8H89.8007V196H107.201C107.201 196.1 107.201 196.3 107.201 196.5Z" fill="#7ADCFB"/>
<path d="M99.0007 184.8C98.1007 185.5 96.9007 185.7 95.7007 185.8C93.3007 186.1 90.9007 186.3 88.5007 186.5C87.7007 186.6 87.2007 186.1 86.4007 185.8C82.4007 184.4 82.4007 165.9 81.9007 162C80.6007 151.7 79.6007 141.4 79.2007 131.1C78.9007 122.1 75.4007 110.6 76.4007 100.9C76.4007 100.5 76.5007 100 76.6007 99.6C76.6007 99.3 76.7007 99 76.7007 98.8C76.9007 97.8 77.1007 96.9 77.3007 96C77.7007 94.8 78.1007 93.7 78.7007 92.6C82.2007 97.1 88.3007 99.8 93.3007 101.9C94.9007 102.6 96.6007 103.2 98.3007 103.8C98.2007 104 98.2007 104.2 98.2007 104.4V104.5C98.2007 104.7 98.2007 104.8 98.2007 105C98.2007 105.7 98.2007 106.4 98.2007 107.1C98.2007 115 98.4007 122.8 98.7007 130.7C98.8007 133.3 98.9007 135.9 99.0007 138.5C99.5007 152.3 100.201 166.1 100.601 179.9C100.401 181.5 100.401 183.6 99.0007 184.8Z" fill="#6071DF"/>
<path d="M98.2006 103.7C98.1006 103.9 98.1006 104.1 98.1006 104.3V104.4C98.1006 104.6 98.1006 104.7 98.1006 104.9C98.1006 105.6 98.1006 106.3 98.1006 107C96.0006 107.1 93.9006 106.7 91.8006 106.2C91.2006 106.1 90.6006 105.9 90.0006 105.8C89.9006 105.8 89.8006 105.7 89.7006 105.7C85.1006 104.6 80.4006 103.2 76.4006 100.8C76.4006 100.4 76.5006 99.9 76.6006 99.5C76.6006 99.2 76.7006 98.9 76.7006 98.7C76.9006 97.7 77.1006 96.8 77.3006 95.9C77.7006 94.7 78.1006 93.6 78.7006 92.5C82.2006 97 88.3006 99.7 93.3006 101.8C94.9006 102.5 96.5006 103.1 98.2006 103.7Z" fill="#150077"/>
<path d="M131.901 82.4C131.801 83.2999 131.601 84.1999 131.401 84.9999C130.801 87.5999 129.901 90.1 128.601 92.4C128.201 93 127.901 93.7 127.401 94.3C123.501 100.2 117.701 104.7 111.201 107.6C107.801 109.1 104.101 108.6 100.501 107.8C99.9007 107.7 99.3007 107.5 98.7007 107.4C98.6007 107.4 98.5007 107.3 98.4007 107.3C92.7007 105.9 86.9007 104.1 82.2007 100.5C80.2007 98.8999 78.3007 96.6999 78.6007 94.1999C78.8007 92.6999 79.7007 91.3999 80.5007 90.1999C83.3007 86.2999 86.2007 82.2999 89.0007 78.3999C90.2007 76.7999 91.4007 75.0999 92.6007 73.4999C94.9007 70.2999 97.9007 66.6999 101.901 65.4999C106.401 64.0999 112.001 65.6999 116.501 66.1999C119.601 66.5999 122.901 66.1999 126.001 66.8999C129.501 67.7999 130.601 69.5999 131.401 72.8999C132.201 75.9 132.301 79.2 131.901 82.4Z" fill="#7ADCFB"/>
<path d="M123.201 62.3L121.901 68.6L119.501 71.8L119.201 72.1L118.101 71.4C115.101 69.1 112.301 67.6 113.501 65.8L115.201 63.2L117.101 60.3L119.201 57.1C119.801 57.7 120.301 58.3 120.701 58.9L123.201 62.3Z" fill="#EAD1CA"/>
<path d="M120.501 62.7999C123.001 61.9999 126.301 59.5999 125.901 56.5999C125.901 56.2999 125.801 55.9 125.501 55.7C125.101 55.3 124.501 55.2 124.001 55.2C123.401 55.2 122.001 55.5 121.401 55.5C119.001 55.4 116.601 55.9 116.001 58.7C115.901 59.4 115.901 60.1 115.901 60.9C116.001 61.5 115.901 62 116.201 62.5C116.601 63.2 117.501 63.4 118.301 63.4C118.801 63.4 119.301 63.4 119.801 63.4C119.901 63.1 120.101 62.8999 120.501 62.7999Z" fill="#150077"/>
<path d="M116.901 59.1999V63.0999C116.901 63.3999 116.901 63.5999 117.001 63.8999C117.001 64.0999 117.101 64.1999 117.101 64.3999C117.101 64.3999 117.101 64.3999 117.101 64.4999C117.601 66.1999 119.201 67.3999 121.101 67.3999H121.701C123.001 67.3999 124.001 66.3999 124.001 65.0999V59.6999C124.001 58.1999 122.801 56.9999 121.301 56.9999H119.301C118.001 56.8999 116.901 57.8999 116.901 59.1999Z" fill="#EAD1CA"/>
<path d="M121.401 63.6999C120.401 63.4999 119.701 62.8999 119.401 61.9999C119.301 61.5999 119.201 61.2999 119.001 60.8999L118.601 60.0999L118.201 59.0999C118.101 58.2999 118.701 57.7999 119.401 57.4999C119.701 57.3999 120.101 57.2999 120.401 57.1999C121.001 57.0999 121.701 57.1999 122.301 57.3999C122.401 57.3999 123.801 57.8999 123.601 58.0999C123.801 57.8999 123.901 57.6999 123.901 57.4999C123.701 57.1999 123.601 56.7999 123.601 56.3999C123.401 56.2999 123.301 56.1999 123.101 55.9999L122.701 55.7999C121.401 55.2999 120.001 55.2999 118.801 55.7999L117.501 56.2999L116.001 58.6999L116.601 61.3999L118.101 61.9999V65.2999C118.101 66.7999 119.301 68.0999 120.701 68.1999C123.201 68.3999 123.901 66.9999 123.901 65.3999V62.9999C123.301 63.5999 122.301 63.8999 121.401 63.6999Z" fill="#150077"/>
<path d="M117.801 61.5999V62.4C117.801 63 117.201 63.5 116.401 63.5C115.901 63.5 115.401 63.3999 115.101 63.0999L117.001 60.2C117.101 60.3 117.201 60.3 117.301 60.4C117.601 60.8 117.801 61.0999 117.801 61.5999Z" fill="#150077"/>
<path d="M118.001 63.3H116.701C115.901 63.3 115.301 62.7 115.301 61.9V61.7C115.301 61.1 115.801 60.6 116.401 60.6H116.701C117.401 60.6 118.001 61.2 118.001 61.9V63.3Z" fill="#EAD1CA"/>
<path d="M240.801 140.9C240.001 147.3 235.101 152.5 229.301 154.8H182.701C183.801 151.1 185.101 147.7 185.901 144.8C187.001 140.9 189.701 137.9 192.701 136.2C193.401 136.1 194.201 136 194.901 136H240.401C240.901 137.5 241.001 139.1 240.801 140.9Z" fill="#FECC50"/>
<path d="M224.201 102.9C223.501 102.2 223.101 100.9 222.901 99.6C222.801 98.9 222.701 98.2 222.601 97.5H217.801L217.601 98.5V99.9C217.601 100.2 217.501 100.5 217.401 100.8C217.301 101.4 216.901 102 216.501 102.5L216.401 102.6C216.101 102.9 215.801 103.2 215.501 103.4C214.301 104.2 213.501 104.9 211.801 105.1C210.501 105.2 211.601 105.1 211.001 105.9C210.601 106.5 210.401 107.4 210.701 108.1C211.501 109.8 213.201 110.8 214.901 111.5C218.401 112.8 222.501 112.4 225.601 110.5C226.601 109.9 229.901 107.6 230.701 106.3C231.201 105.7 226.701 105.5 224.201 102.9Z" fill="#4150AF"/>
<path d="M210.901 119.9C210.301 120.3 209.701 120.8 209.101 121.2C209.001 121.3 209.001 121.3 208.901 121.3C208.701 121.6 208.401 121.9 208.201 122.2C208.001 122.4 207.901 122.6 207.701 122.7C207.501 122.9 208.501 121.7 208.201 122C207.801 122.4 207.301 122.9 206.901 123.3C203.401 126.6 198.101 130.5 195.501 133C194.801 133.7 193.801 134 192.901 134.2C191.901 134.4 190.801 134.2 190.201 133.4C188.701 131.6 190.901 129.8 192.101 128.5C192.101 128.4 192.201 128.3 192.401 128C192.801 127.4 194.401 124.9 195.801 122.9C194.001 125.4 192.201 127.9 191.601 128.7L197.301 120.7C196.901 121.2 196.401 122 195.801 122.9C197.601 120.4 199.401 117.9 199.801 117.4C200.901 116.1 205.701 110 206.901 108.7L203.701 113.1C204.701 112.1 205.701 111.1 206.801 110.1C208.101 111.1 209.201 112.4 209.901 114C210.501 115.8 211.201 118 210.901 119.9Z" fill="#4150AF"/>
<path d="M209.201 117.6L209.101 121.2C209.001 121.3 209.001 121.3 208.901 121.3C208.701 121.6 208.401 121.9 208.201 122.2C208.001 122.4 207.901 122.6 207.701 122.7C207.501 122.9 208.501 121.7 208.201 122C207.801 122.4 207.301 122.9 206.901 123.3L202.901 113.7L203.501 113.1L209.201 117.6Z" fill="#4150AF"/>
<path d="M227.601 133.2C230.001 133.2 232.501 134.6 234.901 135C236.201 135.2 237.701 135.3 238.601 134.3C239.101 133.8 239.301 133.2 239.501 132.5C241.201 127.1 241.401 121 239.801 115.5C238.101 109.5 234.501 111.3 232.501 116.2C230.601 120.7 229.901 125.7 228.501 130.4C228.201 131.4 227.901 132.3 227.601 133.2Z" fill="#4150AF"/>
<path d="M219.201 144.8C219.201 144.8 219.101 144.8 219.101 144.9C219.101 144.8 219.201 144.8 219.201 144.8Z" fill="#F7C108"/>
<path d="M202.701 112.8L208.801 106.5C210.201 105.1 212.301 104.7 214.101 105.6C219.301 108.3 224.401 106.4 226.901 105.2C228.101 104.6 229.501 104.6 230.701 105.3C234.001 107.3 237.801 111.3 239.101 112.7C239.301 112.9 239.301 113.3 239.001 113.5L232.001 117.6L233.101 129.9C233.101 129.9 222.401 132.4 207.801 129.3V116.9L203.001 113.5C202.601 113.3 202.501 113 202.701 112.8Z" fill="#E8F1F9"/>
<path d="M221.601 97.5C220.401 98.8 219.001 99.9 217.601 100.8C217.701 100.5 217.801 100.2 217.801 99.9V98.5L218.001 97.5H221.601Z" fill="#150077"/>
<path d="M236.601 127.8C235.401 128.1 231.901 128.2 231.401 128.2C230.901 128.1 230.301 128.1 229.801 128C228.301 127.8 226.701 127.7 225.101 127.6C222.001 127.4 218.901 127.2 215.701 127.1C213.701 127 211.501 126.5 209.501 126.8C209.001 126.9 208.501 127 208.001 127.1C206.301 127.5 204.701 128.1 203.201 129C203.001 129.1 202.501 129.4 202.401 129.7C202.301 129.8 202.501 129.9 202.601 129.9C204.001 129.2 205.601 128.6 207.201 128.4C207.301 128.4 207.401 128.4 207.401 128.5C207.401 128.6 207.301 128.7 207.301 128.7C205.601 129 204.001 129.5 202.501 130.3C202.401 130.3 202.401 130.4 202.401 130.5V130.6C202.401 130.7 202.501 130.7 202.601 130.7C203.901 130.1 205.501 129.6 207.401 129.3C207.501 129.3 207.601 129.3 207.601 129.4C207.601 129.5 207.501 129.6 207.501 129.6C205.701 129.9 204.101 130.3 202.801 131C202.701 131 202.701 131.1 202.701 131.2C202.801 131.3 202.801 131.3 202.901 131.4C202.901 131.4 203.001 131.5 203.101 131.4C204.501 130.8 206.101 130.3 207.601 130.2C207.701 130.2 207.801 130.3 207.801 130.3C207.801 130.4 207.701 130.5 207.601 130.5C206.301 130.6 204.801 131 203.501 131.5C203.401 131.5 203.401 131.7 203.501 131.8C204.001 131.9 204.601 131.6 205.001 131.5C205.701 131.4 206.401 131.3 207.101 131.3H207.201C209.401 131.4 211.501 131.9 213.701 131.8C217.701 131.7 221.601 133.3 225.401 134.3C227.001 134.8 228.601 135.1 230.201 135.3C232.001 135.6 233.801 135.7 235.501 135.7C236.801 135.7 237.901 135.6 239.001 135.4C239.601 134 240.101 132.5 240.601 131C241.201 129.1 239.501 127.2 237.601 127.6C237.301 127.7 236.901 127.8 236.601 127.8ZM230.201 128.7C230.101 128.7 230.001 128.7 230.001 128.7C230.001 128.6 230.101 128.7 230.201 128.7Z" fill="#4150AF"/>
<path d="M214.401 157C214.301 160 216.801 162.5 219.801 162.5H238.701C244.301 162.5 248.801 158 248.801 152.4V114.8C248.801 114.7 248.801 114.6 248.801 114.5C248.501 111 243.501 110.6 242.501 113.9C242.401 114.2 242.401 114.5 242.401 114.8V142.7C242.401 147.6 238.401 151.6 233.501 151.6H220.001C217.001 151.6 214.401 154 214.401 157Z" fill="#070606"/>
<path d="M250.601 134.4L250.301 130.6L249.701 125.5L249.301 122.2L258.601 123L257.301 134.4H250.601Z" fill="#FC4C44"/>
<path d="M248.739 123.42H259.139V122.02H248.739V123.42Z" fill="#4150AF"/>
<path d="M250.401 122H257.601L256.901 121H251.001L250.401 122Z" fill="#4150AF"/>
<path d="M249.701 125.4L250.301 130.6C251.601 130.5 252.601 129.4 252.601 128C252.601 126.6 251.401 125.4 250.001 125.4C249.901 125.4 249.801 125.4 249.701 125.4Z" fill="#4AE0DF"/>
<path d="M262.401 133.9H96.1007V137.7H262.401V133.9Z" fill="#E8F1F9"/>
<path d="M97.9007 136.8H96.1007V198.7H97.9007V136.8Z" fill="#E8F1F9"/>
<path d="M262.401 136.8H260.601V198.7H262.401V136.8Z" fill="#E8F1F9"/>
<path d="M222.501 95.7C220.501 94.8 219.101 93.1 218.301 91.2C217.901 91.4 217.501 91.7 217.201 92L217.101 92.1C216.901 92.3 216.601 92.6 216.501 92.9C215.601 94.2 215.301 96 215.901 97.4C216.401 98.7 218.101 99.2 219.301 99.1C220.201 99 221.101 98.6 221.901 98.1C222.001 98 222.001 97.9 222.101 97.8C222.201 97.7 222.301 97.6 222.301 97.5C222.401 97 222.401 96.2 222.601 95.9C222.601 95.8 222.501 95.7 222.501 95.7Z" fill="#4150AF"/>
<path d="M221.401 96.4999C221.301 97.2999 222.001 97.9999 223.001 98.2999L222.801 96.2999L221.401 96.4999Z" fill="#150077"/>
<path d="M223.401 96.2999C223.201 97.0999 222.401 97.4999 221.701 97.2999C220.901 97.0999 220.501 96.2999 220.701 95.5999C220.901 94.7999 221.701 94.3999 222.401 94.5999C223.101 94.7999 223.601 95.5999 223.401 96.2999Z" fill="#4150AF"/>
<path fill-rule="evenodd" clip-rule="evenodd" d="M179.147 134.2H168.101C167.301 134.2 166.701 133.6 166.701 132.8L164.401 114.9C164.401 114.1 165.001 113.5 165.801 113.5H194.101C194.901 113.5 195.501 114.1 195.501 114.9L197.711 132.1H210.201C210.801 132.1 211.301 132.6 211.301 133.2C211.301 133.8 210.801 134.3 210.201 134.3H179.601C179.44 134.3 179.286 134.264 179.147 134.2Z" fill="url(#paint1_linear)"/>
<path d="M182 124C182 125.111 181.111 126 180 126C178.889 126 178 125.111 178 124C178 122.889 178.889 122 180 122C181.111 122 182 122.889 182 124Z" fill="white"/>
<path d="M121.801 64.3L120.801 64.2C121.001 64.5 121.201 64.7 121.501 64.8C121.601 64.8 121.701 64.8 121.801 64.9C122.101 64.9 122.301 64.8 122.401 64.5L121.801 64.3Z" fill="#E7F0F8"/>
<path d="M92.5006 82V95.9C92.5006 102.2 97.3006 107.2 103.101 107.2H107.301V84.5C102.301 85 97.2006 83.9 92.5006 82Z" fill="#EAD1CA"/>
<path d="M102.001 134H115.501C115.101 133.2 114.501 132.5 113.901 131.9C113.001 131 111.801 130.3 110.601 130L107.301 130.1V97.9C107.101 97.3 106.901 96.8 106.701 96.4C106.201 95.5 105.401 95 104.601 94.4C101.901 92.4 98.5006 91.5 96.2006 92.8C94.7006 93.7 93.9006 95.4 93.7006 97.3C93.0006 103.3 95.7006 111.6 97.2006 117.9C98.4006 122.8 99.2006 129.6 102.001 134Z" fill="#EAD1CA"/>
<path d="M119.401 57.7C119.801 57.6 120.201 57.7 120.601 58L121.301 58.5C122.101 58.8 122.901 58.9 123.501 58.5C123.701 58.3 123.901 58 124.001 57.7C124.001 57.7 124.001 57.6 123.901 57.6C123.701 57.3 123.601 56.9 123.601 56.6C123.401 56.5 123.301 56.4 123.101 56.2L122.701 56C121.401 55.5 120.001 55.5 118.701 56L117.301 56.5L116.901 57.1C117.001 57.2 117.201 57.3 117.301 57.6C117.501 58.1 117.801 58.6 118.101 59.1C118.301 58.4 118.701 57.9 119.401 57.7Z" fill="#150077"/>
<path d="M87.9153 145.1C88.3153 144.2 88.5153 143.3 88.9153 142.4C89.2153 141.8 89.4153 141 89.8153 140.5C90.2153 139.9 90.8153 139.5 91.2153 139C91.7153 138.3 92.1153 137.5 92.6153 136.8C93.6153 135.4 94.7153 134.2 95.3153 132.5C95.8153 131.1 96.0153 129.6 96.3153 128.1C96.5153 128.4 96.6153 128.8 96.7153 129.1C97.3153 131.6 96.7153 134.3 95.2153 136.4C94.3153 137.6 93.1153 138.7 93.0153 140.2C92.9153 142.8 96.4153 145 95.5153 147.4C94.7153 149.6 90.9153 149.9 90.7153 152.3C90.6153 153.7 92.0153 155.3 91.2153 156.5C91.1153 156.6 91.1153 156.7 91.0153 156.7C90.9153 158 90.2153 159.4 89.1153 160.1C88.3153 160.6 87.4153 160.9 86.4153 161C85.8153 161.1 85.1153 161.2 84.4153 161.2C85.5153 159.3 86.3153 157.1 86.8153 155.1C87.5153 151.8 86.5153 148.3 87.9153 145.1Z" fill="#4AE0DF"/>
<path d="M91.6153 136.8C91.1153 137.6 90.6153 138.5 90.0153 139.2C89.6153 139.6 89.0153 140 88.7153 140.5C88.4153 141 88.4153 141.7 88.1153 142.3C87.8153 142.9 87.6153 143.5 87.4153 144.2C86.9153 145.7 86.4153 146.9 86.3153 148.5C86.2153 150.1 86.4153 151.8 86.2153 153.4C86.0153 155.3 85.3153 157 84.6153 158.7C84.3153 159.5 83.9153 160.4 83.4153 161.2C81.4153 161.1 79.6153 160.4 78.7153 158.8C77.6153 156.7 78.7153 154 80.5153 152.5C81.8153 151.4 83.7153 150.3 83.6153 148.6C83.5153 147.3 82.3153 146.5 81.8153 145.3C80.6153 143 82.4153 140 84.8153 139.1C85.6153 138.8 86.5153 138.6 87.3153 138.2C91.1153 136.3 90.2153 129.9 93.7153 127.5C94.0153 127.3 94.4153 127.1 94.7153 127.1C95.0153 127.1 95.3153 127.2 95.5153 127.4C95.2153 129 95.0153 130.6 94.4153 132.2C93.8153 134 92.6153 135.3 91.6153 136.8Z" fill="#4AE0DF"/>
<path d="M75.8153 147.3C75.5153 146.3 75.4153 145.3 75.3153 144.2C75.2153 142.4 75.0153 140.7 74.3153 139C73.9153 138 73.4153 137 73.0153 136C72.6153 135.1 72.7153 134.2 72.5153 133.2C72.3153 132.3 71.8153 131.4 71.5153 130.5C71.3153 129.6 71.0153 128.7 70.8153 127.9C70.3153 125.9 69.8153 124 69.2153 122.1C68.4153 119.9 68.3153 117.9 68.5153 115.6C68.7153 113.6 68.9153 111.6 68.5153 109.6C68.4153 109.3 68.4153 109 68.3153 108.6C69.3153 108.6 69.9153 109.6 70.3153 110.6C71.1153 112.6 71.6153 114.8 71.8153 116.9C71.9153 117.6 71.9153 118.4 72.2153 119C72.8153 120.3 74.4153 121 75.4153 122.1C77.6153 124.6 76.3153 128.3 76.2153 131.3C76.1153 135.4 78.6153 135.8 80.1153 139.1C81.3153 141.7 80.7153 146.1 79.1153 148.4C78.4153 149.4 77.5153 150 76.6153 150.3C76.6153 150.2 76.6153 150.2 76.6153 150.1C76.4153 149.2 76.1153 148.3 75.8153 147.3Z" fill="#FECC50"/>
<path d="M67.9153 116.3C67.7153 118.3 68.0153 120.1 68.6153 122C69.3153 124 69.8153 125.8 70.3153 127.8C70.5153 128.8 70.8153 129.9 71.1153 130.9C71.3153 131.7 71.8153 132.6 72.0153 133.4C72.2153 134.5 72.1153 135.3 72.6153 136.4C73.0153 137.3 73.4153 138.1 73.7153 139C74.5153 140.9 74.6153 142.9 74.8153 144.9C74.9153 146.2 75.3153 147.4 75.6153 148.6C75.0153 147.6 74.2153 146.8 73.2153 146.2C72.3153 145.7 71.4153 145.4 70.6153 144.9C69.1153 143.8 68.5153 142 68.1153 140.1C68.1153 139.7 68.1153 139.3 68.2153 139C68.4153 137.4 69.0153 135.8 68.5153 134.3C68.2153 133.3 67.5153 132.6 66.9153 131.7C65.3153 129.6 64.1153 126.9 64.6153 124.3C65.0153 122.5 66.1153 121 66.2153 119.2C66.3153 117.7 65.6153 116.3 65.4153 114.9C65.2153 113 65.8153 111 67.0153 109.6C67.2153 109.4 67.5153 109.1 67.8153 109C67.8153 109.1 67.8153 109.1 67.8153 109.2C68.3153 111.5 68.1153 113.7 67.9153 116.3Z" fill="#FECC50"/>
<path d="M45.7153 124.1C46.5153 125.2 47.1153 126.3 48.0153 127.4C49.4153 129.2 51.2153 130.3 52.8153 131.9C54.8153 133.9 55.6153 136.7 56.6153 139.2C57.0153 140.3 57.8153 141.3 58.4153 142.3C58.9153 143.2 59.4153 143.9 60.2153 144.6C62.2153 146.2 63.9153 148.1 65.6153 150C67.2153 151.8 68.3153 153.9 69.8153 155.7C70.7153 156.7 71.7153 157.6 72.5153 158.7C73.1153 159.5 73.5153 160.4 74.1153 161.2C71.8153 162.8 68.3153 162.2 65.7153 160.8C63.6153 159.7 61.7153 158.1 60.7153 155.9C60.2153 154.6 60.0153 153.2 59.2153 152.1C57.3153 149.1 52.9153 149.3 49.9153 147.4C47.1153 145.6 45.7153 142 46.0153 138.7C46.2153 136 47.4153 133.3 46.7153 130.7C46.2153 128.8 44.9153 127.3 43.6153 125.8C42.4153 124.3 41.1153 122.7 41.0153 120.7C40.9153 119.7 41.3153 118.7 41.9153 118C42.4153 118.9 43.0153 119.9 43.5153 120.8C44.1153 122.1 44.9153 123 45.7153 124.1Z" fill="url(#paint2_linear)"/>
<path d="M70.6153 144.8C71.4153 145.4 72.3153 145.7 73.2153 146.1C74.2153 146.7 75.0153 147.5 75.6153 148.5C76.3153 149.8 76.6153 151.3 76.5153 152.7C76.5153 153.4 76.3153 154 76.1153 154.6C77.0153 156.3 77.0153 158.5 75.7153 160C75.6153 160.1 75.6153 160.2 75.5153 160.2C74.8153 159.2 74.3153 158.1 73.5153 157.1C72.8153 156.2 72.0153 155.6 71.3153 154.7C69.7153 152.8 68.6153 150.7 66.9153 148.9C66.0153 147.9 65.0153 147 64.1153 146C63.3153 145.1 62.6153 144.3 61.6153 143.6C60.4153 142.7 59.8153 141.4 59.1153 140.1C58.3153 138.9 57.9153 137.7 57.4153 136.4C56.6153 134.3 55.5153 132 53.9153 130.5C53.0153 129.7 52.0153 129.1 51.2153 128.3C50.2153 127.4 49.4153 126.3 48.6153 125.2C47.9153 124.2 47.3153 123.1 46.5153 122.2C45.7153 121.2 45.1153 120.3 44.5153 119.2C44.1153 118.4 43.6153 117.7 43.2153 116.9C43.7153 116.5 44.3153 116.2 45.0153 116.3C45.8153 116.4 46.5153 116.8 47.2153 117.2C49.6153 118.6 52.1153 120.2 53.3153 122.6C54.5153 125 54.5153 128.3 56.7153 130C59.0153 131.7 62.4153 130.7 64.8153 132.2C67.2153 133.7 67.4153 137 68.0153 139.9C68.5153 141.9 69.0153 143.7 70.6153 144.8Z" fill="url(#paint3_linear)"/>
<path d="M65.9153 198.6H84.1153L88.3153 162.5H61.7153L65.9153 198.6Z" fill="#150077"/>
<path d="M146.298 46.5998L134.198 58.6998L137.898 45.2998L146.298 46.5998Z" fill="#4AE0DF"/>
<path d="M134.298 51.2H162.898C170.498 51.2 177.498 45.1 178.398 37.6L179.298 30.6C180.198 23.1 174.798 17 167.198 17H138.498C130.898 17 123.898 23.1 122.998 30.6L122.098 37.6C121.198 45.1 126.598 51.2 134.298 51.2Z" fill="#4AE0DF"/>
<path d="M142 44L160 34.08L144.577 24L144.25 26.88L142 44Z" fill="white"/>
<defs>
<linearGradient id="paint0_linear" x1="168.276" y1="15.8284" x2="191.563" y2="72.7695" gradientUnits="userSpaceOnUse">
<stop stop-color="#FFCA46" stop-opacity="0.23"/>
<stop offset="1" stop-color="#FC4C44"/>
</linearGradient>
<linearGradient id="paint1_linear" x1="222.5" y1="129" x2="186.54" y2="161.404" gradientUnits="userSpaceOnUse">
<stop stop-color="#FC4C44"/>
<stop offset="1" stop-color="#4150AF"/>
</linearGradient>
<linearGradient id="paint2_linear" x1="71.6686" y1="93.6393" x2="38.1112" y2="138.3" gradientUnits="userSpaceOnUse">
<stop stop-color="#FFCA46" stop-opacity="0.23"/>
<stop offset="1" stop-color="#FC4C44"/>
</linearGradient>
<linearGradient id="paint3_linear" x1="74.2697" y1="92.0503" x2="41.0621" y2="137.042" gradientUnits="userSpaceOnUse">
<stop stop-color="#FFCA46" stop-opacity="0.23"/>
<stop offset="1" stop-color="#FC4C44"/>
</linearGradient>
</defs>
</svg>
