<?xml version="1.0" encoding="UTF-8"?> <!-- Generator: Adobe Illustrator 24.1.1, SVG Export Plug-In . SVG Version: 6.00 Build 0) --> <svg xmlns="http://www.w3.org/2000/svg" xmlns:xlink="http://www.w3.org/1999/xlink" id="Layer_1" x="0px" y="0px" viewBox="0 0 512 512" style="enable-background:new 0 0 512 512;" xml:space="preserve"> <style type="text/css"> .st0{fill:#4F4F4F;} </style> <g> <g> <path class="st0" d="M425.4,337.4c4.3-5.5,6.7-12.4,6.7-19.7c0-17.7-14.4-32.1-32.2-32.1s-32.2,14.4-32.2,32.1 c0,7.3,2.4,14.2,6.7,19.7c-9.5,1.8-17.7,7.6-22.6,15.6c-4.9-8-13-13.8-22.6-15.6c4.3-5.5,6.7-12.4,6.7-19.7 c0-17.7-14.4-32.1-32.2-32.1s-32.2,14.4-32.2,32.1c0,7.3,2.4,14.2,6.7,19.7c-9.5,1.8-17.7,7.6-22.6,15.6c-4.9-8-13-13.8-22.6-15.6 c4.3-5.5,6.7-12.4,6.7-19.7c0-17.7-14.4-32.1-32.2-32.1s-32.2,14.4-32.2,32.1c0,7.3,2.4,14.2,6.7,19.7 c-9.5,1.8-17.7,7.6-22.6,15.6c-4.9-8-13-13.8-22.6-15.6c4.3-5.5,6.7-12.4,6.7-19.7c0-17.7-14.4-32.1-32.2-32.1 S79.9,300,79.9,317.7c0,7.3,2.4,14.2,6.7,19.7C70.9,340.3,59,354.1,59,370.6v44.5c0,2.8,2.2,5,5,5h383.9c2.8,0,5-2.2,5-5v-44.5 C453,354.1,441.1,340.3,425.4,337.4L425.4,337.4z M69,370.6c0-13.1,10.6-23.7,23.7-23.7h6.8c2.3,0,4.3-1.6,4.9-3.8 s-0.5-4.6-2.6-5.6c-7.4-3.8-12-11.4-12-19.7c0-12.2,9.9-22.1,22.2-22.1s22.2,9.9,22.2,22.1c0,8.3-4.6,15.9-12,19.7 c-2.1,1.1-3.1,3.4-2.6,5.6s2.6,3.8,4.9,3.8h6.8c13.1,0,23.7,10.6,23.7,23.7v39.5H69V370.6z M165,370.6c0-13.1,10.6-23.7,23.7-23.7 h6.8c2.3,0,4.3-1.6,4.9-3.8s-0.5-4.6-2.6-5.6c-7.4-3.8-12-11.4-12-19.7c0-12.2,9.9-22.1,22.2-22.1s22.2,9.9,22.2,22.1 c0,8.3-4.6,15.9-12,19.7c-2.1,1.1-3.1,3.4-2.6,5.6s2.6,3.8,4.9,3.8h6.8c13.1,0,23.7,10.6,23.7,23.7v39.5h-86L165,370.6z M261,370.6c0-13.1,10.6-23.7,23.7-23.7h6.8c2.3,0,4.3-1.6,4.9-3.8s-0.5-4.6-2.6-5.6c-7.4-3.8-12-11.4-12-19.7 c0-12.2,9.9-22.1,22.2-22.1s22.2,9.9,22.2,22.1c0,8.3-4.6,15.9-12,19.7c-2,1.1-3.1,3.4-2.6,5.6s2.6,3.8,4.9,3.8h6.8 c13.1,0,23.7,10.6,23.7,23.7v39.5h-86V370.6z M443,410.1h-86v-39.5c0-13.1,10.6-23.7,23.7-23.7h6.8c2.3,0,4.3-1.6,4.9-3.8 s-0.5-4.6-2.6-5.6c-7.4-3.8-12-11.4-12-19.7c0-12.2,9.9-22.1,22.2-22.1s22.2,9.9,22.2,22.1c0,8.3-4.6,15.9-12,19.7 c-2,1.1-3.1,3.4-2.6,5.6s2.6,3.8,4.9,3.8h6.8c13.1,0,23.7,10.6,23.7,23.7L443,410.1L443,410.1z"></path> <path class="st0" d="M425.4,240.6c4.3-5.5,6.7-12.4,6.7-19.7c0-17.7-14.4-32.2-32.2-32.2s-32.2,14.4-32.2,32.2 c0,7.3,2.4,14.2,6.7,19.7c-9.5,1.8-17.7,7.6-22.6,15.6c-4.9-8-13-13.8-22.6-15.6c4.3-5.5,6.7-12.4,6.7-19.7 c0-17.7-14.4-32.2-32.2-32.2s-32.2,14.4-32.2,32.2c0,7.3,2.4,14.2,6.7,19.7c-9.5,1.8-17.7,7.6-22.6,15.6c-4.9-8-13-13.8-22.6-15.6 c4.3-5.5,6.7-12.4,6.7-19.7c0-17.7-14.4-32.2-32.2-32.2s-32.2,14.4-32.2,32.2c0,7.3,2.4,14.2,6.7,19.7 c-15.7,2.9-27.6,16.7-27.6,33.2v44.5c0,2.8,2.2,5,5,5s5-2.2,5-5v-44.5c0-13.1,10.6-23.7,23.7-23.7h6.8c2.3,0,4.3-1.6,4.9-3.8 s-0.5-4.6-2.6-5.6c-7.4-3.8-12-11.4-12-19.7c0-12.2,9.9-22.2,22.2-22.2s22.2,9.9,22.2,22.2c0,8.3-4.6,15.9-12,19.7 c-2.1,1.1-3.1,3.4-2.6,5.6s2.6,3.8,4.9,3.8h6.8c13.1,0,23.7,10.6,23.7,23.7v44.5c0,2.8,2.2,5,5,5c2.8,0,5-2.2,5-5v-44.5 c0-13.1,10.6-23.7,23.7-23.7h6.8c2.3,0,4.3-1.6,4.9-3.8s-0.5-4.6-2.6-5.6c-7.4-3.8-12-11.4-12-19.7c0-12.2,9.9-22.2,22.2-22.2 s22.2,9.9,22.2,22.2c0,8.3-4.6,15.9-12,19.7c-2,1.1-3.1,3.4-2.6,5.6s2.6,3.8,4.9,3.8h6.8c13.1,0,23.7,10.6,23.7,23.7v44.5 c0,2.8,2.2,5,5,5s5-2.2,5-5v-44.5c0-13.1,10.6-23.7,23.7-23.7h6.8c2.3,0,4.3-1.6,4.9-3.8s-0.5-4.6-2.6-5.6 c-7.4-3.8-12-11.4-12-19.7c0-12.2,9.9-22.2,22.2-22.2s22.2,9.9,22.2,22.2c0,8.3-4.6,15.9-12,19.7c-2,1.1-3.1,3.4-2.6,5.6 s2.6,3.8,4.9,3.8h6.8c13.1,0,23.7,10.6,23.7,23.7v44.5c0,2.8,2.2,5,5,5s5-2.2,5-5v-44.5C453,257.3,441.1,243.5,425.4,240.6 L425.4,240.6z"></path> <path class="st0" d="M425.4,143.8c4.3-5.5,6.7-12.4,6.7-19.7c0-17.7-14.4-32.2-32.2-32.2s-32.2,14.4-32.2,32.2 c0,7.3,2.4,14.2,6.7,19.7c-9.5,1.8-17.7,7.6-22.6,15.6c-4.9-8-13-13.8-22.6-15.6c4.3-5.5,6.7-12.4,6.7-19.7 c0-17.7-14.4-32.2-32.2-32.2s-32.2,14.4-32.2,32.2c0,7.3,2.4,14.2,6.7,19.7c-15.7,2.9-27.6,16.7-27.6,33.2v44.5c0,2.8,2.2,5,5,5 s5-2.2,5-5v-44.5c0-13.1,10.6-23.7,23.7-23.7h6.8c2.3,0,4.3-1.6,4.9-3.8s-0.5-4.6-2.6-5.6c-7.4-3.8-12-11.4-12-19.7 c0-12.2,9.9-22.2,22.2-22.2s22.2,9.9,22.2,22.2c0,8.3-4.6,15.9-12,19.7c-2,1.1-3.1,3.4-2.6,5.6s2.6,3.8,4.9,3.8h6.8 c13.1,0,23.7,10.6,23.7,23.7v44.5c0,2.8,2.2,5,5,5s5-2.2,5-5v-44.5c0-13.1,10.6-23.7,23.7-23.7h6.8c2.3,0,4.3-1.6,4.9-3.8 s-0.5-4.6-2.6-5.6c-7.4-3.8-12-11.4-12-19.7c0-12.2,9.9-22.2,22.2-22.2s22.2,9.9,22.2,22.2c0,8.3-4.6,15.9-12,19.7 c-2,1.1-3.1,3.4-2.6,5.6s2.6,3.8,4.9,3.8h6.8c13.1,0,23.7,10.6,23.7,23.7v44.5c0,2.8,2.2,5,5,5s5-2.2,5-5v-44.5 C453,160.4,441.1,146.7,425.4,143.8L425.4,143.8z"></path> </g> <path class="st0" d="M64,291.3c-3.9,0-7.7-1.5-10.5-4.3c-5.9-5.8-6-15.3-0.2-21.2l150.6-153.9c-8.2-0.1-14.8-6.8-14.8-15 c0-8.3,6.7-15,15-15h35.5c8.3,0,15,6.7,15,15v35.5c0,8.3-6.7,15-15,15c-7.8,0-14.3-6.1-14.9-13.7L74.8,286.8 C71.9,289.7,68.1,291.3,64,291.3L64,291.3z M204.1,91.9c-2.8,0-5,2.2-5,5s2.2,5,5,5h11.7c2,0,3.8,1.2,4.6,3.1c0.8,1.9,0.4,4-1,5.4 L60.5,272.8c-1.9,2-1.9,5.1,0.1,7.1c1.9,1.9,5.2,1.8,7.1-0.1L226,117.9c1.4-1.5,3.6-1.9,5.5-1.1c1.9,0.8,3.1,2.6,3.1,4.6v10.9 c0,2.8,2.2,5,5,5s5-2.2,5-5V96.9c0-2.8-2.2-5-5-5L204.1,91.9z"></path> </g> </svg> 